<mxfile host="app.diagrams.net" modified="2024-07-05T10:01:12.001Z" agent="Mozilla/5.0 (Windows NT 10.0; Win64; x64) AppleWebKit/537.36 (KHTML, like Gecko) Chrome/126.0.0.0 Safari/537.36" etag="RlLVWXONoWs3fnEXYODa" version="24.6.3" type="github">
  <diagram name="第 1 页" id="seTQXE7LHq-3X5DSE2NS">
    <mxGraphModel dx="1050" dy="522" grid="1" gridSize="10" guides="1" tooltips="1" connect="1" arrows="1" fold="1" page="1" pageScale="1" pageWidth="827" pageHeight="1169" math="0" shadow="0">
      <root>
        <mxCell id="0" />
        <mxCell id="1" parent="0" />
        <mxCell id="8JbdH3tO8q7aePVKSRdx-9" value="" style="rounded=0;whiteSpace=wrap;html=1;fillColor=#dae8fc;strokeColor=#6c8ebf;" vertex="1" parent="1">
          <mxGeometry x="414" y="280" width="176" height="210" as="geometry" />
        </mxCell>
        <mxCell id="8JbdH3tO8q7aePVKSRdx-2" value="指令1" style="text;html=1;align=center;verticalAlign=middle;whiteSpace=wrap;rounded=0;" vertex="1" parent="1">
          <mxGeometry x="452" y="320" width="100" height="30" as="geometry" />
        </mxCell>
        <mxCell id="8JbdH3tO8q7aePVKSRdx-4" value="指令2" style="text;html=1;align=center;verticalAlign=middle;whiteSpace=wrap;rounded=0;" vertex="1" parent="1">
          <mxGeometry x="452" y="350" width="100" height="30" as="geometry" />
        </mxCell>
        <mxCell id="8JbdH3tO8q7aePVKSRdx-7" value="&lt;font color=&quot;#ff0000&quot;&gt;指令3&lt;/font&gt;" style="text;html=1;align=center;verticalAlign=middle;whiteSpace=wrap;rounded=0;" vertex="1" parent="1">
          <mxGeometry x="452" y="380" width="100" height="30" as="geometry" />
        </mxCell>
        <mxCell id="8JbdH3tO8q7aePVKSRdx-8" value="指令4" style="text;html=1;align=center;verticalAlign=middle;whiteSpace=wrap;rounded=0;" vertex="1" parent="1">
          <mxGeometry x="452" y="410" width="100" height="30" as="geometry" />
        </mxCell>
        <mxCell id="8JbdH3tO8q7aePVKSRdx-10" value="应用程序" style="rounded=1;whiteSpace=wrap;html=1;fillColor=#dae8fc;strokeColor=#6c8ebf;" vertex="1" parent="1">
          <mxGeometry x="150" y="350" width="120" height="60" as="geometry" />
        </mxCell>
        <mxCell id="8JbdH3tO8q7aePVKSRdx-11" value="" style="shape=flexArrow;endArrow=classic;html=1;rounded=0;exitX=1;exitY=0.5;exitDx=0;exitDy=0;" edge="1" parent="1" source="8JbdH3tO8q7aePVKSRdx-10">
          <mxGeometry width="50" height="50" relative="1" as="geometry">
            <mxPoint x="290" y="390" as="sourcePoint" />
            <mxPoint x="400" y="380" as="targetPoint" />
          </mxGeometry>
        </mxCell>
        <mxCell id="8JbdH3tO8q7aePVKSRdx-12" value="" style="rounded=0;whiteSpace=wrap;html=1;fillColor=#ffe6cc;strokeColor=#d79b00;" vertex="1" parent="1">
          <mxGeometry x="414" y="540" width="176" height="210" as="geometry" />
        </mxCell>
        <mxCell id="8JbdH3tO8q7aePVKSRdx-13" value="指令1" style="text;html=1;align=center;verticalAlign=middle;whiteSpace=wrap;rounded=0;" vertex="1" parent="1">
          <mxGeometry x="452" y="580" width="100" height="30" as="geometry" />
        </mxCell>
        <mxCell id="8JbdH3tO8q7aePVKSRdx-14" value="指令2" style="text;html=1;align=center;verticalAlign=middle;whiteSpace=wrap;rounded=0;" vertex="1" parent="1">
          <mxGeometry x="452" y="610" width="100" height="30" as="geometry" />
        </mxCell>
        <mxCell id="8JbdH3tO8q7aePVKSRdx-15" value="指令3" style="text;html=1;align=center;verticalAlign=middle;whiteSpace=wrap;rounded=0;" vertex="1" parent="1">
          <mxGeometry x="452" y="640" width="100" height="30" as="geometry" />
        </mxCell>
        <mxCell id="8JbdH3tO8q7aePVKSRdx-16" value="指令4" style="text;html=1;align=center;verticalAlign=middle;whiteSpace=wrap;rounded=0;" vertex="1" parent="1">
          <mxGeometry x="452" y="670" width="100" height="30" as="geometry" />
        </mxCell>
        <mxCell id="8JbdH3tO8q7aePVKSRdx-17" value="处理中断信号的内核程序" style="rounded=1;whiteSpace=wrap;html=1;fillColor=#ffe6cc;strokeColor=#d79b00;" vertex="1" parent="1">
          <mxGeometry x="150" y="610" width="120" height="60" as="geometry" />
        </mxCell>
        <mxCell id="8JbdH3tO8q7aePVKSRdx-18" value="" style="shape=flexArrow;endArrow=classic;html=1;rounded=0;exitX=1;exitY=0.5;exitDx=0;exitDy=0;" edge="1" parent="1" source="8JbdH3tO8q7aePVKSRdx-17">
          <mxGeometry width="50" height="50" relative="1" as="geometry">
            <mxPoint x="290" y="650" as="sourcePoint" />
            <mxPoint x="400" y="640" as="targetPoint" />
          </mxGeometry>
        </mxCell>
        <mxCell id="8JbdH3tO8q7aePVKSRdx-19" value="" style="shape=image;verticalLabelPosition=bottom;labelBackgroundColor=default;verticalAlign=top;aspect=fixed;imageAspect=0;image=data:image/png,iVBORw0KGgoAAAANSUhEUgAABF8AAAHvCAIAAAANSufhAAAgAElEQVR4Aeydh3MUV77v37+CvbZ39767d13P792qLdfWAs4Bh8VGSJYx2F5sX9trksHGJJvgREYSKCGRoyQQIJIEiCCUc84aZWk0ndPp7nl1+sz0tGZG0ozyjH6qLujp6T59zrdH6v7M73e+v//lhB9QABQABUJKAU3TWFZwOHiG4VVVRQhxnGi8FARBEkWJonia5nledDqdHIf3dDh4QZDIUQ4Hzwv4rfH9qKoqSbKqquM7HI4CBUABUAAUmBQFdF33akeSZIbBf/NZVlQUpGmaIEhDxi2A3AjIuw4Hj1BAf8PJH3xRlAVBlCRZURRyRt9Te/UEXoa0Av8rpHsPnQcFQIG5poAvGvH82GhEbmmiKJEbpCS57nCjqKfruiwrCCFfENI0bZQD4S1QABQABUCB6VfARCOGESRJJh3wBaTA0cg6BFlWRBGjF3CRVZZwXQc6CtcrC+MCBcJQgYmgEUKIonAQSRTHRiNN0xRFIbdDUZQQQmGoJgwJFAAFQIFwUcCKRqIoWYelaZqZRDA+NCKt6bquaRrQkVXbcF0HOgrXKwvjAgXCUAFFUawJdSRqRFE4a26khDoSNQoKjZxOp4wTKDBEaZomy4okyXBHDMPPEwwJFAAFwkUBRUEkv9oLjcifcZ53JQ4EklBHwk2QIxAuH43xjAPoaDyqwTGgACgwUwooikLmGhE0cjh4isJTjPzONRofGhE6MhMzVFXlOBHoaKauOJwXFAAFQIFAFDCi/cOiRk6nEyFVEGSSUx0IGum6jhASRfhGLBDJw3YfoKOwvbQwMFAgPBTQdZ1MrjWHo6qqGTUi9zyHkTLHsoI1g2LcaOR0OhVFEUXJDB+RFbMDsAIKgAKgACgw+xUwPHtcxjyBoJGmabwgkS/gzC/IZv8woYeTrgDQ0aRLCg2CAqDApCmg67ogSDSNzehMdwSEEMsKDCNwHA4ZuQDJsLAzXekmgkak95Iki6IkCKKiYG+GSRsSNAQKgAKgACgwsgKqqhluOJqsIOKMg5AaCNt4NRksGpGsAZ4XOQ7/2RdFGf7ye0k6d14CHc2daw0jBQVCTAETjQj/eAGSoii6rpv2rCYjORz8+NDIN8tc13VVVSGnLsQ+N9BdUAAUCDUFNA0TkSgqHC/xvMyyIs/LHC9xHH7JcXhFFBVRVAg4jTm+YNFI0zQyv1SWFUGQyL+i6DK+G/N0sEOYKQB0FGYXFIYDCoSJAsPQyB0gsgISmWvLsgJN4yASSa4bHxoR6wVRhCpGYfLhgWGAAqBAqCig67okKYIgM4woCLIgyLKM8GIEjjz/yojsJgiYnSSc+DxiwSJd10UxiLlGTqdTECReEAVBMnK58VdvxpwlyBoIlc/RJPcT6GiSBYXmQAFQYOIKmGhEUTzHiTwv0rQrg84LkMg0XLMg7PiiRtifzohEQZho4tcOWgAFQAFQIBAFjJpyyKQdSXLFhXTjx6sFA3gUSXItJLLE87LhsO1dE9bIkUM0Iwaej0cyBSRJJpl1kFPnpf9cewl0NNeuOIwXFJjtCljRiOdFzfgxZh/5ASTzPioIrqpEqqoGXteIBKAEQbKm1ZkTnGa7UtA/UAAUAAVCUwFd13le5nlZFBUcIDLiRYIwYiabqmo4rKQgUcSARIJLHC8JgqwoyO8XW5rmh5rGVAshZFZ0GHNn2CFcFQA6CtcrC+MCBUJSARONSOUKE1pIAYqRIkjWoSKEq14EUvKVHGV8JYnJykylgG8NrXrCOigACoACk6iAUVOVoJFETBcI6iCkyjIy/+Z7ndG4BeC8O8JIpCqrouCpSmTxC0hejXi9JPEir43wEhRwOp1AR/AxAAVAgdmlgCC4yvaRMq9m5wIEJFVVFSW4ZHEyAVeSZEmS8ZeT4FBnig4roAAoAApMngIWNJLNtDdJUoxMOVmSlJHoSJYRz7vQCCGXWY5RmwgzlSDgGFRQgGTMd/L0YfKGCC2FgwJAR+FwFWEMoEDYKKAoiiwrpjH3+ABpHGqQ80oSWLiOQzw4BBQABUCBgBQgCXWCMAxLDFDB8MPz+OspM1/a6XSa6yTFWlFUXz8GPH9JwYAkCIGWcDUs8hBC2OkhKKYKaJCwU+grAHQU+tcQRgAKhL4CxheKmiwrHCdQFC+KMrahc+CJRmMCEtQjCv3rDyMABUCB8FfALxoRBCLYQ+YUkVCSqmrkLaILwSS/kSWSZUcAKZAIkpG/LbKsgBBSFAQTTcP/kxf8CIGOgtcMjgAFQIFJVUDXdY6TGEYgISOK4kndCZ4PAJAonmFwZVhZVia1U9AYKAAKgAKgwKQp4LZhkMyEOmvTJEeOpgUHJQw5eEGQCfOoKg4aee1pjfaQjDsScZJl7Nkgy/5NGkgjJAZFsqk5ThRFSZLg3mEVGNaxAkBH8DkABUCBGVZAkmR8U3RHikQReyTwvKiqakCAZBwoy8HNNZrhMcPpQQFQABSYSwqIeHKRNFKRIiOegysUDTl4B8UTwpEVlePxZCQrDhHNTGRCSGVZkQSaVFUjNZHMd70E1jRcB0kUXUWNkFFZltxrvPaEl3NcAaCjOf4BgOGDAjOvgCjKphkdRfGKojAMzq9jWSEgQMKZeOP58s+otjGeA2deMugBKAAKgAKho4DLj9tfVIekzMkK4jhpyKAjlsV1imQFsazkoASWwzDjO1aykRxu7qAoKpm/5Ls/ydMznPEUI2okk/p41vw9v0fBxjmoANDRHLzoMGRQYBYpoCh4rhEOHFHG4p5oRKJJDDMGIJHE8fGNh5jgjfQt4/jahKNAAVAAFAAFvBSQJIXjsX+3jOf5aCbMkBWEVDLviOxAsuMIGjHBVHQlnINBa+QgFekYTk8QcJ1x+PvvdaXgJVEA6Ag+CaAAKDBjCpDqRsR6gedFXhg20YgElBgGz50dKcUukK4bGe2QdxeIVLAPKAAKgAKTrICiqBwnueq3chLHS6Z3gq7rioLRyDwlMaBjWdFBCQSNTNs6cx+yYlQr8oCW+S6JU/nNxzP3IXXAydQm60ZYBwWIAkBH8EkABUCBGVDAqMGK3VeJTx2Za8SyAu8udkTT2LkOAxLF0zRvBSSaxrYNAXbafQo8+9b8wjLAY2E3UAAUAAVAgQkqQOoRyQq2z6ZpzDwktqNpmqpqsjKsAqyRUOdBI1nBTt8MI/qagIuiwhqs5WXzoGl49hFNC1bomuAQ4PC5pgDQ0Vy74jBeUGDmFdA0jWWxQx2pu0q+wKMobN7NMMMASZJkhsF5dzQ9LILEcUIgGRGk3h9BKZ4XiRXezI8fegAKgAKgwNxQwPhrj9mGJLyxrEjTAs+7LOkURbUWKdJ13Yga8UbUSJNlZLrYDTl4jpfMP/uyjBhGdFDDNqqqRgrFIoSbBaueufERm5JRAh1NiazQKCgACoykAEEjh4PnedEM5hCMIbOPvCJIsoxNGkj2nYLn6eL1AG0YCFyZU295XhQECapbjHRpYDsoAAqAApOrgKpqpMarpmmiqPC8TEwXSF4cWTfPKCsYh0w0omjs7u2gsJEdXnHgqUskKY7jJPKtmSzj0BO5laiqpigqaVkU8Uwn8xZjngJWQIFAFAA6CkQl2AcUAAUmQQEDgRSzqBHxUTXvXkauHb7hURQOK5lzkGgal08ngESYKvDyFLgWOkIcJ5pBKkmSgY4m4VpCE6AAKAAKBKAA9mPgXEbepOq3oqgkwkMy7sxwkAt7eAkhHDWijDIPnJE7R9OuKamCgHOqBUEmvCQryGzNNK9zmeDJOCWPOH0H0E3YBRQYpgDQ0TA54AUoAApMkQKk5CtNCzSNM+h4Hk8EEkWJF1zoQm6NokgACdt5m3OQGEYwbL7xgYGjkTkQAkiyrJA6gOZ2WAEFQAFQABSYUgUkXObIm1IIwHCcRGjH7IAJNpRRE9acnoQjRRTOGhAEWVFUhhFJxVhSQ9bM03M6naR6LLF2wFYQCvjxmOrCShAKAB0FIRbsCgqAAuNTgHgwUMbtjYSMZFkRRRm7eDt4L0ASDGMGmuY5zuNiR5zrxnerI8YMguDJWR/fKOAoUAAUAAVAgcAVwF+K8RiBvGI4xI+B5SRR9PbX0TQNR4qMCUXEVsHl04BT7ARifDdkzEQltwPiUEewyqQjp9NJCh+BMUPgFwv2tCoAdGRVA9ZBAVBgqhQgzOPAwR+c2yaKODUCTzQyEsqtgGRWgKVpHGIyU+xkI+N8zP5Z8zTMnY2bscc01twOK6AAKAAKgAJTpAChI1HEcXvrKYiRN00LvrkA5C1JUogTnWy4gZObBfEB53l87+B4iTSoaRqHk/HwdCOSgEBWEMJlYcf3hZq1q7A+NxUAOpqb1x1GDQpMnwKk3BBCiGHwhCKSUOdw4Nw5Ek3yD0hG7SNsYcfjmn2+N1HfAaiqKsuKIEgBcpRvC7AFFAAFQAFQYBIVEATZt/QQyYhzUH7oyHpqbHPHSWSKkenEw3ISZQSRyJ6qqlEUNu8mUESmNpkZd4HcOKxnhHVQgCgAdASfBFAAFJhCBYhDHc/jyUWCILGswHF4fi1x9CYu3tYIkvkVo1ngyDT+HrOXivGjqirHYfvYMfeHHUABUAAUAAWmToFRYkeygihK8Jp3ZO0JQSPy3ZmJRpqmMYxIUYKZqoeQyrKiSUckZ8/pdJLYEdCRVVJYD1wBoKPAtYI9QQFQIDgFCBrRtEDm/HAcnlZrRSOGEUwzOmLnTagGIWTkVyiCEFDUiCRU8LyoaZosK7KsENcHk7WC6zfsDQqAAqAAKDBhBYgZj29mnaZh621i3m3allrPpuu6IMheaESmFdG0wLL4Tz3ZX5IUhhGJGYO1Bciss6oB68EqAHQUrGKwPygACoytgME2rtpENM2LoszzLktWM2pE0MisZUToSFEUUqSI50XCPGOfzL2HccfFaGTcWbEhHph3u7WB/0EBUAAUmAEFRFERBFz7lZzbzHwz3BcEmsZJcX67hemI8i5tR2JHHOeadKTrOs/LJJRkUhZxaFCMCUtQENavtrBxTAWAjsaUCHYABUCB4BQg3xfStEBRuJAfx4miKHsl1FnRiONEUgSJF7AHA7H8Hl9qHJ6hy4mSJCsKZqTg+g17gwKgACgACkyqArgqq+GsTQoq4PC+guu3Ys5h8VdmIyXXaZpGvBkURZUkxawkiwviuelIUVTibmcWhEVIJUl3ODGPd9VZmtQBQWNzQgGgozlxmWGQoMC0KUDQiKIwGvG8SGJB2LzbMtfIC40IOPG8yDDYp8EoauRt8+q3/0ZN9GHfO5rm3aT8q9+jYCMoAAqAAqDA9ChAnLVJ4VcSRyKJdqQ4OCn/7RXhMf6waxireFzmCJv3UDzxZsBVjyiepvG8I1XFbnVWawdyIAlPSZJiTcCbnsHCWcJGAaCjsLmUMBBQYLYowBq+CxTFI+N7vLHRyOAocwISywoBhn0UReEFnIAHP6AAKAAKgAKzUAFV1VhWFEUc/BEEmeMlWUaKopKpR6SuK8thS26n00nwhuMlst1FREalI4rGISOOl0RRkRV8b5EkBW9kRYRUkp5nrXpE4CrAW8ks1A26NLMKAB3NrP5wdlAg3BTAieCCSBkJdZIkk7pGJHeOong/USOKFwQJz0oyKsM6HN6J5n4FIt8OkolGECbyKxFsDA8FdE3l+m2OlkqqrUaw94THoGAUc0cBTdMEQRZFhWTHiTifwJX85nQ6BQEXLxpy8KQ2kSxjIzscIDI2OiiBYUSSmGe60pH5qLKCSNFYnpdJg4SsVFUjFZPwUTKaOzrDSCdXAaCjydUTWgMFQAEnQohM/iFRI4cBRaOgkSBIZJKS4d8wthO3ruuiKAkCnpiLjB8QHRQIPwVk1lF/Oe7q5/83LXKeueT88FZ77kVVds1KD79Rw4jCTwFJMqYeuUNGZjyHhHo4TnI4cLIcSZMjvqYOB89xOExkTigyZVFVPB+JojFBEbc6hHAkioSeSJuyjCcdITSsBK3ZAqyAAmMqAHQ0pkSwAygACgSngBnYMZPljORyV+DIuO2JeK6RETUy0IgPfK4RuQWSqq+EkQRBgvBRcFcI9p71CtSmHUyPfiotcl5m9BM3Pnrq5nK8XP/oD1c/+c+0yHlXVv6f3rK7s34Q0EFQACugadieW5Iw6ngpomkaQirHSywrkpARmWhE/Bh8d5ZlxLK43pEBVDinzrRhQAgXhHUFjniJ5wOavOp1CngJChAFgI7gkwAKgAJTogAxSKAZV40jYyotLnbEcV5oFIQNg1dHEUKyrHCcOD6DO6/W4CUoMEsUqD77K0ag6CezVzx955NnvJZbK57K+vy5jA+fAUCaJdcLujGmAmQWkF/zbuJNR9CIogSOw6TE8ZIkKbKMyCQlWUY8L3OcNGRUzDPRiHgzkFw7UgfWuO/gnSFwNOZFgR1GUQDoaBRx4C1QABQYQwEzR8Lcj8wFMvMcZFnxABJOhBBMhzozoU6SJvQlH0JIkmTfnphdghVQIIQUqDm/Oy1y3tUPn8z52A8aEVLK+fjprC/+b8aHz/RV3g+hoUFX56wCxMtUEGTivkB0kGVEpglxPMYeihJ4XqZpPO8IUxCZgITLQrhmIpGkO+zozWIXB3MmEglAkVsAKQLL83BHmLOftckZONDR5OgIrYACc1ABY/6PrCiema+qqpJMOZ4Xyb3KN4LkwBNwiXl3cAl1vgnopuYw+8iUAlZCWgGZdaRFPXElejQ0MgHp+ld/u/Xty/C9QEhf8bnTeVXF9gySpJB6RMSPm2HwnUKSFAeF5x3hGUoGKbkAyR0pMrmIeNZZE+pIIjehLOMUCk0LmgbF7ubOJ2tKRgp0NCWyQqOgQNgr4K5rhMNBJLGNoBHJfOB5j9H2MEAabt4tigFNLldVVZYVUZQYRvA7xUgQJHLHDXvZYYDhrUB5ypa0yHl+E+q88uvufPJMzlf/Ly1yXn/N4/DWBEYXHgrouo6QKkrYj5skFxBSItsNEwVs6k2cvgkmcZyEE+0MI2+caGccqCh4rpGZnmCuGx7fCPs0+MxuCg8BYRTTqQDQ0XSqDecCBcJHAVlWTNMFhhFEEbty+6IRGTABJIYRBEEimXXEpyFApJFlbAHrdDoVBZ+UrJtSGuzkiV+Z22EFFAgtBXRNvbziPzKjn/AFIb9bcj5++upnzz3e90VoDRN6O2cVMNINcOEjWUFeMU/TsIE4K5BMAXMqEXlJ3iL/mg51KgYlbO0gSYjj8NdkXi3PWbVh4BNRAOhoIurBsaDAnFaAJNGRnAeaxo4LJGvOrygk/4HnRZxWbuwpimObd5OvEq0hJkVRJjhPyW/3YCMoMOMKcH3taZHzbnz0lF8W8rvx7nevZn761xnvOXQAFAhQASsg+X475gU2XjhETkE2qiomIrI/oFGA4sNugSsAdBS4VrAnKAAKeCsgCBLlruJqVJ8QvPewvFYUhabxXCOOEwJEI3I0xwkmESnGj6VVWAUFwkSBwfqitMh5N5f7oaNbK57ym253d/2LaZHzdEglCpOPwJwYBp5oJCOcYicjq0kDCQGZYSJfLaxcRKYeOZ1OVdVEUWFZiBr5CgZbxq8A0NH4tYMjQQFQQFVVM7+O0NEo5tokGc/knMDV0zSN50VRlBRFwbdTI8su8MNhT1AgJBRoykpOi5x3bdkfvMJEOR8/TarBem2/88kzl5f/OS1ynoYm5PoYEuJAJ8NJAeK7LYqKIMjE5pskF5CZRWTqkZkyZ51iZJp3m/sLArZhgIS6cPp4zIaxAB3NhqsAfQAFQlIBqw0DSZYbE5DM5PJgB2zkY2A6AjQKVjrYP1QU6C+/lxY5LyNqnhcFZX/+17TIeemR3tvvfPIMoSYNBZSkGio6QD/nggIuMwbDcYEUNSI4RAJExGuBlHY1yYe8hacZaZqsIAOucNRo3LeVuaAzjHF8CgAdjU83OAoUmFsKkC/qrGO2ohHPi9Y5SKaLnXX/oNZHMe8Oqh3YGRQIIQUGqx8R2sla9gez2NHtFU9dXoYp6Er0k17UZMaUgI5C6CpDV60K6LouCDKp9ErKvxrfgBECwv4K5NZD7giqqimKKstIEGRjwV+XeU1VsjYO66DAuBUAOhq3dHAgKDBXFCDm3RyHc9vIt3SapgmCq2y5ad49KYBEislKkgwFXufKxwvG6VaA0NGNj/9kRJBw1aOrH/8HzrX78MmMD/7gS0d3vvkbxI7c4sH/wxTQNJ0T5b4htqVnqKq1t6DWdqe05Wpe3bm7lSnXi2PS8349k7s1JXtD/PVvD2etjbu2Jvba6thrqw5d/fehK/8+eOWrA5lf7s/8n/2XP9976fO9l1buyfhs76VVMVc3Jt7cfjzn97P3Y9Lzkq4Vnbpdln6/Oiu//m5ZS36Nrby5p8E2YOunWCG4YqwI4blDHI/9u3kew5IoKgSWZBlJEl4nO/C8zLKiZKQRDBswvAAFJlUBoKNJlRMaAwXCTgF3XSOX0ZxZcYjj8BYTjci4Jw5IxLxbVVVRlERRgu8Fw+4DBQMaUQFCR63r/rNpzf/O/dczN5Y/lb3iDxVf/7lv41+vrPizFx1lr3j6ykeQWTeimGH/hqpp/Q6upq0/t7w1Lbf6SGbBjuN3vj54JeKns698mzJ/VeJIywtrU15af/zl7069vPHsKz+cf2XTBcty8dXNZEl7dbOxbEl/1b28suniqz+ce3XjmVe+P/XyhuMvrktZsDpppLO8tO5oxI9nvtx/ecvR2wcuPjpxqywrv76g1tbcZadYV61wr2tEbOgkCU9GItEkjsewRKoekXgRKXYE9wUv6eDlpCsAdDTpkkKDoED4KGDM9pGxB7fbmE4QPMTi119hgoBEZhYhhGRZkWVFECCnPHw+TjCS0RUgdNS27j/tm571WrzoCKPR8j9lRj9RuOEfhisDzDsaXdoQfldVNVs/9bCq/XR2+YGLj35IuvXp7+nvbDrpRSYvrkt96bvTr2y68PqPmYt2Xn/r59vv/Hbn3d25i/c+fO/A4yWHiiJiS5ceqYiMr4pKqJ7EJTK+aunh8ojYkiWHit47kL94X94/9zx459c7i3beeP3HzFc3p732w9lXNpxYOJyjXliTtHjLqc/2ZPx4LOdoVvHt4qZ624AgeT7GJKHOmlkXwpcQuh6CCgAdheBFgy6DAtOogOGyinheJLVcVVXledEvF5md8gKkoHwUyE1RUfBtUpaxe3dQh5t9gBVQIOQUCISOcj5++vpHT2V+9MfM6Cds6/9S89PrQEchd6FH6bAko8bOwdvFTcnXirYcvf3BzvMvrEkm8ZkFq5NwzOf7s69uSX/jp6tv/Xzr3d/vLd6ftySmODK+chKBZyqaIhD1/qHCxXsfvfPb3bd23Xzjp6uvbUl//YczL6w9agag/rnl1KqYq3vPP7hwrzK/xtY9yKjgVj/KxwXemjIFgI6mTFpoGBQIZQXIl3aq6przar5kWYGicM0ia4VW34GagBRUXSPSDq6GIcmCgFPLIYPCV1vrFoWnu4tvtd270HL7JCyhrkBhzDdpkfMerXym8us/ey0ut4YVf74U/VRa5LzsFU/Z1v/FvulZoCPrr0PIrSNVq7cNXMmri8l4vDYua/HW0yYnLFx79KXvz7y29dKiXTf/uef+kkNFkx72mQoKGkebkfFVEbGli/c9evuX7Dd+uvr65guvfnfC1OHFtckf/Xxhy9HbJ26VFtV3soIUclcZOhyKCgAdheJVgz6DAlOrgK7rLIdt6Hhe5HlXjrimaRwnmrVfAwEkyZIp4dVj04PV1w3P6XQihCBq5KWY10va1lCStPGS4WZGHp3h37BXIDP6ibzPnun4FnMRWYCOvH4vZvlLXdd77ExOaXNMRt5ney69uNYVF3rx22Mvbzz3+o+Zb/+SvXjvo4jY0nBloQDxKfJI5fsHC9/dnbto143Xt156Y9PZhWtcc5yid57beeJuWm51bXu/jNRZfsWheyGqANBRiF446DYoMFUKuG0YeDLXSBQlktuGEDIDR6S60ZiANFIXjXm3rglFgiCNUkB2pBbm8nZd16vP/Z4WOe9y9JMFn/+x/du/9H3/14EfYAkHBfo3/nVgo/+BDP7wVxOKzBWgo9n/p4AT5eL6zhO3SjfE31i08TiJirywLvWVTRcX7byxeO/DpYfLA2SGubxbZHzlewfycXxp2+XXN7qCbC+sSf58T8b+iw9vFDa09zk0TZ/9nwfoYUgoAHQUEpcJOgkKTJ8CmqZhGwYHTyzpSPgIIeR0OhVFEUVJkmSGce0wDkAyqqS7HBcQQpIkw8yiwK+uiUYFX/yxf6Ofx2XzuRlW5oICQEeB/+5M5552RrhR2PDzqXtRO84RHMKzhr4/88ZPV9/9/Z4xU2iS3RHmGjgtPVy+eN+jRbtuvrE17ZUNLuZ8fUPq2rhrJ2+X1XX0w4Sl6fzAh9+5gI7C75rCiECBCSkgSTJNe9CIgJBp5O10Og288QNIqqoSiArk9KqqEks6QZAEAZt3k8NhotHo6tVfjkuLnFf0P3/0G0kY/OGvtvV/IdGkucAGMEago9F/X6bzXRmpxQ1dhy/nL/v5IiGiF9efeG1rxtu/ZL93IH/2GyeENF9FxJa+u/v+mzuy3txynvjjvfn9sc3JtzIe1HT0UXBbmc5fhPA4F9BReFxHGAUoMDkKyLLCsq5CRsSnjgSRHA5+dEDieZGmeavf95gdIoDEsgIvYBM8kmJnzkca8/A5uAMSucvL//xw5TN+0ajmm//IWu4qgJMe9cSjlU/3fv9fwA/hrQDQ0cz+HdB1vb3PcfFe1dq4rJfWYe+1hWuPvro57e1fs5fEFIc0b4Ru55ceqfjn3odvbr/2xqYzBFPf33Z697n7DyrbrKbhM/vJgbPPcgWAjmb5BYLugQLTp4CJRhwnmGhkJtGNDkgEokaxYfA7DFL1VRAkhBBwkV+JrBubb51Ii5xHzMq8HvrLv/oTnon0wRM3PvrDzeVPXfvwyfSoJ64vByxlx+YAACAASURBVEDyLhzkpVuovwQ6sv6CTNs6K8j3ylp+PZP77uZT5Pn7pe/PvLnj+uL9eXPcTWG2MdXSuDJs7fDTZZJ99+La5NWx187mVLT1OiCgNG2/L6F4IqCjULxq0GdQYDIVMEq+4vQ2EjVyUDhMRKCI50WOE83w0eiANA7zbqfTqaoqyayDe9WYF/XW2oV3Pnna94G+c8Nf0iLnXYl+Mufjp+988gxZbq14Kj3qicefPeO7P2wJGwWAjsb8rZnEHQRJyS5u2hB/g/invfDtsde3XX53d+7Sw2WzjQqgP14KRMZXvX+wYNGum4u2nF+wOnH+qsRlu86nXi+x9VOT+AmBpsJGAaCjsLmUMBBQYDwKEPNuihKIQ50VhEw0oiiezEQi77KsYMZ5iB+3JMmBzDjSdd2vAQNCyO/28YwnfI/RkJIWOa/i6z/7PtkXfvHH9Kgnsi1oRADp6odPZnzwJJg3+CoWNluAjqbhN15W0P2K1s1Hb5PcuRc3nFy088b7hwohTORFIKHycunh8nd/v/f2j+kLjUq7K3enn8kp7xtip+GzBKcIFQWAjkLlSkE/QYEpUUAUZdptQGdNorOiEcfhqkdWcJIkOdjeaJqmKAovuKonBXs47C8M9aZFziv98k++T/a5nz59+YMnzKiRuXL9oz+kRc6zlsfxPRa2hLQCQEdT95cBqVp+jW3HibuvfJsyf1Xii+tPvLkj6/2DhaHCAIH084P4qg8SqgPZMyz3WXq4/J3f7ry97SKJJn19IDPjQY2DFabuQwUth4oCQEehcqWgn6DAlCggy4qZRMfzrmKvftCI4llWMCNIoohnCgVVp0hRFMJUkiQrimJGn6ZkVOHYKNvTkhY5787HT/k+zd/95Cm/dHQl+sm0yHnNa//T9xDYEh4KAB1N+u+6qmmljd2/n73/+nfH5q9KfOHbY29sv2qYzoWdB3d85dLYssjYsrkMSIT6IuLK3v4l+62t57GvxuqkdYezrhc0sELQXwJO+qcRGpwpBYCOZkp5OC8oMJMKkIw4XdclSaYonhQ1IpjEca65RhTFu6JGeAX7NFAUdvpmWUGSZLIS+BgQQoIg8bwoCBLHiUGRVeBnCeM9SezoSvQTvo/1I9HRpQ+egNiRr1zhtAXoaBJ/5WlOOpNdvngrrjT6wrrUN368Es4uC/GVETGlSw6URBwqjTxcEZahoXEMKiK25K1dtxZtPoujhWuTfzyWU9nSC3NiJ/G3LFSaAjoKlSsF/QQFJk0BXdd5HnswiKLECyL+lxddlgyGc7fDwfuiEQ4cGREknGVnYFJQNgya8aMoCnFiADoK9nKKQ31pkfPSIuf5ziPyS0c5Hz9N9vfrcRdOhDCXxwJ0FOzvkd/9GzsHfz5174W1yfNXJb66Oe2fex+G+ZwiNxotOVCy5GBJRCy4SninFy45VPT2rhuvfYfrzK7cnX69oEFWcEl0+JkjCgAdzZELDcMEBVwK6LrOcRKJAjkcvCTJJJ5jbsHziywURKJGNI1tG3BtonGhkam+qqqK8ROIi4N5FKw4nU6Tjqr+7W3M4JeObhiTjkZyAJ/LRBFOYwc6msgfBwWp2cVNK/dcMuoUpby5PWtJbMk4Ag4hdoiJRgdLMB0BII088yoyvvLd3bnvbLswf1Xi2z+cSLxa2O/gJvKRg2NDRQGgo1C5UtBPUGByFCDzhVgWe3aLosvFm+NEhBBGIAfOnXM4eJrB/04EjXRdVxTFKyeBeDOAQ904rqVJR5kfPNGx/i/WR3xfOrq94ulL0U9B7MiqUliuAx2N41fJ6XQO0vzRrOK3fjgxf1XiS9+deee3u5FHKkMMckZ+ph9tIBY0iogpjYjxBaSwm141PqGGH/X+gYJ3d2S+sCZ54eqkbSnZFc09Xre28X0O4ahZqwDQ0ay9NNAxUGCSFSCzjIgdAkEXM5uOonhZVlRVtUaQGEbgOGF8USNCQZIkj8PdbpKHHS7NEToq/+rPWcuezIweBkhedITR6MOnrn74ZOXXf4bYUVhCkTkooKNgf7/rOwa2HM1esDppweqk17Zeeu/A49FYYvgjcsjvORyNohKqlx4uX2IFpJhSMGkY5SpHxJW98/PN177DUP3p7+nXHtdDul2wv4Chsj/QUahcKegnKDAhBXBdI1Yk8SLd+HHlyBkziBwOnhdEgjRWQMLr40qok2UFcucmdMF8DiZ0VLfqP7q/+6+sZU9eippX+MUfuzbgIJJJR9krnr724ZMZ0X+4+uGTXRv+0rjmfwMdmSARlitARz6/KCNuaOqyb4i/QWzoFu26ERE3xybbYDQqc6XSHShZcqhk6eFyb0A6UBJxsDQSKwMRJO+ZSCY1RcZXmel27246kZZbLSN1xI8dvBGaCgAdheZ1g16DAsEoQNCIorAltyhKJCVAkmSGEWRZcUWQDAryTbEb31wjGbt2YwMG8gMeDG4lxv+/SUf2Tc92f/dfeZ89kxGFTRpyPnZl0F356Jm0yHnpUU88XPlM14b/sm96FugoLInIOiigo0B+o9p7HZuP3jac6I69/Ut2ZHxASXTLk0Z8PjYflKOO1X95NIDdEmpjq9nHhe3rkv3s/OXdwcdlndtP+nnLc6IJRrHiq3CY6CD2YMCLMd0oIqY08gh2q3O9ZWz84kZXYWn7gQu1Ezh1zU/3eg6n1Y3dQnL918dHHHX00ZplI406seG78xPp4YgnHbvPli69f7Bg8Q48aW3JttPXHterqhbIpxH2CQkFgI5C4jJBJ0GB8StgRSNBcKERaY5k2Ymix6TB4cD4pKoqKW00PjRyOp0kp05VVV3XEUJWUhr/SOb2kVY6Is/Hvd//V/lXf8r5+Kkr0U9kRj+Rs+Kp0i//1Ps95iKyAB2ZUoTrCtDR6H8Vugbpn47fIQ7db/18O4jJRaldBYNM1oOOg7dGXm533exFTL/98LmxnraPtt2jdV1Tyh82+T7xf/GYQ7pqq2r/5V5P3MUpeOg3EuoiYksj4soiYvGy5JAVkCoj4spMZPrk1oCd5voa274PBA4NVFhxrb+wqT/W0/PauGZFU+X8ew3RFpYYBh5J9dtz+4vtiB8c3O8fC2u2Vwr2fjort+UL30ZSu8oEpaWpd/fpsZT3PTahOiqxfud1f826d15/q3NPwC2/dyB/8fb0+asSP9x5/k5pi6bpo38m4d2QUADoKCQuE3QSFBinAqOgkdmipmlmmVeH4eitKDgvbtxoRFoWBEkUXaWNIMvOVHvcK750NOYTP9DRmBKF+g5ARyP9QvUNsb+eyV2wOmnh2pRFu24uNYIkwx7Q3Y/C/jemdpZKOttrTy/sSxtpKRqs4XSVoU9eHiNOsvzKYI+mc7buNYl+nuZX5rFIE7Myqpdn9NZzUnlJ+yp/u/nv5+ijSKiOMucaHSohkaKohGpc6cgdQcKkRNaNlRU3+vuGqOzLGKICPOOK60P9mjbQ0vWtq9u1BxsVRNt/swbKUm03m/sTb3akFg4+bOd7OEQzUlsPW9riyLrrhxijEmqPtuMv1/rq2j/3HWOKrVDQuZ6+bSl+9Byl29/c7DmWWRuV1HxtULX3MWXt7qWDqehwr7dzvYqOGEf8qSAaX7wv713D2u7T39Mf13SAZ8NIv5ihsh3oKFSuFPQTFAhagdHRiASOSKOiKDkonlSDxYZ1NHa0M18GVdfI2ktVVRFC1hNZ34X1oBQAOgp1kpmK/gMd+f4S2Wl+34WHC9ckLVxzdNHO62R2zShPzP7fSrEVifpgXfsK30dzc0tSyw27LnZ0rTS3+F+p+aVGUjX53nV3XCipcX9O65funTEdqcLlC/hZfEuJIOlaf4Pta/e7/rsX4LsWNFoah2cZRSVUk1JOwwCJTEOKK196uPzj2/09Q9TtSziaFCAgLb9m71WVh7db4u+3fY0BqWZfvYwo+8/J1VHHOh92O45dqo1K7SqX9cH2vuTs9h0X61eOiX/Jrbcdui6zJ/3GcFI6HvP6wKhX55OMzrSygWvWpZLuVJyawJ671HS533pxa+NbkOc6JrXcGNJ7qltHu/T+9I+Mr/rn3gdvb8GVZL86kFnW1O374YQtoaIA0FGoXCnoJygQnAKjoxFCiJQ5Io2SGkSapplEZFp7jxuNgusu7D2WAkBHU0EXod4m0JH190bT9Iz71a98m7JgTfKb27OWHg40+uGHQFJsBYL1AdpfGCFAOkppv8/omsA/KO+/WoaXrEaB07W+lq6NRvbaZ3kcUvm0M8YpTnSVirpK0MLfI7ifro60mz80wi7esWUkw9DMr1tyoCQippS0/PEd+yDLYDpyIZNFw6S6L4/50WH5lcFuVXl4q253rdjZ2LkhqWZ3nYuOPsmmHJrW09i5LrWzWNTby/yGify0GX2mtwHpXHuXyZDDBp7S8Ygbg46ikhoPPO49ca9j//X2U62KylLHs9p+vdb267XW7Rea0vs0C/r60pHWEXBXh3XMgM9/7s59a9Pp+asS1x+53jlAWz+isB4qCgAdhcqVgn6CAkEoYKIRMaPzivKTrDkSLLLOCNJ1HRvZuUseURQPaBSE6FO8K9BRqJPMVPQf6Mj8tWvptv9rd8b8VYmvbUmPiHM963s9uQbxMsWWz+tUR2/MaPOOugvosWNHX9ylaVUueNS++3qbsbTH14pIV8ofNpI5SF8+5pDKXXAFSWr3VXEl+c3LR2KeALebaHTQQz5mvCgitiK+fPDMpaqPYkujjeXDuNKPEspXHK354gHDyPzdq+XRsaUfxpV+fLR6xdEaY6n7rVJkafr8Fe80wmWXBztV5eHNmujzvY2K2lbWuqeW0FFtbJNC2brxFCZMm1rgdLTyLs1qavl9z7miT7VnlHdvIR4YgdCRR6ia3139MTGs4WLvVNER+YxFxle9t/vuG98ff3nd0dPZ5WDYYP6ehsoK0FGoXCnoJygQqAJWNMJ0xIvWI000oijvt5xOp1nyiKL4cU8W8oIx69lhfdwKAB1NBV2EeptAR9gDRkZHMgsWrE568dvj/9z7IAgE8jxAm8/N7hWDjgKZdyTZRs2sS2xK61VFhntQaNvi8merS+1QNYE6nOo61zcFmI7OmeYEKS3nOsSWqnYjS83dn1G66vtWfNXSWC/z7goTjQzDurLkJkGg6cLqvnsVvXfKeu+W9+ZW9j2uHyzulZGudbYPPqjpL2yiilpoc2lgNB3JRQ+84z/LLg3YDDqKSmw436Px7V37aiRE2X853Vk0SCWTmBjWM3A6qtlbJ2sastnosnayMPUUnoZkb+/enFwdNVE6qr/Qq1EdfW70tV3pVqW+wThCwre7Cxh93LEj68dv6eHyiF+ukuJI9baBcf/xhwOnXwGgo+nXHM4ICkyhAh40chcysgKSFxr5xRgyB2ncUSOOE1QVij9M/iUOaToayrwul8Qzh/4xARr5G5URy8YtHLuFba8N/fzciLv9+PyIb215x3FwwYjvup0AZ9UOQEdF9Z3vbzszf1Xim9uvBW294MsV5pYUW35gmXWyrXuUeUcrbw71i9z5jJZzNkURxYe5jctScVSKbeuJr+I67XydjakZQpqqdPXxlW10cStdYuNtQ2LXEH//niu4ZH3gDmQ9Mr4K29PFlHpy59zWCxExuNLRkgNlcVUM29u9I6F86eEKlyvDQfzWx3eGBF15fLvWp+RR7ZEWpHp5LRhyLcsY6CB0lFC9Jqf3ZGbdrwYdHc4fysmud3UYzxQKmI6MlEW+o9sy+Qpzl64plYVt/0500ZFAcSX1fUcy6kZ0xnNdTd/YUf35Hmy5kVHUl2YsDwdUxU5dcr3EZhuTQkdk7O/vf/T25tMLVifGXnosSJ5CF5N/k4AWJ08BoKPJ0xJaAgVmWgFd1zlOoiiBYUSOw7VfzTQ5nhcVxShtRPEkauSFRpqmEQcFhFAg5YmIVbfviJHx47sdtkxQgdCmo+tlulPVGg9SW11u42MzRupxqSKViTGB6u9spV1HPVL6uyMeu3URnXFK7qW1nnTmN7+A9Dc6r17tyhUurRzypZ0dv8ncIKpIoPf4PXasnm95kz7ur1nXiZ5znNnFjK9l3666t8xlOnKwwrZjOfNXJb703Zn3DxYEgg1B7GO4olmmpviL4RgP8UrnyHSU1JzZrzKdvZtSqqNS227aNdTXt/kuRWuo6G5dVFLNCjzvqDahFSGH/XwtdTnd31lMYAtsJfJIJV7iqyKPVGLycZt3k3lEkUcM/+5DZTGVzGB7509HcMkjT72jgyXLb/azSDToyKszI9NRWn+7qjy6XbfclYNX+7tBR7tP139+vOVMu1Bb0vp5Skce50NHqS0XbUJFQcunw4e2LK2/TVUrHrjJKgHjUB6Hp2P9QnzwXLGjjl2P6V5Z7bENpoxmG+iHji70TG1mndcnDcv++82Fq5OW/nSmoM42wXsBHD4NCgAdTYPIcApQYDoUsKARrvGqaZqiIJrhTUCiacExAhqpqioIEsMIPC96UdNIXVcUxat60kh7wvZJUSC06ehqka4NSmf/PiLYuB/3PTscv6pqilr1q2MLwZK/M+UDuv0yvc1CKTt+FKpOsqc2c9nnpfpqlaE0RztqL5KrbgppUZ6mPI0vYOtZXUdqyXd+6Gj7TxKnam1J1HbLKTzHjrTxOcfpGC55gX3rR0KPoNoK5Po819KQLze41+vLVUnXh26xv48LvUboxtykI13Xs/LrX9twbMGa5Ld+uU1M2LyeRyf60nAR4Poc1wwfBeKm4POvvZ7XUXePn4I8xuP+lkLW1tIdXyVQdupERu2nV3pv5rWltiOVGdpnWlEnNmUO6FJn99p7VENV64SmG7lLvi6NKzc1iYi1mHe75yBFxFXEVLOD7Z1bY0oiYkuXHq5wlTw6WLL8Rj+vyeOgo8LigZJutqSFKrKJnO7UJbGqhSokS7P9WKYtj9MZO1vciuNjxW1s85BkGxBwlMzOZt2ot8Z/vi/mFVXIvOjBs+iL/W2q3l/b5vKRs2TWfZXVX8fruqrUV3T4NUyPSnDTUUpjcrPYXNX+ZeLY845s5c2+lakm+KHC1WN/PD9/VeLOE3cpdljG+6TcI6CRSVQA6GgSxYSmQIEZU8BEI5rG5VwJ4ei67gVIJMvOi38IGjmMTDwpgLg/iRqpqipJMiTRTdslD206yiwImo5SL6lqv3T2C/byN0MYkJ5nSnv1wQxMR7t+kVqvc/EL7Dt+kyVVrTvKnltHxywydhuJYYzt274UB1RdLOL8xnC2b5IYpBZ/6w+r3M0e2cHfPyVYl7xcJDt1toiPXyZ0KWqJefjf2WpKb9jtwrCt/xL6FDX/y9EaHwGBRjlkDtKRKCNS4PXVzRcjYksm+MA64uGGA7WjrWefy0qBGCoM//dG12NaY9q6vhoe+iBtfprZV9LauyO1Oiq1/QGjq8zQgaPVyzL6W5HWWmp58j7ZXaVorSVNy050lTno5GBq7AzrvBuNsBN3XBmJHRH/7mHhIxcg1R5u4B2dXVtjcFlYFyDF4ky8f92j3Jl1HjgxTjRG7OjhzRrSny8fsoLu1FhHzAlLCykdjzmtw0QOjDc+oSQiY1JLll3r6WEfPvTEjr5+xIoaNn5wDdlCR1EJ1Ssyeso5XdfVpmKPsNEn2693ibY+rqqDqaNUXZZqO7h2h9Q9xN2+3TymZ11nRcuk05HrcuzJefnblHc2nShtBMvvabt/Bn0ioKOgJYMDQIHZpoAVjbyCP7qu43lEbhs6YmFn7b8VjQKcayRJMsPg8BQJH0E5I6ueU7c+3XS0/xs2K1HIPSlkH2RT3h/lAT2gty4/HpGOtr48tMvNHlY8SE7DdHTmFbqoCZX/4tj6PF3c7aKjc9maJqrlOxw7d8q8gnKXBdSHTc/a98QrSNPqf/MTONr0rH37DxI9Fh1tfY+5nsClb2aOr+NqBnTHHe7YN3TqN3Tqv+lDy3jb6HQko/sBd9Uqxcjrc42OOvvpD3ddWLA66e1fss3wyDBI8Acq49khufVogW0bdkqo3VcwkHLZnNxS8+O9nrg0UrmobnNmk59apbgPtb/ctW0iBmsJ1VvLBYm2706pT2hREOuIcdkzYHj4+gHDIeFqRnVUQt2RZqW3rv2zcQzBRCPDm9sVCzpUsvRwBX4iP2LMLDrorvqKAak8sU3l+3p/jMV0tORgydLD5YbNd9WnucwodISowV8SsMEDriIVX0WEXWZk1rnRpS6xFelOp8bx1V3M9exGVzTMcLnwBGT8JtoZA1+RZe8VmBOXe8tau9zzjmoPtyDV4mPh68rwaWZ/i4zjeFYH8OikaiMk5Y4dmdVpExsv9etc39CV0v5MY8kfVJUh+prrpb2Ox/WOJhTHG/UiLoktWbL9wsLVSWdzKry+rJy6Owi0HJQCQEdByQU7gwKzUQFFUWlGpGnsQefFKqqqcRyu9DoMkNwudsGika7rRsKewguiIEiSJPO8OG5ru9ko5Szu0/TR0bZotrhOw0847h9d0WwZ7P4xU8JeZPPv8mci7D8+77UMZebrml06/6LXdvuPL9J5zZr9IZ/8sjfhJJ5HqF86/bz9YKIiC+j+l0wRoaMFTMWAawrT9h8lLgg6Gkq/r2msnPmK51y/b+Af7qV+NPAsEDrygMrztKs/Jtq9zXcAHbk/M1Pw/4PKtlfWp7zw7bH3DjweD/CM+sA6coO1Jzo1pyoX5zYaj9o4hKKrSuVjj+n2sozuyw+bPxml/ePNO9Prvs52DKpKcW6DJ4ssqflSn8rauklK2PLMAZsi59+17DBKm+ZbFjTCgaOYUpcfAy7nWoqDSIZJA/ZPM7PsDpbF1XLIMfjTYSPvDtMR5qiohOrR6UhxDOw6UhYRW7Y0rgyXlzUAaRgdHe8sEVDXkIIo+2+XeusE1FJtW5dUHeWqd+SO7YxIR/Wp7UpbWcvypJYbfewZl99d+0NWZ9s6PSA6PHZEer7pEVVU1OIPaXzoKKnp6qBOeQKD7Zc6Val3YD+JExohwSmlIwNZK6N3X5+/KnHL0du8KE/Brws0OSEFgI4mJB8cDArMBgU0TZckRRQlLzRCCHE8NmmgaYFlBS+TBoSQILjAKZCoEQlD8byoqipCSJJkTdNEUQrEwmE2qBTqfZguOnqdKevS8bSBTrnoOH/jCJ//EAmq7tT0rlM0oQgPIZhgQFYWcE2yLrbJNblS9bBF7ujTdVFtve+1Xaq+rwzhr3ylzA89xELajz/joqMt7/Jtola/mynsxLGj3b/IPfdYkhq3fYvEBk5HzzPFPbpGoaZHch1Z8pRBXtcVte4AtS2w2JFn7L509CbfrmgNScyZH4xli9DK6rbzLHl59qA0pEDsaHy/hqqqHblcMH9V4is/nI+Is9QnNQlhslZS27Nah04Mm+Jfe6xD8/gBJBgJZoxjn9uPOyqx4VgH0jXUWNbmN8WOPLsvu9Bdzml9DTZ3PASjyKYCjhW582lmBlpdXJOiyuK9nIDd6qxodAjjkGlAhzHJYBhS+5V0w71DWVw1w9gdJbX9D6r68mr7S9vosnamrJ0p71eQrg304nXrUtpG1ztktrfn10TMUSQ8FRFbFhVfZaWj1XksY7efrjUcvZOrNzxmWV3rqmr7JLW7UtGbCt3gNwIdLc8caLXb9+KaszU/V4mt5Ti9bcXNIbuGynI9tY98Y0dkdCP860NHiY3J5fbTV83JTsOrwSbW/3it5atE86JM4coH+3NfXJv84a7z7b2O8f1qwFFTpADQ0RQJC82CAtOqgG78WE9pmnfTtCCKsu8cJAxLRkwpEDRyOp26rsuyIsvY+E6WMYyR00FigFX2qVufJjo6ehGpuq52SmffNHFlKPUCUnSnzshXF5kb/a38g20QXMlvHoowwOlSnubflcGYnOPltUCOPXLaRUebnnOcj+eSX6YLMB2xN6+J5153nX37ZokJmI62rhT6kNa415JW9zbfLuvagHzbmNqEY0eqNlghl6SwR3xiWV4j2uRLR69jOuq4wuckGUuK1C3ofTnulxcVBuhoPL8fQ4zw1YEr2LN7R9bUZtMZiPXVbUefJBXltbh9umtTOlSVsv/syssy6MjzsvrrHMqu6YLdcSLTzL7zfp6OPtf50KEOtndvMZO7EqrX33V080L2LfMZHR8VfdqWz+q6iprren497Z5mMwL7fZBQtdSNQxExpZFHKl1TjEgEKbYM+3cfLMFBHksLBiCVxdew9vbObYbB9wcJrhy5UWJHkUeqDtXyTH/v/gQXnZJg1NLD5R46Sm65MSA9zK7HnnW0/dfk6qjk1ltDOurr+/Z0bwO2oSMZidiDzo/Bd2Lj6Xb+zk0XBS27NNDOUPEn62KbFFWg4y3piBOlI4sahjLD6cj7Xe+raRVz4usRhwre2Xzq1fUp98paxvPrAcdMjQJAR1OjK7QKCsyoAiYaWc27fQHJ4eADRCPraFRVFUWJ47BFuHU7rE+pAtNCR4bzgVPTmw86hsHA61wji8NHTfssaOEVOHrWvukfbB07aXQUdwrT0dmF7mS8BTSOHV2i97w+9PO/uPpG5d6/h7ZvkmgfOtrxGd/YKN9a6c1vcScQYuUrr3m2YxsGzdNhkllXsom+nquKjNp4kU0YhZF86QjHjkZ1ZYB5R0H/ilS39r2z6eTCtUf/uWeSyryO/exbt69WQrraUt5uTGKpTW4fkY6iT9sKWJ3vG/jd+uw+/BSfXe4poeTmatu32L/bWBLrfy9mOvocw4NUrnc/yxpok3Wnrkssd+OWx5kg6mRbRpvQQwkVZbhQ7AcJVTiDzpg1tCQGu1MsjSvHdDQcjZYYs4+Izbf5KB8RW7HnfufRC5VRh0qsaDQSHeFIUUzZ1pyulKsNy2JKI2IN1wcctqqI9MSOatc8oJvqOr5KqNldKyPa/rsx7erft/ou5TSsyBzsUuV7WW7eS7H50tGyjN7sohZPgmJiw+lO1Ns8VCvpA3Xtnu1ug+/B+naXhd1wwc1huleGr6nbkQAAIABJREFUx44S6zZmNn8zLDTkRUd1Pz/s2X/afbHGaHwSdsOTvnZlzF+VePhyvqpqQf+SwAFToADQ0RSICk2CAjOqgF80Ij0ysuNkyj0NaRxoZLbjG62a0UGH/8mng462fir0IqeuKNmLPQiBMek5x51a3enUHdeY0ZLr/sHWMh7YsPLVOGJHhI7unJJbC+Xqe1Jjq6Y5daENr5OlMoNL2ibRSOstkGvvG0uh0t+JuupRfxvqLRJOukNMxhCou7W6Wi/EWGZPxRxHqqoWrXFHokxXhueGjh9XWKSjQeXRJreluBcNuulo+/tsZZPy+NuhLWPOO1LQg+XDhfVqM+iX4e3KkF3ctHB10kvfnVoSU+x+0p2Eh9GxmzrekcfqTl3Jw0VRa5PaRqCjpKZTNiQMDu7H5g1+l7qdjx1N/fSVW55MuU8v2q40UPcK2teYsORz7OrsgXvFRtlTy1vri3kyGVBX+fRzRtTogOGpYDgxYEtuo7QRTqhzR40MNCon5YzwHKQjlWY/jXKx3miE6eg+I+rK42x3kCehGk9bMgrLYicGoz/GKXChJPLSFTu6a8tu7v8ZJxzW7K2TETO0121KEZVQvTKX5hX2lCkUNmkYwbPOMuRPrtt7VV1HwhXsWmFZDI8He0NHUHR06GpnRi1d1jqU+bDrTLHLj8HXleFaPc/qTqF/YPfIxDusM9aOjXc9Mr4qeu/t+asS1x3OEmUU/vezWT9CoKNZf4mgg6BAkApomsYwgjVqZDagaZokKYEn1JFsOogRmQLO4Mp00NGOnTKvObVB6ZxPYaILdzGcyEWcX385FwhNAR2dfp7gxNDVAk136tRt5hcLQuDgjwU5cPDHJ5RE+rb1X0KvqLYVSlc9yDR0rUjX+rDxA9nHy5XhyEGZRrrOK3dWeJDmt/VCSyvqLJMb8pRBQZc6lIZy1N+B+srEsx+P5VmnoEf/8jTlEs0ynOC3hDEdZT6qnb8q8dXNaeZT+KQ/ko7S4IYCTnLqhsdabaJfOjpat69aHOofPDCCB/fKjM4rtUPZ+e1rkmu/T3Nbt51o2XerZZ1Z7CihbmNag8U5unbL1Zavh4U1PEjwWQ41pGGvFB3xGefKzflFOHxEIkgYk0r8ohHZwQuQoiwJdaYUhI7yLXRELAQij7it6rAJXiUOdwz3rCss7jxATBQSag40KohzHPDQUc2+elnu6/veHFqKrUAIgI4MJzpNYE5ecAedCH6k2opEnWmxDQso+SWTxLqN17tz+lRdUwe6HRdvNhqH1G6/35f2qOvw7fY92IlhuCsD8WbIatsyjeEjov9HsXkvrE3+5tAVIYDSGjN4M5oLpwY6mgtXGcY45xQgfgleM4KMCkUKRQmBJ9QZ7cjgSjcbPkDTQUe74xXV6dRs4tG/eT/EJ6fjjA+1lh/NuW7q6GghW0Ph4BVTq7TkCeci3DyzFbsyPPzY/XJkOjqWqXIFXGKCXLPHnRz4D7ZqSGfvsjvcfOJFR5uetSefRJKmt8a5DzH23PrfxuncsSOzOu2WCL4LabbrQu5xYzkl9Qh6f6775WWFQVDvKMBfpdPZ5fNXJb629ZL5CG4+vk/TyonOIlbKwZlgfulo6GQJ297Ru3Pk8MInJ+s/N2Ag+nRPRUevq1DpMVveAHMm3XzWr09sFqqLW003to2PmY7uwdhzHiiyjLd2482eBwOq2N+L5wuRkFGM24ZhLDQaAZC8T7TyASPqyIuOSB+wM/ghPIsJ5+m50Sgqodoz78jFJ7WHmxXRPvj7sYb1hJdSO/JYtS6fmP4ZZ0yxFQp6e1mThQy9e7LsQlcxow3Z7Pf7ERL4ew9bPG7dqV2FlJCf59ehztXOqpt9Dzv4PknXNbW7Y/DE1fqRz+WVWefdE8slmPK3Pop7/NLa5K8OZHJgZBfgH4up2Q3oaGp0hVZBgVmmwDjMu0URe3aTZDyo+jrj13M66OjQMaQ6nWqrkEAAwI0Nm561HzljvNUoxPm85Yl4TMG8IxLY+flnmWNQ/wBO20uIVzgHKtjm2PqsfccOXO/o/kduOvI3DQl3bxFX34/uf2bf+plgK+L2Gsl127+XKFWr/cVDPr50tOm/qaxsKeczV/uekeLqtN6O3luXCT1Iq4tjjq+l8bKBb2b19tOulyd3S3ZZzf/aX1MWnYedYuztYRM70nW938GVNHRdelizLTVn/qrEN368Yn0En84nVHKuFSk1xMI7sQ15uTJoilxb0bHWjIQk1G7P6z952ZONZultzY4KUfDU4amNa1akocHdbsu75VftPSqqL2xxJYklNp7pQohn069YLNrMqMgJWwEl5t2qXGqgkWuu0UFCSiRqZMASnmvkSqjDUES87EiI6VCJNb/O0k/Xc//KB6yko8IcP2OJjK9aGoebHX5darcXcoyGKgo79t1sJ0vCg+4jtzqvdCoSQ59Iq91YwDFDg796ImbY4LtIJKE5/7zxSXp3CaP2t3ZvSamOOtZyqlkUdJ2j2IclXXsv1i1LqF42cl4iGdSytN56Setr70/I8KekKSle8U9HHuP1YTv777CvkuPe8lFc/svrjn6x7xIruKyPZvzuMwc7AHQ0By86DDk0FCDFhYz6QqqsIEVRyYKwp5ilFk0AowkWjZxOp6qqPC+yrCBJMlmCPWkA/YJdglBg+uhIaxOSfGJH8WcNOmoYNm/H+1H+H2wDr0s2pT5P9lo6B3RdUjsee2+vf6w4ZN1xzY9XOJl3hOnoOUdWkdaXwRUbjt7bnnNcL9Y0CeWvtu/ci6sSZ787Bh0lnUG9lxmcE/g3Or8JPTDS205dV1VavmSpfeSHjkbhEx862hLBPszgUszMPcOOr2G3i762vEYdWzm0ZZQGx/NWiNIRL8r1HQO3ipqOZhVvPpr94a6LL607On9VIlleWJe6aOf14Y/gU/5IavjFNe++4Xq+Nx/0993suNKtaix92vXo33G5S1U9L/H+ieUcozk1nr3gA0ifXO5vlvWhxg4zB+yrPFbStYYCdyAlqeWGXdcVPv2ia4zLrwx2q7rKDO2z4gR+QG84Us81lDX92/Bd8NgweKJGhkmDDxoRA24zE8/LhsHrIX7lI1bWlILsaqM+rGtmkbmPV9TI2F63s5B1KHJFVX9miZ8lvXCwjhGyrg7HrdTOEknvrvIf/Fl9a6CRk+vK21d5+LNm/a2+gn5FxtUGdEmQuwb42g66sMlxv85+p3rwVhVeblcPXrzpNg1PqF53uWW1p4VRPkI+dJRYv6+S77b1/uh9CUZpZDLfWhaX/8q3KSt3p9McAFIQd8lJ3BXoaBLFhKZAgUlQgECRUb9I4TiJ443FZ0UUFVlBCD+xjvETLBqRuUa4aVUlJV8lSeY4EehoDKGn+O3poKM9CUZmXZd4zIeOUjKMzLoqfs8oD/FGvaPBDNpMNjPxaXRXBjaH2e7TrElH2z4Xum3SuUXYs454f2/7SuxXdFuSY0+8ggQ5c4GHjnwNvrdEcPXV4qkXXfvEn0aOe+xvC5mKAZ3LZX+2nHeCdGQO1rUynI6837WcdwJvzX46QqrW0Uc9qmo/m1Px25ncz/deXrTxhAlCC9Ykv/Td6de2pC/aef2d3++9dyDfLEtqPpFP30pqy7lGprDefqPcz1O+30d/r43pua1fWOIMODeM1XUdFd71hC9W3HTYNb2/ts3tKFCzv0HRNPFmpjvdLqkps1/TEXdm2Iym+t3FQ4/ym9bE4HqvQaFRVEK1y93ugB8bBi95Vz5iREXKv12J5y8Zi9cO/l7WrD1nnT1l4YTjbTd6hcf33ChoipPaVSbrfbVt3sVbU5sTq9mOXsf5a8OMzt0nrfkmszOtmqrqE+2SZkzC8vzZ1VW5OK/Fqr/7KHd/kptONAldA3yNjSlpo61LdZ/Y3c96trRz7ZTUS4k1Lt9Cdwtm/6d+5cO4glfXp3zyW5qDFTyDhLXpUgDoaLqUhvOAAmMpgO+iSOV4iedljpdEUZEkRZaRrCDXv+4VScJv8bxMFllG3jcK97kw6igKTQcx10hRFJ4XeQEbdiuKQirMIoSAjtyizsz/00FHO36VRc2p03LaP7wTwIgrA5/rmaXj55l+IXPvMnfsbe9jNz1rH5GO/kZlxHMp7uCPtU0XHf3DceW+UrJpaNPzdHG3br9iRJmeGzqTzJ9/1550AaFu8bhpq7DFT/mjI4fFnC88XdqymGum1KprioDUkvWe7Zvc1WC9Nlq7NGx9eOxoy4tU8sfD3e286GghfTWG2W1xzBvW2jhhaVbRka7rdpova+rOfFQbe+nx2sPXl/x4dsHqJJOFXlh/4pVNF9746erbv+Ys3vcImwRYpq94P8tO/QPoVJ9xfR49wMvNdZ0bLBGM6NNd+X30aYsJ22c3++8XD6sku+6+o6Kyw6u2rGlJZ0UjI2uuzAU/h0pw+dfDbsOGQ9jmOyg0ikqo/jKP4QTu0S18IDbyji0bvyvG8daMNiYnxweNEqqjUruKKOF+rsfKLyqh+vOr3bfr7Bk5zZ8Fduk/PdW0PavjSG73mcK+K+WDNx+3jX3g0dpPLddiqj8AE2w/Oq7gtQ2py3++AIA0/TddoKPp1xzOCAr4UQAh7CbHMKIgyBiKFKSqmqpqfplEUVTXbjLieVkQZIYRR8q40zSNZcXAzbtJ8AohxHGiIEgCpD77uVwzsGk66GjbV+Kg6nQiz0we1xP8f1P3G7EpQs8pauu4nuMvP9Y1ux8rvFEIgdBR2nax6jiNjROeZ0p6vSzFhy490qRi7ld3l7ZvwSYNucuGMY/vKY5nqtgmuF44MnwO1fYtEoPUso1jHO5qkNDRZSZlF1+UK9dkCVd/5+4SPwZ/rgylNZru1LrO0dZolW/fgtwyg3QkSEpj52BOSXPqjZJtqTnLf0175dsUE4QWrkt9eePZ17ddfmvXrX/uub/kUFFkvMdOeoJPjXPzcOIaNwyNDpZEHCq1ohEuCGtMQ1oyLjQyEMUWf7HyA7f3d0RsmVcx2cDFX3WrOyljeEKdBXuWjzVxKPAThfGeyw4Xvv5d6r8PXUFQB2l677pAR9OrN5wNFPCngKKoHOcOFhkBIp6XSdDG3+5OElYi2XckrCQIMstKRhDJTy05v4jlt2XrRk3TEEKyrIzvcGtTsD5xBaaDjjYtMKzhdN2WTFlnyGz9SOiSdV1VC8ZrKpCZP046uruTISYKm55nygd0+qal4JJRu7Yz1dPV7dskLgA6SjqOnejYAu7Q8ATCHdslXtWqfxqbjra8SJ3YK9oYXePVtuv86aXGIQvoyyl81q/s2Q2GE8NwVwaXVcMqavdwJAsSh7z6Nj10pGpa1yD9uKbjwr3K3ece/M/+zLc3nTRBaMGa5Bc3nHp1S/qbO7Le+f2ukR3nKowTxo+t0zS0+CovEwVXyVd3pSNzNhFx654gGhHzbkJEZIoRrvfqrms0TUO2EBScEfNqYv78VYkH0h5N/CYCLQSuANBR4FrBnqDA5CtgTPJBDCNKkqIoKkEdsjLKnCLCRTyPo0yktDZCqiQpgqCIomtLUH3V8ZPv2FOYgmoTdp5cBaaFjp4dOntb1Zy6NiBfiXQ/iP+dulVsFDuq4UczrHMHcPw97g9lFuja0HhiR2Yxok1/Z6vset9Fetdixx4DMHZskihWufm+u5/P2rf/NDYdHdojO0S16ZLYSetsrXj1c49n3Y7fpME6KWuUkkTPOU4dlRpqVUHRNVZtSOdSFnnO7j1wr8y60fQZuZExjpp0OtJ13cEKlS29Vx/XHbmcvz7+xtLt5xausWTHfXvcyI678vYv2Yv3PoqILQnv7LgZfED/IKFqaQwODZlzsXBh1tgyjECHSlwg5C525NpuONSRPgc+18hrjEsPlxtFk0qxQ53h3+21A7ycZgW+PHJv/qrE6wUNk3tPgdZGUQDoaBRx4C1QYGoVIGjEsqKsIPf0Hte8IyN25N+YTlU1QcAzjjBK4RlHrmCRqmqKooqiIggyQabAe6/ggJUS+P6w5/QrMD10ZMceBoPYF0pl1PZHUsUd2dara7quMco9y+wdbxIY4yF+6EqhrjukCz5FZkdsZwGdXaZpQ3L2RubUBmP5jr2ylz2zQ2ge1B0PuLh/ULcrtL402mrnQAy+H7jLH/k2fni/PMSqtQep7c/ad63kKts0DWmDJdK93UzsK/ZN/20fM28wLl4RRLX+FHvEbfPgexbXlhCgI0lGzV327OKmE7dKtx+/8/Fv6a9uSDWDQgvXprz8/dnXtl5atOvmu7tz3z9U6BXHmOZnxDl1OoJGLgSKKTEBCc8FwpOLcG1W7NbttYwroc6Xb3Hg6EiFP4e6GfAnmFPX3e9gI+OrVu6/9tK6o/UdA9N/65mbZwQ6mpvXHUY98wrouk4S6mRlmOGBLCNRxG51piUd4R/d/UNeEndvnpetIyG+DkEBktENbL0gipIJWtY2YX2WKDBNdLTpWfuOT7nSalV2O0Lpms7USdf/xxNjGZEHRmSkoWvFuk5JFwOno4V0drEmd8v5x4V7vssx/na6MlQnpAx3j9ixSxYQeuyX4p5znDmn0H3Kg+8s3gnPO86kSl2DOHdUV3WuF3VXKY0PpcqbYnGmWJAuPr6Il/wL/GnTN+K/HYmfWVoYccj2TT50tOV1Jq9GbYrHbBa8hn4PmUjsSNf1q3l1b35/jODQi+tPvro5DWfH/Xbnvf2Plx4u8/ugBhunQQEPGpFJRAdKllgAicAMTrHzCiIdcsXxTHAa3bwb59HFVxHrhXFPLpoGNeAURsZjReT28+9vOz3EgIXddNyTgY6mQ2U4Byjgq4AsI4JAXrN6EMJ1jczQEM/LiuIpcORGJN1EJmvLmvFjBJdwll0gESRRlDhOlCQ8zUkZzmnWlmF9xhWYPjoiD+4736WOfcec+Y6OXzwRLiLP9ENZpbrOyOnDYWYMQnjesf8dv0hg/3mN0NEopVty6khT2HMPqUWrvY/a8RGbX4o6bvPH3vR+Cx/4N0fyTj4/R7a1qYLkVUtMR93ydUv2nW+ft33IVdYZWJUn1z6wLA9lWxvqLPZsqS9DgzZ1sE15sG7ikpKBTISOyEd6iBFWx17D1Vd/OPPegXx4Ep1xBTxodMjIoDvkDhBZAIk8LkfElCyNw1lwpOQroabA0Yg0YuTO4TDRjA8cOjC6Ah8llIBDw7TdiIGOpk1qOBEo4FFAUVSGwQl1XmhE9lBVjeMlByU4KIFlsRmdUZ4VW9h5mnA6TVKyHiWKOBCEEE6xkyRlJKdvp3G4qqoIIUGQeF4URYnnJa9TWE8H6zOrwHTTkS8GTGDL0M0KXRuUzgceOxo5uvLzv/naAvHCe344Z+dv8mCdeMmcMYUbGUo5KBZf4i98FBiQPGf/PYo+tpG9tI+7nSI8OC9cXz32gT/+w241sZiAUH4GNWprE6cj8qkubuiK3nFu/qrEt7ZfWXoYPBVmLH/MikYRsbiuUURcGfHyxghkAaRIbNhQYQR/yiNiXN7oLlIKoK4ReRD3sqQDRhqdT2b8XeLQcPhy/szejObC2YGO5sJVhjHOLgUQ0nDUyDJlyNo/knHnoHiHgx9y8ByPS2UjpJEiSL70QhjJ6XRqGmYqSUJkXVaw2beCq3v6/5EkWRQl1fghtV8lSZakYal6/o+ErTOhQGjT0fHfuOTXg33097f/c44ze9kjI8WgApg4NCps+DvjyJw2C5qaLDpyOp0yUlOvl7y4NvmVDcfe3Z3rOxdlxh8NZ6YDx5qP3G37crKN1KJP2W610zmP29Yke0jMg0YHSwgakSGPBEi+ghCOGjOhzjxw6WGP70LkkcqlSY1pNf0x5911aYMfdfTJ1pjrjd41Xi3trLrVc+6G30qvHh3M7g1bSe28Y3Ok325aaWlt2A4jbq870SKUVXbtOOnnFF/ctle19u074+etwBqf7gPXJd1buDqpucs+E3ehOXROoKM5dLFhqLNBAV3XieOcryUdiSMR0wUHxVO0QNGCLCOSaDfkwFt8jyJRIDI0k5RIrEkUFZoWfYHKHTjCqXQ8jysaiSJmMPiZzQqENB2FHHWESocnkY7Ih9/WT60xEu3e3HpxSUzx7HxAnJZe1Xxz2XaxhrEJmq4phfcaopOaTtU5zmc1fn6s7jOv5XhjXDVbXNDy6YgP6H6eoVdeHWhTdLavf9dR17tLD1e4bBgOlpjhIDLYAAEpIrY0cDQyMusql8TgGrLY6cFwqFufx7CSkHt3WJ3WwAWPPt/Xoqq9PXRxq7+lje2WdR1JubfrAm/TtWdqV4Wia7KYfbM+yGNrT3Rquizm3PJHZYkNxzqQwtInLvq5RkGeaDpa+DCxcvHWU/8+dMVv4slsvoWFVt+AjkLrekFvQ14BhFRsUmfYzakqnidkHZKmabJR70iWcThHkpEkKTwvEzQicSHr/qOvI4SLxgrCiAWLSOFXnFkniIoCnnWjyznD7wIdhQqxTGc/J52OyFcnt4qa3v7hxAtrkt/adWNOVXH97FzLwQd9txrZNkZFukbZ2ZJG+42S3hO3mj5JarzUryOGL2qhCr2WVq5X0TWRPev7hJ3YsP7cSKGYml+qJaRwZ07jp2qXQUJM6ZLDNScq+i5dqljqzpcjz+gBAVJ8VbAP9JFHKozJS9g3HGfWHW27S+u6zKQcH9ez/uneBlVvLWmM9guKSS037Lrc27dhHKVgU7vKZJ1r6wwKQQ01alM6VJWy/2wJ01lV+uSmw67pbaVN/vvsdyAzunHdscL5qxJzSppn+J4U1qcHOgrrywuDm2UK4OQ3ThIEWVaQUb9VFASZhIOMikOaV7odQtieAaMRJUgShpyRvi4ifgxewyWO4YIgjzL7iByiadpILXu1CS9nSgGgo+mkjlA511TQEfmEM7y059yD+asSX994avG+POvTZLiuL0uznSvoTrnTsTuzaW3mQIeqPLxpAZvEhou9Gu/36Tyl4xGntZc1L/N9aE7trhL+P3vvARXHleZ9z5kzx96ZtT3v7M7szuy3szvzTg6ed2xFbMtWsiVbtmTZCiCEsFDOQkJZCEWshBIgUpODEDlHASKJDE3oQOcc6Zy7ukvfqarOARpEVuvco1NddeveW7e6q+6P53n+j3YQJyxHC1yUIdkwW1LZxy/t5RV1svJaGQXtrDqqckSsEvNFpR4AEqK7PaE7gr3Txr1lNlvZtICNwOlUAsF1FyyBvVjLuJo6KjWlc3Fj0ZGGwR6/dxzGH6YjBXUidJREH42O/JPpdVx5XpH1unYXc1uGuZddTI61js2MTfdOSOD7funmy1lqrfdvmlP1Qp4OOtLpjEKpVq4CVBpvmYEZUKgAaP6VM9C19447zIBcqRsRqyQyjUyhFYwo+UKFYEQplmoUKr1CpZfKtTKF1nKKSKplcOVCoUIqU2u1UF4jtVqnVGoVSq2tih0UMKAHlCqtVKp2lnlARMPVam800VQ9Qye9Xa5USxGqh7mqQZaily5vp8iaCZJ6nLi0k5a471N88N88X7gTT/69YNtvmWf+4fkp3ppzawamjo6QLzaGyg+6nQ+pNVwr8Y15jTS+AwsEdAc6ShjO5U6AjtiDelBE4URU0G67LOXUGwWEG4XD1/Lx1/KgcrOUHF5MvJqLu5I1uGN0F7uoXt9oRx88T1ftSZQavrqj3wWzVQyJng+62o9TiAzgCIV1CuWeB1K5WAPIIbCjahmRzuUZp0MGTpiOBvSgjMzc7YSgO5NtINbpqH8CLpFmS0f4m50SNF2OpsvcFAVNBf29cYTOuTRbAelQCnrVycSEss5JfwF5G0RmYDroqLiZs/pEi7d4Z8A7A6uONa48+nzV8SZkY+WRBtPH4OZVwc0rjzWuCm62zNLKY40rDtd3DPJhNAIVCkjFTgxLNchsApAAAEogK5aokKyyyA/bYIBk6wwGyCKk1UL5Yb2mobny0E9u4bhc3xzJwD0N+JuXjuYWvUz1aKeajpAIxqf1A2tOJ685nbrxTsNrotbgko5yRqUjRr9L2xG7XwfysDTXQgXxQ362SV0je49Wchs6iPtj+yE/OiTT6+iA9AhS/fYfv0Pd/lqJUK0orKFFVHlY6CicRg8apUJpVrF7GknlYABQyBAWdPFdlO4RjHIsOkqmVVDFGaXDQclYu5LBGQJAEYGx337/gTIBWaFpayE7eNwFJGJ3mmrik2gAIBXdTsXfaJcRGfxbTwghmaZL2F0t5qs1Xd30kxNw9nNBYu65cbIrh6AaVp9MZAqkc+XVNrfGOR109GJwZPWJlscFpJxnDG+Z/hlIKCavPtFy98nw9Hft7dF2Bp7W0jMqKJmVlOwaelYVNaOcnFZKyqyAPuY8Y2SUkzMrKZb62TX060mDK480EBkyo9GERhIppGInlkBydgqlBokQ0Gj0Etj1DnHSQygITl5koiOdDrDIgs+tx9PrOVqpGtiVgnMApO0JGPQwq2Dbb710NNW8MbfanwY6Qn6GPLHiAqpmRTDqq0u5W6K6HL6f8++jLR0FV9DDMzD+CcN5o9IRc8AlHbF6tSAPQ92ZgAnMYTXzNQy+YpBuUizoJIlbsPzGAd7zfqi8IIi5Sq1ELGutGfKP8RSQto8fjQJz2e0inV46EuG5bSSV3iTWojupB0Zf5adysGN51mmZnNE865JoDTJX8V1UldgIqsQKh7ivbpZWDYJiFu9Gih2ZHKwQ9HIUvVCEmJyuBkGtZsgcLdbQRtmPXAWKkM4AjDpVzTMiPCTsgXTHZ++s/W5/hxrYGJpxAVXzer4op/qqp4OOBsmy1SdaOgaFfKHKW6Z/BvqHRatPtFS3c6a/a2+PtjPA4SnIVDGTLePylXyhistXcngKFkeObNAYEjZXYVu/sIG+6lgjd0SDWI1kMo1SpVUoNBKYjuRyNWIggtIiSVQqFZTOVaeDEihZ/iGSD0jwkk4PKX17/82JGcjvETi8krPaed64o7nFLdMz2mmjI+SH0zJI23L5yaoTiRuGG03tAAAgAElEQVTCK7fFDTh8S+f2xyRidKfVnawCqxAbDVSisHxIxtWDCp7gVjohnwfqRLJK5wiifglVC3KGIARynIRUiI64MB35J2ACk7GW0P9t8UO2QgvfPaHU0eRigaSjj5lajt0fBWd6dW9BQqQUtsdPIIsrFFmkVGuYg+TRKMX+Wg7WC2o8EbLzIO5Izxqdjqh1UtA5visgV0AxgJQeR72HoEqxwKBvf+aealKYHSrQpSrDnioRD9D3t5raDMjmDMnVzxsmqNfneOvtJ3Aqjl7Oal8RjOKK5HPivTa3Bumlo/kPbF46skWOGdzm8BRUupjFkfMEEB3ZFiZbRqGJHfaXNrNWBTdTmDKJVC2Dpb1BEFSrdVIYhxBzkEqlQzLGIk50DuYjZCdCRyqVN/RobjycdYDxaSff9lV6Lp8EGMDXgo6+D1IUBI+dfXW8iYbuhqmHWzRVJyVXZnXyogkA1TTT0cuXL9VafXRR+8oTiV+cz/z2fqvtF3Wub5+o4RZ1sOPr6Per6JkUnREE+jvpJsezSlrYE1KJANRwBA+dXdFqeANqN+5zqaw+LcgepDiAU2AuM6+Dfi2lD5LwjkSfq+UN0Eeq64ePP4biiKC0RdD+MQBpzAmHMsYmYQ+nOAnZofAhOcPfjcPohL/Zo6DRuGFj2pqyIM06+YjcnaI3SwsCHO5o+aOSqLUSF3S0u1YiNgK9jY4UNCYd7Swb4RpfuqCjVGqNCKAP0Q+aMAZ3G6MFQOMISxAxMb2+qcchhzt+OAPzWUhSUkX33Hi3zalReunIbpFqu2CdN9teOpolt5LJlsEGIrnteHgCJZevZLCkVLqYy7ezHZW3slcebSTRpXI5pACOiNqp1RAOSeAssSAIyuUaiVSNhBWBIKjR6AHAYHGuQ+jIaDRqNFDo0Zx6NL2OgzUawXqc+GoptY0srcGIkBdhYCKWIYK8KOc1HX0gQV1TdbUDSj1oFGgLN4ouByh7qlXpm8Xfr3IsN7coOrt0tfvHxRLilGxACxiZ6bKr8wqQpp+OkF8mkTVy4H7ximDU+qtFtnlLHVZvc/UjipDLhdIc2WnWJZKyCbKaBpILYToUIbyactyFyJtJaY1pG5IUPwQLzWFutEtZEnk/mpHfL2rrpV5KQtsmO0Lyum6NNCUjso1B8nxWv8uhPWMqBTTW7VQHExP+Zoe4lyZD02S9NMfERL3OO5kauQGEhApoYwgVwPmOjGQnC49pzImUqhGAiWGM5p6XRKkVu6CjMLTaYFCXOmmmj0lHF/vUAPgS1OlIdFFWBcF0+xKJKJKGSWCGmBUmAosEZD2o5PLCXN7HaScfD+/yqfjazZezXGY1fB1fopN3zV468tLR/J8BWxqZwe1R6IhKF1Ppjraj8lb2quBmBleBAA+cvEiPCDMoFFDyVp0OkErVUinkYoc8EzQava3wN6LTbTQaEWGGyXtueFua/Bnopsmul1FrMCLACEKh8EbwxFOifwKmYmDEdHPF/PkVd7RE/PCAvDRR3d8FSBQgqDPyenX9pernccrsQNFlPxUbACVDOkyj1qFg+ww6I6jqUUYvcQSksI2Shx857jQZmj6SdTBAXZ/ynj0dhR9U4TrV2V+5Ocu+8nhtVlNff6bo6OXLl0YjWNyKXXc29bNTKV/fqptXag2ZnEEd+BI0sJiSqiaK2bbg5DVns2IOKuJ20kceZjrVSYVUGeh9ZqaKH/KL7YeY53HftnhsWJtUajAo2OwLsLHI97FrQDpQwmoijrQM8psHec1DvA7iCAIwo//fRZYSxBrAYNBpdXwq82bqoN09yiDfqSSHpOMsnn6m5Tgsq0BHmwdsc40erdczqbF15MNm5HA6BXciG2/qMZWSR5VX1zhlaHVJRyhSMd9o1Gt7neQTxqAjFLGABz1SDVJRWq9KaQAog/SjqbQKnl4jV9T3CUp7kSJsHzEYVPKMPKc7ON4ZmN76l3L6VwSjXgzRJ/+d9Hq36KWj+c8GXtvRDBKRbdcsjpzOlHJ4dgYixJuOShdTaGLbynyhqryVvfpEC18MgZAFjSA9BoUGsQ5ptXoxHHFk0aNTqXQajTUBApIECaEjy1mv9xNvNl79ME91q5KW181X6wy242unyMLLaZabO99sRzFXVLWRivyLssQdksRsABBon9iATdhGFUNvxN9yAS3XL2pleqD5OxeHwh/qlExdd7a6OctFaW/SU2rt92drGWIQfAlqSZrs9S4anHq8ecVOZ5COkO+qSKa6nl6/Ihj1ZejTLY86nVbDc2ytiYz/cLNcaQSNRv2LRmaL1CBmCx5kk1KIao5IhWPKe6mQsaWXpeZK1Tiz4WWIp2GLNQSck9o1DBukbgKEBGY02hrV6xfbD/WFImSzDRoBL/Qx7EoXBVHT1sjeoBxGYx/lQjzabEEauFg8fD5tYDusYudJrNG2uEHf6D7f6D7kivxi+rdGQ53aARK8jn9FOgrMoWebAMNCGh5tNHH1Bsiko651ACRXdLSzdIRlMJJ6aPF49YhImldhZarR6Sggl0fUA2KlEfKsSyUX8Q0goMhKH06mAYBWR6ZL6vp4ac+ZWUQo9Xpj7TAUG5bHzKwnOnhCztovdgBqyP9GzvmEatt3h3f71WfAS0deOpr/M+BAHTP1cRTbEYUmJlNFDuBkoSMYjSCHOkS227JcRrzstOZ8cCAIKlVajcaUNBbxxANByB1Cq9UrVVrLia/+4PC2MCkzwJZoHz5jJrVwpCrXmhlyjXX/fKMjW/CIyXKko9D1KvoE6OieTmcwYB7KUo+PsxyTxW18RVCZkdNnnI6QH0IXnuV//SmUFulGuV/sXFdrGE5jAHK+igvlO8LtrxELjKCExNidjNtjI/q8p0muNiifQlp2o5WAbD7JYMS8IEUPyqk8WQ9W0DLIa8Xwu0miPpoUTZeTFUa1VNFNFrVieC1D0KGOYeEARykWK6lD1AvxaCgMCYYiiHaiej1UqNsWN+gX2+/7uM/3sSlLlW8M2gUdJdPq+OpuNDMszXwV47UdoYbvtfFzWljRNVCM1r16FuqZjUR4NbtN5iZYyxy+dbeYEGQ7h850hCKkMQC9TPwgDeOPGo7GabQGPWGIeRq+HaPT0YUelUYsqqBDit43kzBBpQIsWxiehAnMJYeZ793xeglfrx9sJ0NEhCJmMACjESCgaaMFR9kOeKa3L2e2rTyBEkiUk/JW8jaCzICXjuY/G3htRzOFQw79jkJHVLqYSB5hcWS2p1joSKcHkFgjB/uPUqmVyaCQJOTHDAAGGZQ31kRHlmecN+WRZSpmz4ZYpU9sZkfWMblSyDboyb/XjI7WqWij0lHLThc0cuOOTgsYuo67OGQLY6bthZInTzSNIZMvAuGir6ny0JsldITkpE6q7P40JOnzc+nfRDQ52yhGp4jZczTgKRen1Ta2CBkGfWst1h9FzOEAPBzNbgWfgPGQjgJLRlgGfXMNxi+2/zvEQATnL/KL6feDcAWTwzVqGOy9FrNSZK9fMrlDrMIN0CMyBwIgHzwzIEX2emI1sp1JSBYPAqQ+SJ4hzt6zDlnTp7J6NCCo1zTWwdatBIy/SzrKoEZVmSuMCgPHO5RqparpBcWEFomUapGLICLbQTpuO9HR6Ra5VK99XoM31UQRk6lQJK6YybuWghmNjpIoNSJ9fwsxyS4brJkD4QvZV8onqAFiLxXR+A5pkkmMoFo48jDbfU6nUWfA8XKmvvKxTMzqk4npNX2evEe8dTycAS8deelo/s+ALXLM4DabK3dQZbAYi2gMCZE8wmBJbWXrrHSkA2QytQMagSCoUumkMmvQkU4PhSEh+g3I7x+R9jYYjGq1TqnydBXu4bPDW21iM6DSGXK6+Lcq6US+alwtvB50tFCSdl526z3RmLaj1j0uEOjGTZ0aMHQehQ49DNcwaQCzTzfcqsM1uygEnEEPgkahrszPRVPTSDiv0vvsoSPky0znSY5HlUFqDZcLtkb3Tv9K8dV7vIxWy9jcC0UQHb2ohZbIAenDx+xz6fh7TEe766RiveJpOmz/gTXo/GL7ITFu2CLkGz2QxdBqGOx9CZht8UOQ/1sk+kbHSHcrfi/sYgdZjaCzIEAaLxohU7EtbsA3us+dQS8gh082gEo62yqTANMRl8B+WEN/YCrseoHBCGjbxlb0xsWSASNooA3RjyKhR27oKKiIU9FJcx3QZU9H+8oEJLV+oA027FhII41WJzaCoJHSQ9rjXtF73zMJly+4kohzR0e7i3kYpR7fY0KjwDwuRgMCCllyjh1BvfqXaqpbOB5dHhxdPq4Xirfy6DMw9+gIk3za72RcUY/gFZa54ucZiU/buWO3wGZgiXYKY3an4LOC/cNSWu3a4fRmnD+VXE+cRcgxubYjfM7N4zeyqvpfJXuV5EXB05Ievt1k2itcmw6x2cNkt/PPYYnZLs8Sqvg8Wt/Aq3xDpuT2cXgKCg3Kd8ThKRCpOhZHjmwzWFIieYREFSGpkJDLt9ARpFem0SMJXiHnaK1epdKpVDqZTC2VqQEAClYBQVCh0MjlGgAwIGmOkGxIiH+dQzzS6A8F79EpmgHAAFYOjlwvo/bSJ5KeYl7R0ZVt8toMawhQZ5/BoAD6n6g7Xhh0BiMjXXbzGxVDD/KbrHUsoUQtzwA1ALQfcgEVCB11HDEdumoTyORAO/EPtAIlqCDp+rJVBQfEYVNl23ExSIeRvNrH2UZHyLOououw4UL66pCkDTdrtk0kIc/MrU3TGG0yTV05NtBER4760ZZlrp3tCDUchVF0t5Md7Ev+CZjgTqVKMnI7phfinKhe2OENwhWTBt2jgXSySk6mI3mHoGChONyDyuEDkVBlJAYJAST/cahv280eBF2xA+5MebBMthHfQbBcF2I7EjFHinv4RQ6lnXFhdD23ZHqTHMosdNsi/A3TkU4kLbONTeoT4ZQgCALkflfeazZ0dLhCgBWrmxpJzhO7rxryeBQN0/e7oyMUMZehrC7H+SfgkugGZ0XvA2V8jFTT2ULejUBXOq1aaDBoVMVlbm+6dZYsnDY7Nq5nta47m2qEFX2m6P31ujU79+iIGLv17R/8yx/9Uzo5ni5h6TX39x56mNtlWS4Lcw7+5c2fLjiQSeK4W15zqA3pd3d98ttfr7pSjHe9QMcnB/33D378J7/4JqbtSLhlZz781ft7opos3dkenYHtyaUjcsaxpe8vXnsir5fr6bUwGhPPhyWV9VmASlQaum7RB9+GFlLdzj+X0VoQf9b/s5U7Hla7BlRJ64Nd63deepiPJjnfREZpyJovg8Iynrm5d2OAGY/ZXO+qWVNH8v7qigm0zOUraQwJky2jM6UMlpTOlCKmJJiUFCSqiEgeoTEklrEhdMQRqnV6QKnSyuUamUwjlqggLztY1FsiUUmlkCvdy5cvtVq9xb6ExBchmASCoF5vUCg03mywM/hwB0GwlSi9Vkp9jpcYQUiSbgL/5hUdhS6UZD1W1UQocs7L008rh3igUayrPSNLD4FLsPRegJqtB2kZctMeZD/8f1a8TunGfe7GLZ0aANoOODJJ5HXV8zuyex/A+z+WllQBAoz22RnJ3Ff3noV0hHy3ZUrtneymFcGodRefbH7YPmuXlQ4DC+1WMgmMIwmYwCIh06Bvs8kxGlTE7RZqmXwlhiFH02X9fD1g1NMZMjRdhmYo6RItVyQvclxYY+/jtTIqc080ZAKCbTiw1QiGHxiQBlKGFSN4yh5EpCEBAwESolwH14cACYo1ctDjtuMff9juBNmIYtC+MaYoI4frcvcxFK0GjAbaAM2aFtalZ51nDBBULR4xgmISE/FSgzqF6ch1kqgqWkQl+YRNKJdpkAgd0bmPuqQ4ljilwA2roIhZDG1v8/BuN3R0oHakC03dA43cBR2deS4mjcgKKiAZBqgkk58w9IBWVVFp9t/z7JJNp8905VuFkHIdnS+ZwJvFe4rLGZh7dERODPi3N/52sMCy1B57jU6vPP/+j3/63r6cXh5SWVhw9N23F4dWsW3OpRWHHbibUVKe9CD82I4NPn/9/R//uezTDQHf7Tt59ckQy3n9LaSj/P/7R/+9I27IiZ1wWTv+94dvvhtSQLNp30UL03R0cumImn3yw0VfXqoUWRbxY24w6u98s9jn6wtl/ab5F1VeWb90070G2/ln1NwPTSioqXuaGH01ZP+WdWvXfr0tcP/JUxfCHxUNu7IRCXJPrVq4YOm3N5rIznPLrDm/ZvGqA2ntduA65oTLcTU52a0CPhcTuWP5+t2nQk6dM5WQMydCzpq3j2z6ZIHPxhtFBKdb7zwS+z00hsQCSFQ6ZEdismVcvpLDUyDOdWQqtBOZ0rIW1spjjVSWTCxRIUUiUSFEJJdrlEpIgMFiU1IoNFIZxFF6vTXfEfJ3XJ0OUCq1iInJ5VPAu3NKZ2CQpQgvp5WihTrAJLw+se7mFx3Z2GrCvlHRtVCaI1vNussBSnSLOt/fkXNC3xOFfSPL3Oc6r+uN2zoNALTucjrrU1ldt0Er1PenqzpbdB13pTdtBvBq1hunvqa15VlLR8iXfJDCQ9QavoloniXryNGGkcXq4EmiYVXuwGKIjtpt6Mg/AbM71ap/bWc7crk4jh/yi8PnUBWDrbhtcOwQLCJnwiRTvtdHEB1xh8i7IOc3WMXOBEhwltgoCKg8sRohGgxmGQaTTt1oV4oMGEUs5BvVbF78gKz+mVkFbuJ0hEdRAUAhq8QrejopJtxy41k32thgOtLL5CX1JCuzuZxheKebuCPs9w3M8yb0wiXb2o5SSKgh2QCec8OS8jWZ/ISu1wMGDoUdmupInqMN1f2opvmsK4XDK4JRNV3Eib1cvGc5z8AcpKPkwP8YJx0xa8IWv/2PowXtT1KbsNACXVRy4r23l16uZav4lJxj35xGtfD5tKc7/uvH//wuMjWvvr6LSjat492upzmDid/+x7/882QdzX75C69r2aht//nGn4/nWelIjs6+fPBGHc5FZbddjEkdHlaYZDrKOfXxOOmI2Xh/09INVyp7i/I6hqGJFddc37h0y8MmtopPK7t66GZ2h4DPKA1Zvvjr06l55a0tfQzqWPPPZ3ff3bp44cqTmS6tQ8z6S+uWfh3ewnA/4fSuyoTo+Mgom3L/0raP31/0+cnkDmzMTp8NNyyni4ourP3kZDEVaY3bf3+bz5a73aM07u7WIMIMFvMRmytncyHE4gmUbK6cSB4hkEYQ7zs2V15QR1t5pIFAlUBQJIWc6BQKjUajR6xAiPscIvatVGoROTudHkCSIxmNRgPkYQf9U6shNzznH793z1TPAG1EE1FNz2znKbV2Ut0T63fe0tHt+zqN8SWoAEi16uJ9HmkkxEVph3PldxY6ksmNuzotADTtcNwP8c/H0tpeoxEEuVnSy9MKMK4GM2kDmOV09PLlyyEqb0UwatODF9O8Xhx/d/gHA9KyCpPpILBYyDLoO+rcGC7GjDuCVRb8Umg9fEFqev+2uEEo0ytcILc6OLvR1qi+rZEmOgp6BIEQ4v8GySfEDSBWI0/QyD8B4/sY7RcD9QJJOMAkBiWcHcsZL7BEyAT07XV4/1RaLU9lUtaeKB0FFgtoegDbTgxIImXQNFQC52qayXakorFgG45n4GHjWefJTXRDR7Z94VIZkGfdLcgtEH+/U5BZbkbBBExAFr2Mo1fLZNmlhBsdcrZEUVk3Z+S8LfOzLw3/7aXMyIK2ib1cvGc5z8DcoyNKatAv3dERh42nuIANZv1Vn7f/cbSYVX7m02VHcro5ovJTi96B6YiWf/zPb/5i6dGCPmp+0G/eWf19vyszkXOb0o47X/7s3zfc7WTXRobsCPjOP2BnwI5dOwJNZf3C//rNh76Wjzt2bHz/F2/86M3ffHH9OcH9et3dkvoV908uHdHyznzijo64XKIVCK2Txmx5tHXphivVnGc3v9t2uQzNFT8L3+QD0xG94toXi5ZtuVI5QK88s9onMBrrykxkbcoyFRxc1v4PF64+VUJ0OZ/M55e/GoOO+FxyZXpGVmFddX1rxrn1izdcedLQ0dDY0dDY2dqPjd8zOh19sMPjoVrGzBeqODwFmSpmsKQsjpzLV1o0GJBtBktGII0QySNUhoRMFedUk1cehugIshSpIOOPhYiQXzIIgjodoFBqEXzS6SA0MhiMiGcd8r9eb1CpdBbVb+dHgHfPVMyAQK573MCKfc4SKqzpp16xo/lKR+LSNihtsVGgLbyuHVEaKFnyezuU/XiAh9WT2kxqCmS8YYSoN4krtOgYZEBA1ffckDjEC4U/0gOAvn6TayAJ26SkKEFetuyKHZyIUzJ0A5HSuellN/vpqKId+qu23zg9vizLvunbSCI/qCZakv/sLB1hG4DO+gnRkVmALrhBSB4g7okdgLgI1lewQyOIkSA64mHIQXBUEsQ5cJIiiG3iBjxEI8SzDhF72BY34BcLkZUL8W5HQ8dwPEWvYHPPwfIJO/M5aJl2CM04ncHBAOC4s8GiiE/ZgILDC0XMNUmkZKJGrlA2d3JbJK+qWTf6dyCoSix0svLZn4JLZxoNMtFdp6Cpw2W8HikwwhTcyzLR1LlmmRAA6MPsi5bQKcd5s+WuWbQdElt1+GHJK75lvKdbZmDW0hEn/eLhW8U4ClNEty+E5J2/fOOvB/I4DvvpTE5V2OrfLtrzqJ5tux7lC1WsxhvL3vnH0RIRp/fx+l/856fhL8pOL4bpiJ976N0/bYNDmBjF+/7wU0/piN128YO3/rSvEEIdIrqqqgdNFLoNoXG5fJ/GnROiI17+3cux1UQaS8ywL6ScM58sWhdaznPYz2DxGu4Hfvrt+eQWO5kKvlDFbove5rPhSo2YM5C+b9kngdHdz25uhulIUBa2/otgOISJWXNh7TjoiFp0cfWiVSdzOZZ7zSE0xz0q7GTBKOUJHVlvgbj+5qalmx9AtizTTjpq75TQEU+gRAxHiMnI3B3UL+JfR2dKKTQxiSIikEYgOjrSQGXJEHOQ5UcLZ6mHTENIMBLibqfV6g0GI+JWZzBAR1++fGkwGDUavVyu8QZr2s7elG7LNUB6G/deDYM+opncjuYpHa1TEuVG5pABygb7sTirEvobwECo6Opyka2Fp7jNCKCVkJbdqOV+ot6g1VX4yzsGAP6wntypw7+wKe16iRYUDdjseaHDtwFSPQjqDcNzEpBmPx3FlnR8ejrVfrU6i9aU7ga2s3SEYwC6GsZBR+ebRc9fkIMShvyiYb+4aGwBQZCVBQlqu7AaIeajaFwZR8MbIn8Hy9lB7ASHJG2LGyPQyOWwEcMRxEUuxbvtV/n7q0QctTK/0Hov9pRw0XKjVqlXGEHuMDMsGx9of4rLTuGd2Gs9KqlUkpBtbc0/AXe5WURQGsGXICBT1PVyU+rpd0rJ53MIxzLxhzPwhzOGg58SLxZR7tQw7+TanJhErRsLqI7mU64VEkOy8EGJuLAeldaob6t1e6f8E3AZLKNRLr5vCzzJxOh+BV+hbmmlWPX6oOvFXu9VqUFQTGOfRmT3PJ0Em0uYiVNuZLetOZ2MvPon99XzerY2a+mIn+D7sx/998db9xzcs9eu7Prqn2//8BcLv9nvsH/P3v0b3v/ZD3+2eE/ygIP9h9VyczlMR3we6dHGX/x3YFbpuaXvLL1cg83ZvepQGhI4xCg78CdP6YiYe+RP//bptWap7ep2lG0OkUUY01XMuli3rNEnZ2NCdCTIOvbhwpX+R89dOnferpzd9/XSBcu+PRTqsP/c+dD9Gz9c8OHmczk4B/sPuyN2O0xHfB41+cCyFaeKa25v8dnysHG47NyOsDwcHL3DrAv93HM6EteGf7to0drtx8+dOm0qBzYvX7jAZ/3p/C62iv+qdMRM3OfzeUh6edXzSqjURR1atWxPdCnysTLv4kafidmOIFbkypGII1t5OuTLg/jXkaliAglysct/Rl159DmVJddo9FqtXq836PUGnQ7QaPRKpVZq1mYQS1RaLaRoh0AUkv4VsSAhhiNbje/X8zE3PVetA4zFfcLwchqGPSVZ+eYnHT2I0atZmtKnUDbY7I9EYX4qqszQHeJIQR7SESrX1M6V5SJ7AxHc4Bcqmh4k3LVz3rt3V6dUAEOJ8th1jp2OTmKz4+jsp6Pb2U1rz2e5X1jP8JrS3cB2lou4RkNvI7TmPljBa6HKeuxLL18HGPVUunk/XSUygIBO01SD8YcNQfuruV2dhO8g8W77WKOovoBcWg12BMcQ04QqqUyFb8ftgNUXEIiCrEYeLK+hFEb2vnMm8W7YxW70FgKeMFtFmpYGpxRG6ZSUITlLDWufgSCgB8RyHU+iYYk0DJGGLdEKFXqRRNnRywixIYdzzVLmiCQpz9WtTCbeaxvp5mmVBtdyNCCgw2G5920VtJNoDbIxzE0nK9jFWBlVadK4AQFVocveTdOIy2IbjUpJpEmWHXepQYgWqAcxnO/NJiO76UoklwqMoEFV8NTVFXlwa+xam67690ogYQa+WDE977t538uspSNBSsCvfrwEDg2yxwZK+q5fufasE2bv/f1PFtlrLcDnsl7cXoHQkVDenxsb18CuPufzztKw7OizZ/PoJqphlB/8i2d0xMM+3PifP/jJH784W9BjYh45i+1o47KYtmg9OYcW/wZy3pshQJoQHQlzTi5fvBkODbKff1r+2eWuPetExRfWLvnWXmsBPpfdFReA0JFQPlSWmdnKbbi91WfLg5LU27fKWab5Z9ZdWucxHXHRD/yXrjhROGwdGz35wAcLFq0/ntSB5yF0tHjFlsOnr6cUd3LHMus5245YyQd8Vu+LiEelJUAl5cp3yz/wvxqLfEyIPLJu4nTEF6oYLBmVLmZx5BbPOg5PweJAlMhkyxDDEZUuzq+jrjzSQKRJzDp1KokUFqyDtRkQbzqZTKPV6hGHOkSDwWI4Mhohw5FSqfX+MWmqn+NGI1iPE18tpbaRpSdo0h0AACAASURBVIhD41T0OB/paIm0mWCkxEjjngCAEKKj0PdEN9eLrzsZiDyko9x6I4BTPXSKRzKRjDMdfSzrGNI/P2LHS7MDezxEtdlPR5dT6tZeeDoj68VX6TSoUsQ3AN3PYYsEavhqNe1q7vB+J9cshy78YtCIVLdvDDYfxw9PhMW7YfU5a6wRYjWK7D1UyOjkqQRMTmQqbDJCUhuZtRkcWnb4CKV5dcpihPCSAzI5nAh9TKMW0eS1z5zQyLKOTxq+XMsuGBB30BQEgYYj00nUgEpv1BtAo0aRbcch2Mut4m4c57pF4cDSiP1GQBrxRg0rs0tQjRW3U2SDbCWRr2aINANd9omMIPk4erMcVHoSqpRKToPSwhrog3TXqZNMY8Bnc4wqgfBWEuZ8vaCRJG1Gs79/Mhr57CkX4Hkj95ySXLmYTPvLnMEKD0oHVwSj2COyqXj7vIZtzl46Svvu15NGR+13V73zjyOFXKbJSY9fCdNROYZOJHdFB67ZdKuZyKg4/DcnOqJ1PNi2xj+yk2JdhavIJaf+8eYPfvDD3/qjzILgHGzK0XUffLrJL3Cfk0XLYvg6HVFOH2uZPjnGIgcr1sToKO/0qkmjo574HT4bLlfymSYnPUE9REf3n+FZZEp/6qmgwzGdZGZD2JdOdMToSwwOOpGMdpC+YPegAn1WncixcaFk1oetW7R484NGxDsOsR3dqG9Kv7R5xeotwZE5o6W3cqYjZuL+MTzrAiYUd2SxEVn863gCKPqIwZKSKCI2V4FoM1BoYgZbVlAPqTIgdAQBkk2RStVyOazQoAMsDnWW3K+IGIMOyiGr0esnQQ/gNXwyen7J3TTZ9TJqDUYETHGuiXlIR9+HakVUTcpHIhMdfewWCWzpKGy9vKNLWx3kXFlSOwhKq+RuI4ic6OjyDkXxqbmLRqLQ92Y/HYXEVK69mDeDq8aJdR2YQ4utIOwc59rXL7bf5EQXOxSSYRLvdoo1spqSDj7Fhyb3Q+D0yFQ8iTWCKChuEFaoQ4/NQk6XcLiKFZs/ih/aaNjgPJk7k6CEuZNZkiipPZybLq06Th0FZNMSakljST5gL5RSjsEBUQefDDunTprMwTuNcNoavw/TkVfU2/N39+g1Zy8dZQT9708my3YE09Heu3d2frMjaO+hPdtW/M8bP/jRrz/x3XtoL1IOXkY9Lznyt3/9v8t3BO3aB5WgHV8s81n+2RefLPv4oxXbr5aZwYbTc3Pt//14394P3/r7kZJxqFo7EMt0fpwYHRWcWb1ksmxHMB1diI8/fSjkzIWwc8EBqxa9v3Dl9mPnw85fgMqF0IfZL2ovf7nks+2nzpy9CJUzIbv9tm7fudvfz98v4OTDZywbsJT3xu39YOmux31WQW1OH+q7pYu/ufnCpCNn9ayTExpQBz9fssDnqwMPGoZcm+/MdMQk5YV+t/teC5FHR+0bnY58tkcOOTgQjuuecvkKRM6bw1Mg7nZMtsxCSgxY1Lu0mbUquJnBVarVOqVKq1BoFApInkGt1ul0AOJKZyvDgFiNkPSvUIokpdaLRqM//l7xKIGnulVJy+vmq3XTgaDzjo6WSOsHAPQlCE7isiHb0VMbOoqL1nLoABOtJ7ZBYUIsAWgUAQQ4iIjQDwgZBl6HKnmlPSB9JO/jGYfvuKcdJzqaU2Yi+4s1mddmPx3tv1f8eVjhtK0RZ7wjRFbBD3Kog1O+RkF5XeFoIrNUnY0pyVQNkbN7NHZeI0iAIW4QUreDI4s8kF6YVG6ZuaX/jN/W2T+A+2VDK4JRFI7oFd9r3tORGZjNdPSbyaWjo2aYwSfu+NWPfvDmP4LzCDa2GkbFob/+dMX1PlPMEqPyyN+dTElCeffj7e9viHzecnvFOOhIPliSntYyY8lhJ0pHn04uHV2pESP8QMw+tXzh+4s2XC8n2cw/pMHtE2BBDghvnExJiAWP2/8w4OMtB0KuPjF75QlVw1knP1709VVzFw5xR4yu3JCvli5YuHxPwqAFaTjE5gdHAvx3HT128tyhzcsXLvc7fOJIoO82321H71YOjqVZ57PtYb+lqXFxkaUymytnsKRIviPLTkSeAflY1gLREXdEgwAPYhGC1L1AEPnfok2HWI0sKt5w9lidJfGR92E36TPAlmgfPWMmt3CkKmDSG3fX4Hyjo7vhWkaV/Da8yo/PBoAROzoKfU90Y7mVB2xtR+6QJsxfzVboqzdaz3Ks6aUjd1+uKdy/4/u8dVdKZv/icrJGiOhxW1zsEKk6SLzb7FBnMSXZohGsUOeREgNyFqRKF9OP/D9ZI/e2M6dn4H4ZdkUwisAUTuGP+XVqejbT0STbjsx0xM3Y/bsf/eAHb/71y62bd13JwzGRNTej9MCf3ll+rcdKR06OdpyBrD1fHksfkLPa79jR0XBz4t3739+857qE7fP5+Q/e+INvRAPfdhE8bdsTpaNJth2Z6YhfcG7NwvffX7Ru79HDZx+UE03zz3wW+rnP9kdmemE+v+zsaAffKUZDxKY1p7LaMkLOFZnjjoQlFz5f/PnlEoYZt6y2I9MeWmtC0PKFPoeybRXAOVwZbJIy244smnU8YmzQ0tW7b0bFoB5DJT404JMP/C5FIh8f3z/0xZItd7tNI7fxuhzfPYVzHCGAxOEpLDFISCM8gbK8lb36RAtfrEUCihAEcghrQUjJIvZtNBq9aDSlD3CxSp/YzI6sY3Kl0H2Zzn/zi45WyV/Uq9NWmUgmIQcwiLQ5NrYjB7DxhI4exOnlXcoIp5gla1NeOprOL6ypr23Xc9ZdKZ3T684JDB5ye0NsR4jLnFOyI0c0GqdZxi92AOkCsSNNYITeU+bZDNwvw60IRmFpghn4kc/HLmcvHaXvnOS4IxMdEXODfv+bD5f9/e2lYVXNsd/84Y9rz5f0cVR8WsGu37yzKhxtpqOKIw50xMMnnQp+1CyEJMId6EjIrUt+eDcu52lRbVllfbnr0lDdRrNxDzOv4ye8tvb4xInRUf5kxx2Z6IhcfmbNp75+65duedDQkXlo7dqgO7UDXBWfUXl2tc+OaIzJIMNscENHjKchGwKj+pjcvvt7TqZiEb27xqvrF68+U0a2zIkTHfGFsu7Ma+dQfa6QxomOuNioHUu/OJ1dU//iGVSaY4+uWrYvrhr5WFd86dsPttztdNXUOG8rDEiIix2baxVp4AmUHJ6ipIm5KriZJ3IhDG1rLAIAA0JHJjSCHeocIGo+Prum+5pUOkNOF/92FZ3IV01333B/84qOrgTJM7dYjTyJeYBBrM19FTpaKKkbMPSHunere08U6qWjGfjmHn5Y8vmlgnm2EnV3OXCeIpMJyBmQ3FqNxolGlt6R9K8eatxZzvJuzMsZQOhokMKbgR/5fOxy9tJRyo7/+tF/ffiNTYpVJLlqwNp33/rhz9//Ksiaa9WUgzXoi//3f95871w503GFyoLjjmA6kg/Ebf/9x5djTvm8sySshi3vjvH/zRv//tHF5zRqhv8v3vnyvllowVmkgUfp6YfQyBUdOfY4PhuCZU0/NRsTo6OckOULl/seDDkXcsqunNy1fumCZRv3nXHYH3LqzO4NHyzaeOcZknHI5lrYcNwRTEdyTObJNf4P07/f6gMpKMjR6SdWL/rIL6KNTi8MXuazJ5FqAkiXIg1CFfNF7M7t92qhnLOSpojvdkZC7m2M2pvrl3x2Ks+a+8jBs26s2+FERzxi3qOH6U2WYCdR0YW1n5wspiIXxWO3PUdPmkS7GZBoDIltilg2V17aDNERi69CpLr1eoiCEOxBcAgxHCF5jQDAoNVCqY28+t2T/qAGDGDl4Mj1MmovXT7pjXve4LyiI6s9Bzb1JOUDBqk233M6WiItKdJU7LTy1ZX9anqPKmqJdY9DF6Hvia4c0ggA4/Cd0eo4nzW798z+uKNLyc8+vzj3NOvGXEBvTxhCMgtZakJpWKMhDzq/WJMktx0gWcxH4xfvRvK9Wjqy3YDkGWImos1g24h3ex7MwMMK/Ipg1ACZ6/k7xVtzlBmYtXQE5Tt606UqQ9poit5v/ulYrsW9yrxAt9IRu+Py6g+P5lMrzy59Z/GlaraKz269+NE7b38Z3YuJXf/Or7Ynm53fGBWH3At8O9mOVPgiVFS1O9OQvCf1/P7v67GuJQGmnKwmREdQvqNFLlUZ8kZT9F70+dUyJzq10hG790Gg75UKRv2tLT6b7jdA898V4eezdE9aPz5zn8/yEznm6Cw4DCnQQReOR0wPOXCzlofQDrsjLvDrsCIivyxs/ZK1l4ooNjPpwnZkc9T8xTBTkxMdOVawpyPHo6O07OkhLl/BYMnIVDGTLWNx5IijXWkza/WJFo5QjUCRRZsO+T1bApAQLlKpdEqVTqefvjCYUR4r8+YQCIKtJOm1UupzvMSUWWPmrm0+01FKkcEg1xVCgUbitHgNtlmHsy9MPqTKgDfvHMYZABAEuNqSbQjqiPOrdM2HXGNPYrSWiANELINMCYIA0HbAdbXZTUHuxjz76eh+XuvacxnzYPVpewnbEyBB7a2Rvb4xaCRzq1/swNZoWHcustfPRpXbAZBMmWFh8W5PbD6wPN2AKc1rTL/tGJBt2HzU54nSnfO53j3zaQYiy6B8RyLZzLg2zNyLcap6nrV0xM29dSm6muKQ15UvVFHc0pG4MSMuuZZEd1q8mulI0J+0b93JCpxQVHFq0dsLL1RC63g5pjjqdi6J/vz6R+8sCqkyy9Axyg7+2VmVwbTYdUFH0ZvfeuvdtQG7nCxau3YEBnz82x/+4BdrrtabG3caoXmZ7ulielz1J0RH/LKY+6nP6c7CAzS3dCRpK8jKaaKaVONsrtFMR8Khpxf33KgnCMV1329a+m1EPWRlkuOrU2PLqIwXUX4+m8IbTMoNfGbdpS8cVRnYXU/uoHqt95dHST+6dnPonUMrl3x9o9m6XwjnO/py6dfXm50H42rq7OmIx+tpHcTZoawDHfGbnuRUD1sV81y1OZFbyWTLaAwJlS6mMyG1huJGxqrgZo5QjdiLENEFS1IjADDo9FBmWI1Gr1BodHqDN6/R5D4mB1mK8HJaKVqoA4yT2/LEWpvPdJRWajDIdAWwDEPYOmlmiPTROvEVd2mLnCKLLu9RdafKnLMkWYFnoTg1UScDwJEqxT2Pm7We7tTjrDk0++kotap3dUjyfFqG+sO5hiAZOhhyfB+j/WL6TWj0COIlh4s1ARKMUhbxbt/HHiENotztFzsAUVBUn3PjvtG92xOGHHr0fnwNZ+B2zov1F9K8TvUTe706nzVr6cjt4pKSGvTLN/56MN/k5ObJwtRER08Kzx+4DztliUpPvv/2e2dLbawc5PTdv/6lf+ywuV9G2YE/jYOOyAnbf/bW5ihbETwrHnCiv33rPwKyrFEx1kPm7qZyz4ToyO3AaHlnPlm07lLFOEjPREdF1XdCE5sgy5649sY3SzferrXxwaPmn1v5yYkMorlfZl3o54505Hyv6fURm5YuWPDhrugumd1RZl3oF0u+uvp8PHR0r6KpIv7mpZBztx5nl6TFJcJ6DC5UGSKv7f904fvLdz6uI5tHO3m3j8uH0sJS6WIaQwJlgz3ayOAqNBq9TgcgRauFcAjS+FZqlUqtCrYXGac4047zg2N+76GNaCKq6ZntPKV2OqS6PZzM+UxHD0MUaZvcmUfG3n9lk+T+qD51EMwsFKOCpTdnL+eMfZmukGz201HpCyhY3C/O5Gw295ataeS457TD9qFBkCQdQkcwIFmZxwmNkOuFRRQGTLJ1sE7Djkx6LV1W3047OWqGWb+YfoslyqLlPRNziL/ZKcwpxU9q17iwemb4WGlkJ63HRHJqD+d62ryVOD8bX30ssszDt4m32pgzMAfpKGXnf77xlwPjp6O9d/ILB5G/94sKj7771rshRVY6EpWceO/fP3/YabEYMEr2/2E8dJQc+PPXhI5yIToKHT8dXYirrEREFITiyivrl34VXmWlI3HN9Y0f7Urutcw/s/biWg/o6AVq1/KFiz4/lYmW2NERo/rcZ4s/u1BjZ1ByyTA8Xk9d4a09qxcsWr7x4M3EGgJ8iqA1LyUhs6ykstmFKgOizdDQ3jFsj2Qu25/QTi5fyeUri57TVx1rpLJkKpVOrdZByY5gHFKqICjSavVeP7oxH3DjrSCQ6x43sGKfs4QK/XjPner685mOXK37J0YLr9tZs5+O0ETOimDU5oftk7bMtQeVKWsWe7yEmY+VM9VG0KjvaiQEJJKy8JLcSuKBNPz+NPyepMFd8ehdcf1QiR+61y540YwfJS0p4okHMVVk7/Z4yNqzr1xI04MKvuD7ZLdLdkTaDrnGbfFDvo/7JpD+1d0UBWTS0nsF5eixSyVRrQBfGtXKojIXgLQ7FbcfnpPx/D98p0cpM4JyDv96qu3lY693S3sGWJfsdtpWcNpOwnqStPdwvVQMgiq+4HqKUwsO36h0SlwdeW4ljQ3OJvhdy76f2zLVr6HXp/25R0fk5MD/eOPPB/LGbzsy5zviC4VPD/z1lx9fq6QQeoak0KqaVnHk3V9/E4W3asoxivb+7p1V3/c7u/a5VGWgpAT95+tBR9ScUx8v+iK0fPy2I0syIqGoJHTdJ/6R9TRKPw4GDEbD5fWrDqWaJTEg17ia82t8djjEHdmTBhtddObrZV8ev39912c+n+8Lz+61qnUzSs5v2ROa2e9eVk6OrUm9cmLvt6t9FixatfXEw6wmhrMboZm4HDzrJt9kZO7IrmVE0ZsngvIdvXz5Esl3ZFH3fn0eUtNzpXINkN7GvVfDoI+4EAmcnjGM3ouXjl438vHkemc/HWl1wOqTieu/r3G3Rp9V+/fnUCJb+LVEBU1uAECjVKToJYqqe3kZtaTdicRiAQjIVd0UaRdcWrD8hn5uA5rb0C8kjijVUtGTXKecRSjCmRwsYvbZGtUL5zWyOMJhb2G0gF6Z/cR+vZ5KKaDJa2uHA+BVu+/jPlP61zhIxXsS6cg/AXetkfe0ifmgkna7wlrSKTpALk2z3wlXoH6fbxqV9a6hhh8NKlkjyiG6DJkW+H85UwNqJArLXHXzdIBRT6Gaps6mprT6OTHQlk/S6A0So0Yqyy7BWXuxrWC7nUmv4OmYOEYwyn4ObeskYPxTafUSI6CU55jbPFxAe1TLiHQuzzj1AsBo0HU1EZH5H3sMDn3NxMdb5ZQVwaiiZszoLxHvUc9nYA7SUdKOn//oj3tzPKcjfsP9rb/78Z/9H1SVlNbCpSYzKSO7uDB8699/8c99CR2Cjkebfr/sarWtnAOtcPdv31l+3Zz+yH5d7hx39BrR0dOQZQvXXij1nI4ErYnHPlv8xYnE5zW1zXBpKnxaWFxdFX30q2VfX8jqEfYkH16z7VGD1ZSn4jOqzn3qsz3SnP7Ifv75QhW9O//MxlXfnM3rYKr4NHRG6Pbli5as2hJ8Naa4tpfDFsrYXDvScMYPdk/mgZUfbwqJL+wyyTw41zHvcU1HVpZ2Gp75xDHGMHo123xHnv+kvTXHOwM6wFjcJwwvp2HYyvGeO531vXTkCS28bnVmPx29fPny4IPiLy7lz/5VZmABM6eTk9LAiCglhZQKGQZ9aw3WOmwUIZ9nVNFYiIHIKsPwqHdrDKGGrcC0YrabRRqsZ6VyhtTaQZywpJtT2stzNNQMyYbZkio7642whQcYwJegTl0PAxJsMkJD0U2x/Z4IOVi7Hn2Znsku7qTsScYGORbcXawWkIpupzofwh6rFmJZwnsZo6JIAsY/kVItMgrxdIsFZk+TXG1QPh3zRHjMBxukEhAERMLriNthKiWfrmEJlIN0Gdq+9HPULLGGLVY1N9kjlt214yMwGq1akVtsxa3APNYzirRxUFjawy/oclHyW+khoxOXXRdjTcgUV46sHF4RjEITOdP5Sprffc1BOkrw/9mPfrcn23M64tbd3/aX/1jsf/HezVv3ncqDiIdXvnl/3dVnZrU0ZKVLywv637c+uNTu0vjAaru9/K2/H7Eao1RkiNn+/GngvqAg57L7sz+9MW/ijqhPTnywcM05m2sffYnPF/KbE4PXfbz5RATqcUyiU0mKT3p4cOOeR032N5RRcWb1Ut97va7mX46pfrzvq68PRTbZyACK+6uSL+z88sOFC95fsHjZmm98vzt4+MT585fCr4dH3LrzMOJeZMS9yLt3oxJrzKLhQtlAWx/G4ss3GuE40RGPVXN//9bjWW22RDdaCxPBJC8dTfXD12gE63Hia6XUNrJ09gezeunodSMfT653TtBRbEnHp6dSJtXoMeWL0cACAd1CR7AjnH/CcC7XREe2aAS5zMVCdDTYjPG3UbEzUUoqe1APiiicCBvjjK2hxnn7VjkVMdTcKiJY6GLSZ+/4C4VYquymyJwLRmww6jQYqotDwzLjy5egiMo+40QO+zPwVhPQWHQU8JQeW+lkhrIgRDK9WQ4aZKLblqAsz9znXJLhiedSgVpVUeHCJ9Bl/bm4M7K0b0UwSqqYpY4PU/0qn4r25x4dkeJ83/7h/+7MtIeZMRamIjSa7NJHjk9sCPtqzaFMG586Ex3lBP5//7rwzHNXq3MVqzl8mT0dkeK3vfOT0VQZfuabNj9UGSiZx5cuWH260B5mxph/8eAgzbXfGvnF/X1BlwptfOqQphhlp1Ys+fZmm+P8MzAFd4/v2Hs9+TnTlelGgmutTLh79fhu//WrP1q04H3bfws+2HQmo5c0ylDZuKxLe/wCDx4OPnv6zIUzNuXo7u2+u4KtO08dDdziu2nz9iORrVZ3vlFantAhLx1NxSPP0mY3TXa9jFqDEQFzRNPCS0ee0MLrVmdO0FHrEH1FMGpLZNccWnda6AjKa/QYMt1si8c/5RhUNNYui3i3WaHOD0Wu5SiGWjDbEBU7WwtSKrtfB/KwNE9iY7bFDR4p5zR0EPdPtYhFGuRpJiUzd1uAxLqBvY3VAVLRTQuZWA5lsrrFqmf1RFdn4WJIWj5bUmOyg4nwKlDBl1SYzWKVFI3OqO0fQGKchM08yHutu9md9xo2vFNc8Yzw6r5tQcU8rERZVgmjUSIpY1DwyMGP0XJ1c3ZjZxL2dFxV0O18y9vNu/HqMzD36AgXvemtH//t4HjijtwaN8jNd4ICz+UMu1hnU7N3L/kyOB3jkqmYdWGLf2JnOxqKPfDpjig73zzrgpifdmrb0bgOmnXPRCwJbq9irGYnV7OOkHp46eIvL40n7sjtyCmdcWdO3S4lu5h/esm5zXuv5w/bMhW5Ke9u+P24UgxlrEuGe5TTCMOtDc+L8wtSk1KiI6PvpbeNfSJLSPPImjQdd9BLR6/+gHPZAoGnulVJy+vmq3WzSJLO5VBtd3rp6HUjH0+ud07QkUypXRGM2nCzds7RUUs1xje671DucFhC79aogSyqGqajfkjL24xG0EWlMBrFGmwbTEcOgJTK6tWCPAx1ZwImMIfVzNcw+IpBuqyH6li6KdIOspSv0Ws1qs56jP8UAhIU72QAAXTzcEASJclGmCGnlhiQgL2Lg+joVhYtvc8q2JD7jHStW1JTM+zmJmIfDEPRShnVtIgqWkQ1u00GSmjcB1XwxyraQ7RSY1DXPkM+0tPJOkAljc+cPBtgCm6PkzlrZz6njSnJKDI51O2vkYwYQc2I8Jbnkg9zAZkiKkmrTiQ+qeu3fV94t19xBuYeHRGqnibX012spz1aMdsuauWDxRnpL9zZoKRMjm1lu21WZ8H9yPI22/Sj4+7drkG3/DAZzU4uHZEaSnNaWJMy/9jqwvwudzYoGXOswKEpnbTZ0LiXjl7x6eZ8OluiffSMmdzCkarmXtpcLx15QguvW505QUcvX748HVv5xYUnk+4e5malPqE1dxIxutMKAxVYhQgAsAOsnDYeXqBkERhX4wdzWHqdSFaJFhR2soo6WdYgon4JVQvS+ggBNjLfpkSxMB1xYTryT8AEJmPd2UN2FTKbuWqNQtUzyHlSO3wgpm+yNRis0xKQRgzNHYYc4VDDlytNABNRRQvPw/snYCPwOkAmupNGuGZz6Ps8/P50G985R2yAz7JYnMbwrMOGD2mhLpzNU+ZmA5xQZ7R7nUGr5Os5BOZJu7PwES2cm5ZIpyRymcBo1CrzzbA0WoMJ+FutnPuTCG/m6xq1U+sNGle1R8U9K4JRAsmsjpt1fh3P8j1zj45mw7J1bo1hculobl37nB6tl44m8ekpVukTm9mRdUyuVDuJzU5nU146et3Ix5PrnSt01NAHaWptftQxrmXfNFc+UcMt6mDH19HvV9EzKTrAoOtto9wsHv6+cDg8Hx+aMVzA1kmorIdmewhkJEFKDW9ADbnPBdrnQfKLQfunMPu0IHuQ4uBZF5jLLOxh38pGVB9wl5olFLGquZ16EgVJL2yLG0CSzE45T6IwO5Os6gs7EzH+CdiHBL1BLo5IxgQ6Hhpl+Y6NgC1OJn88j+gI6sL2Flu7S6NW87VYND04cfhRv5zAU2IYVlNbP0PeZ295G+DrZGpArtYNdVFcef1BvYR2KVVGYKCVuDOLfM9Zqs5+TwZOrQJBOYsb5p7fbEc+g9sHM/D7IgpPPK6YzpfR69CXl46mz4YzUyt1Lx3N1My/Yr9eOpqUR7BKZ8jp4t+uohP5qklpcKYa8dKRJ7TwutWZK3SkAwxfnU/78lrpDK4jx9P1cA7HYDToEM06GFcG/eJwKX38orKh7dF9jk2hCOHVlOPwStqUKBY2Im2PH/RPZaN1ILOfbFUsMJkR8N93KcQ6PYkoKMLIejDsq3BeVL/YAd/HfX4xkypP595wEVTBa7MKM0jrWkiBCbhokt6glEQ9ZVaQLcIM0oYW50uwZRvsfTzkj2dSukul1IiMwmH6frMg3sFmSLMu9wlCYjhIylwhfmBHR/hbPQqWWI1nynuoSr4e1EgkqByMfxrh7BOr1px/EqVGBDCJnCvj8Y7bWcQnaI1CEvM4ihGMPAAAIABJREFUCuOfTM7AyzrxI5VoQVEPHynFeJXCaKAMW/fA+7nR+Taihe6n0fH7MI01o6qJK4JRVZ2EmXoxzdd+vXTkpaP5PwOvSCkzdbqXjl7xsQsYwMrBketl1F66/BWbmg2ne+nodSMfT653rtDRy5cvHxW8gJTrpjCcxnaxPvFtSIYhhdYj06iUSjptpKqJcjAB4xfbvzUKSuQKRRxF9vo6AVJQEbeTPvIQ9sWCACmqF0IjKNMOpMpA7yPZ0JEl3xHucodcZjTqR4RXIaMNVCCrUQwapiOn1EnTtea+VMeOKnCl8JZGzcfyI2CKc+IB7COC3qDTYmlmIw9dMWRj8HGIs8KIDQaVNMZdYtYURrvKSO11odmwr1YiMoLKEXFyoQ0yjT4zabTqEQMIAiQ07aid6531SxJULR4x6Nufedzm6D1O49GI3LY1p5NVGt1seEnNpzF46Wj+s4HXdjRTePOK/XrpaMKPWhAEW0nSa6XU53iJEc6lO+GmZs+JXjryhBZetzpziI6IrJEVwaiNd587Layti9QZP7Q9Ycg3um9ftYAjVkqlsqY6arMEELH4d9KwMX2iYepIJ4bf2M9rHOC9IIq5UjXODANDPA1brCHgWKeQ9bdJBBzjn8rBACCp2yK/Bing+cUOwCA06BuDyWLq9ZbEPuZV9b5yQQ+JE2ZnWpnMWdpdyMzvFZSOs0BCcy9BOYd/3QXV4KKxSsygNfLnQKNMrFS1dtAgc435uiwb557zc2qIFr1yy37Thjs6SiQV8gxaseiR5xFBKEIiRaeWqtk6UM0XuBo5NLw5Skenc4lbrz65nl4/e95T82Yks5+OpL3P29Ds0RlG2vkkLqmZP6HFqODJWd/dl5KLu21O55C6+z3Pdmo7Nj6e4OJEZmP0/r0305omRczAtjuPtieHjmiDxUXtk65ezSHURYRcuJX+YmiMW+x4pfTapGvRlR22whjsrpzUuh66Y82xvxXs3szIJ89wMrc1uUNFqSVNBPcVJkM8w7l3Lx1N7Dk7yFKEl9NK0UIdYJxYC7PzLC8dvW7k48n1ziE6evny5eGHJV+cz5ryWBqntbjj4tt9Bb/H6K2PBuKGZCzSCE2pqC/r31sh4BuMQjxlZ1z/zpi+rdGw+ehR73eV/BH5yJjpTQOy+SSDEfOCFI1RssVqLE3SRRB2EoTdZFE3WdQxLCTJDRqZ0j7JqZyiAEEQFNG5UwVIicTHHfzMRoZFU84cQMXHaED1iCgFkZ6zBFbZblRSL1qkDtzO5HA6w2A0aDtaIMubu/kPeEJLqHWVxdUNHZ1qlcs0yoJik7fb/jJmfJErG5e1R9z1XpVoRPQ4l9muAm2z0zoMaY7SUXQZekUwqpfAnp3vrDk9qtlPR8K8Q3//1fsbA3btC3JXgr55/99+9OZfDmTg5M5LTNs9uIJrvn6nIgoxNuLagqy9v3vj3xZsf9CMN61x5X1x23/3h41XSy1pQ20X3FIalUuiuCyUsvCv//AX34gGG9CC22Q13/zkJ/9n6YkKz3KP2nY3CduvRkcSXFtN4u0z29f4LFi84XwhjcPFp4d/n9xAJtP4FIdCIZXeCTmb3GczvWOPn9oUG/jJktV7UE2ssStb7ia95PKaRQtX7k1qteRjZZSdWrnI56sLTwYcvgaSgX6yY94kG57h9CfvXPr+4lW7H9bzLO3bbbCar21YtHDF7oeN7hQOxzFyu5ZthuG830tH43220kY0EdX0zHaeUjuXpLo9vEwvHXlCC69bnblFR2gSBzIf3W5wWJvOko/b4gZ9o/v8UqhdAnFtPXtYLq8t6dsaNZRFU3Ox1J2wOciSB/a7Cj5PJExLMsUgufMYDCwZYRn0rbVY/yTcHjgwaVvcoF9Mv+9jtG8M2vfxYBZDq6DQ98YNWqAx4AkbrTawKPzowmG31hUrALhljzFnNSgV5yCgt7NSxBJLYtxkBDqSTXDWPLBKKZhDjIKSsfvKRpiAkTlEO2izM8h+e18hu1NqBAFdR5MTILmio4Cn7F6FrrvJYoXD+KfT6/iavi7aEdezgb34QkbjCB9kYfxTmB3zjo5CC4mbwjLPxFV5+AbxVhvXDMx+OhKVnnz/J384nM1wvwClpm39t3/98FL7KCtg89JT2pm09923f/HPrXeLMcgaWpi9749vLb1ca7Fd4Ar3/f1ffvTLJZvOZLVYVt6WVSwHlx7iu953z569Oz7+n3/5pY/fnr2H9u496Lvsf9789Se+0PbhA5eetrFVnKEXJQ0UZEisjrur3vnz/lx36tXuL83S7ytsjJ+OZJTB3sqc9IjLId9tXLV04QdfBASfvhzxIC4rqxpL5xJig5b6fH3w3IWw8w7l3LFNHy9c9Glwap+TmYVH6x8Sm++Cw/WKn9/dtnTZsVS8/X56b8KZUxHVLrO+quiV19ctWX+52qZNRtW5zxZ/GVZnx2Y8Ru3j419+4nejiu2mdxXhyclPFiz+8mLNIEPC5StcVGO9CP9m8bLjhdOcz9dLR54/ywRyXUwDK/Y5S6jQe37W3KrppaPXjXw8ud65RUcvX748E1e19my6O5YYc0E/dRW2xQ/5PkZvjew93yoSUOinn7KwEllNUd/WR71+CQOHUf0WekEA6bsKPmdEmJIAxSBBJ0b1uryo3XVSqUFVlGPHMGZA6tsaNZBJ14zgKbsf9/nFDsBd4O5iVNhe6gHXK367dl5tNrDXB1Q8trjSxr+uhqmhEN143KElFI2BTeJctnWrQw1HYpTsERXGNoMTTcHWgkaNZsjsdmgKOoL3g4CO4LCfKIh04DFnOkoi5bB01AGaw7QElQpoegOXxL7oJC53sn6kbZB5Ftk/H+koIq991YlEGk8yt15kc2W0c4COKk8vfmtsOnprVTjaZeZWp8Uut/zcxz/94Rt/2F8ML6Md6IiRe3Thz9/dca+O43Si/dqd3R760U/fC6mjQ9wirjn/wTu2iCVUMeuu+Pzk35eerMAJVZyu+5/OHTpi99Qmp+TllDyve4EbfBG7w2fDlRobCOHRUPt8Vpwus4MQBN6Yzy9/5bMjGmObwtU0jfT842t8g2/GRkXHuyj3Lh04cuOB3aHYq3s/X7zg/YXLd96uYjinV2LUhH+11H5gzJoLa5Z8Hd7CMJMkqb0wfM+6pQsW+KzevPtqUY/rBEr8wnNrFn6492Ezn0geoTMkrIGm8lZ7IxK789bmxZ+cLKGaWx7juzFJ1bx05MljVK4B0tu492oY9BGNJ/Xnbh0vHXlCC69bHcz1Lwu2/dYIzJk/CpDYolmYGdaCRlvjCI0CaXkB2v8Jc0gkrSlCI4lft0b2QkoJ5mgiv9iBnTUCzogwOQHRaRi42y7ofOEikCa4U6lTSB46RRCZACkash2paEyr7SiRFNtEP+oSjTJpRTQ1V6oeQNPdqQuMi5dC0WqDUV1TY9Ilv9ck4RqBwS464mVnn7+VFlEjJAEgb5h+zFUckW2/B59JRgwAusVRU+HAMygZKyRk5/LqbHfa01FQNq2ArmU6pjPC+CfiDmQS40k6I2jkDzMcLEi70/BWFfV5R0d3K0hrTic/zG+du2+0WT7y2U9H4upzPh7Q0b+uvNHnGR2p+MSyQ+/+H58LLbBhx46OsLknln0cnNptgQH5YNcQweVidyw6YrXeWv7O3w7lQ/aiuUVHtkt/dk+8Ix0JGUn7J0BHRcHLFq+/kF/X2NEwvtLZ2EWzAI9lbIzam+stdMQWQ7eSWXvxcxMd0dH1sReDPl/5VcCJO/FFvTiLYdDpVvJotWfXLvkg4H5Gfm1efm1hXtrZbz5Y/MXpTFvzF7vn7lYvHc26R5kOMBb3CcPLaRj2a5EFz0tHrxv5eHK9A9c3FAb8EZxT0iM3Mho+O53iF9tvu6SeqW1IoQ4W0Ub06M40Cof7ifujev2zmCSl8lmJmY4e9e54Qm1jKxg8BYYhR9NlPWy1VC4fHOI1D/JaMELKiIorkheVOYieYR8M6xR0toPFA7lYyJEvZiiDolZQ6Pts2cDN9pkeFQBCz2HQoCrKnQQj0rletcGgzDJLYwcWCBg2um17miANbmtgVSp7UG/EvXC4QKdhpNEbJEYpnR3iAFGp1FqR0aiUoRzMRC4v1o6O8NFEvdEA8IRqpljLl+vESv2ITMMQqIZZ8m6iuG5QQtaAIKDMGaXlFGanev7EHX2XhL2UUvfluTSpcp7/TXAGlx1zgo6WekJHy6/1uKEjKZMtojPtylBDQz0W2cPJ3Pv7t5aGVVNFNHRO8I6wp2ihuTK/NenQwp//9qtbLSSnVTXfDR1x8I3ZJXiWUAV70/39UMH8oyNW8oHR6CggcsiF7YhRGrJ8yabbHR54P6r4QjmuJu5azAuHaedwJUyWmAEXSs3NDUs3XK7kU7sKz29Zv/thM55RF/r5ks8PR9y5dOb4qfBHmY3dZJsAJGZ9VHQjbOiz2gB5AiU+P/TTRV/tDU96FJXyKColMjo5OiY5HpWeUUO0XgW7N8JLRzP4lHLq2mgE63Hia6XUNrJ0bq0LnS5lHDu8dOQJLbxudTqufVtx2GccX6NZUJUzIl8dkrR+FuQ+QhTqIC5CpLpRpLphTgQK+rg9j42Xyp4VQ752JvPRo97AOLS/Ger2NMkVOllGMtr3cZ9JvNt5oY8ilQgMuHYoVMZid7LlwG1xWMR25Akd7a+Xio0wHhnUpflOWOLc+1h7zvRMOh3h7gxp9Eb9MJb/pIl5v5R0HEEvFAFF1gFGfedzm6gh98MLyuUMakDWAAWRQQ/I4w3rjHKRom2Al1RDOZPukIMIF0XUG7TyFNdS4/8/e+8BHcWV5n1zOD7M2uOZfXd39t2dd3dnF8exPeN1Ithjj43BEYwDSUiInLPI0WQQOUlCoRUQQoAAoYQikggSSqDcSp1zzjmVvu/WbZVKrW6pJRS6xeXUsaurq25V/bu7uD+e5/k/uFAji47Cc1smhVBS7jf4wK95xF6C79ORInvrOG/o6NN9Hmbe7IrzC7/69Ns5gQtW4DVCa5aD6iCwLPz2Ly+NfvEf//G3v3njuwUdG4l3O1dWH06swqNJQsb9zNzUtBywpMYvf//lP8+PuAVeZoctee/ld1eG3UraNuU/x/zzxFVXmjhVZ776/UiiI23T/QeP6AaJjBvbY+wo6EJ9J1cQVMm9u23yhFknK3kyg6Ah5/CyecHLNm7csnv7jj1uls0rpn/64Yfjp29NaSPn1NGLo9fOnbdk7datO37duW7u5+M+n7X2V1j7tHvPyfjCrL3fT/h+W6p72zp6ypbtd8ipcWKpnstnJW747ovlSaV0OYujaKPL2+hyOgOsdylAElSfmYtiR77yEHzC1h7OYuVTFTY4UfCV6xr060B09LyRT6/3K9k3IX3hW/VXjwz6l2+gT3C9qG5SCGXGmRIyKgz1enTj3PAaJ/wAQKoLLRXduFkH2hlF1Abd4DUpNEWZtQHhNaDT0YWOJawaXmdnaKUj3a779QffELcYdEnXqM4erx1kRdqz9YbQbuIKvKGjoJjm3fmiUrnDrpKHdiuzIY3pLThte2oY+NhRTNPqFObpQkFKjbyUrWMpLUq9Rai0mjBMyxcf6AFgcFhafJObRjcqDabqJmWjwlhVxsTT8Jq23KIt80xTC1L5Nx8wOvPouu+ZwKsaKbGj1Ukta85lzDuSYrWNQPOhgX7S9H88P6Cj9JD3Xvznj6Yv9uxZt2ja2y++OG7nQ+/iEs7QgbD6xpJ3f/+naSdDF7360vtBW3YeDKVkP2wmcuo6IwxENpdEJikM27Z8w74Dx86fPvPrT6/99s0Z+0+fDT9zNmzXjLdeenPOrjPhZ8DL8LOR2WUlpyb7Ix0JWu/GU4jSoIsnNk6bMHnRgaiw0ztnfzZ+ynLKfSaLsvzjT4N+vdClTAivJrp4eNGXEwPOPHXzQeB0NPtUFXxLwFeSsYeksIFdkbp37qRPv1sYcjgyLq26Tez2gzBw7x3/icisgwzGK/z1+4nkuiPysLyy8OBFURUdpUc4GqnbyhKXfLkwtEAoEGkEIg2bK76fcPboVWorEwASh9dh0iCqOetKR7LHd7KKGe6vjXzeZ1lHdUcuD7Y2seF4DvvWE4nR8jz+rYDoqFdaeN52oJ6Ykxo4Vi/huPxSfP+l3eFYfyHz2+2Jcy/V9mNaPyCHQIc6GDgCtgqXmkJTG+fiaDQnrDr4Br9VqX2Y3dEElgAk3H1hbmT90vvqLoln3WfkMdTtVXoRjbsc93sAhUaR9cB6IYrc5rU1ReTwmo6oQVf51QZb42PXkp7+CTIIsSNXMFt8k5vFt1gddrHEKLVgmN2ukOsqqRJKVls3O77W45UaoQVzmPQZd4FPd/BVzl2RRcSVUdJaXLz1+ny/l/lPTD1m1uWrFA7/6AZ77k7VpBBKSQPb93/mfn2Fvk9HshurP3z7h1N5nktHJNzc4yHHE+7znTNRD/Np8jxV2JCx6bN/+88ph9JbJMnLX/399xefMhtTz237afxfPvh6wYbDCXcqBJ6m785xWDcX/ekfvz/dgu/mxpWBXxr6hT/SkUxLzb8RdTk9LftBQVHJ1d2/jBv3/eb4R/eKHoOluLyypeXS4o8/X03Jg1vI/y24uunbie7T54Dd9sSAs9Uu4CSoz4uOynjQrMJVVVTdCl08d9WB+Ed1vbl7u6Ojon1Tx3+1PcslHw8fWdtwecPnE2dsv9bAkhkgGjFYoruHg/72887jZ6MuXIwOj6BcOLZh6vgPPvhsydE7T3LuFNxOLUhLv5edU5yTc2v3L+M/XRaRmXs/ByzFty6s/WbcuG83plT18LUk4mb9XUF0RDxbBSrzhXu8+BKh2mAjNj5vK4iOnjf46fl++UemZC177/HJJX76QxDKtd9tT/jhQJrblLM+T3/dwYnHQfBoT2BUPYgL4TgEV+ZcqA6IwCNFF6uDU/gMre5hNsisc4aP8BS7gIgauPOSYqULHe16pLj/mBTBiGPminS3blEBhkXUQl873OCupvOW41gFKszIEfQQGOm8CwqNwjCLGR0NZ/t0y+523tW3uiNho82LuqOOE61P56fTDAqrXSFW3cprA4GdBNrpElmFyGJyYO2YQ6vQ3Mlp7cQeSlt4s8lkNRXmkVoYxdMi63VSi12tNNQxlAW1ktsVouRS4eWHfMp9PuUBP+6hIKFEeKNKklUnL25V17DVBQ8ZMB+vU7cYatBlfrXZhY5ajj4QXS8VxBbzLuZzk2hmm8Namu+Ss+cKe13G7LjTodx4Ibtp8qbYMyklfvqr96PL9n06MnC4sl5ApXP2qa2//evXny2JLHPTkpWgI/bjK8vH/783fzmd02qQyKRJi//nd1+fqYBMJWjLurj1+7f+z+gx//r2N6uP3W52mc0Tg/Dy943/3UdbsuGJ3NARr+jgx7/z88w6MStu1acfjutqDSdqSTy4+2xGq5v0OTHrUWGtewsEnI7mXWjodpT4YezmaV9MX3YgNurk7u2nMsrIDV47P1nXKE0XOuI0301/3Cxoi135+UfjJv0YvHzJ0uVLlpCWRfO+//SjDz76Yv6FSrZULxRrmWxFS9Wt9T+tPHatOD3j5vbpEz9bEZVX9Div4NHdnAeZxTW3zxzYvPfcyXOxEZfioqIurJ067pPA/RHRCVHkJeb63VrIda6XR3xPnmUF0VF7e7vSYI19JLhYyBOpzX70YB2MS0V01DMtPFfvAjRa/n5eyCSjUjwYX7ahGfNuGSif+PnU/aGcXwIbBpxV5oJ2Q/hC5M6FVYMkOrwMKThVSNcAOgoIr1meysmrF9+vE5c2SUuokvt1YP2J0GhzWFmEkzXHoLBjmN3y5JGze8/aYmVdLQtGSOZG1s29VDc3ErjeBUTULEjjl3INAo1ZorfbMYzfwOwpK8w5C289V6etp/J3DkROHRT811pTt8w6y6M8JyEse6jVaFWRia1nK5WVbE2t0GzCHI2lPboyUFp23OXfbFA3Kax6g4naJo3LbO3OKmvT+Tlsk96BOUya+GQSgVBaD2Z0630UQ110jZVQq2qQmjXWHupMMbtWk3Dbw+VdFtRaXOiIujGDd6NeTdc7oKcJZtWn3CBdzHDAT88/hENprT/vTVp1Nt2CcuoG/wnli3QkbCk4MG/GnAVdU+kWz/vubxPHfz5jnqeesGD7kl++/vxvn37+ZfD5PPdZT5KShB1fvfbnb3bc6fhXf2nC/P946W+HCslBAFpF1Pqv/jRm9OiX/rIooUvpS8dkV5m365Pff7jrrrMhEv7SxdH7fvjKpceuV6v92LOOdidk0kcffDQ5cOORc7dq3cVkXKmAW5myZ0t4Ho1khwAJh5ux+YuJCyKau9GRQSJTlMeHfDPuw08WRJd1ZL516Ow6PrHdSUc5rfnxJ7btvJBSCfq0CprLr1M60wKJ/MCw8JiwS4lXc6gMqZ4nUHN4Sr5Qkntiw9arVBpb0dZcfmTmp5+H3GGIwWUz2QoaAxQggRokPMVOJKg5FzgBOXoP/uOoyxkMFntKleRELocmMXR543l9gejoueIfTzcr2v1B3YFpmUvf9Xc0At5rGLYrJu/rrQmzw6p6nhcO1LtOGwa8iCggHJh0O2NBRFnRBUBHAeE18+8IaApNSV4dHjiq353asjepYWkkaH8050L1PM+1Rs5LjWXcbpaEkloDBUY3BkaBzDrgDI4n123IljTqMbNaFdmD2dogztGbDjeY7FZtQodnXfBV1oUcPMiDnzQ4mba54/rXZokbDZjdoE3s2rgpKIa69jb7Uok4i6p6wtE1CfWNLFXBU2FkFq23SqqmbYXyFq0xP7NP4ZqmtSmMw3fZ5wq4EUW8aCJ89EiQUCKIzvJs+XBZ0GCx0586bR66fJ0uM27wbA67tekJy6sI3iB+Ij2x2YbklpVn0n/akyRVPRcercP+97wv0hExAyav8B+FfvHymLfWZPW7Iyet9ObegL+9N2Xtqcw2krudJGHNVzO3p1QIXSbi0gcRi//6uxf+a/FNZvcIRtONhW/8zy9h1I6gliJn+4TfT9jnKf3P37rBOqWg3dwxedy4ceN+3H8n7+CsSdPWRuc3N6ccWB4QvHLNxh3boKHC+mWzZy1esx2aK+zeuGLB3LnBK47l1rvkN3Jur//bxGUUZodiXdUWMy+vnfRJcGQpmVFlBtZDyo59tyrdZdlx80Onj/9k8rR5m8IfNDiZSit0OSnxwfHETAFIqOMJ1AwWYB4e40FiYjlDZuAJVIzWMkBHG9OaOAocjcTUVjmD1QFIDDmLUYlcGYbyUWWzY7kN8sNZrGqOdijP6+Pn6gcd1a9/OzVwbMn6D6u3fYIW/1Zg+6dVO74o2fnVnXmv3Ql+vTJso19HjYjfmlpnCjx84/udSQFDUIAU3QhwKAzPnQsDaATDRIFR9V18Fy6CCFJQQsuFO43BHbYNICMu3Gs0iqEGxbVtTa7vMguPoQZE1OJ1R53bN2Sw9/dmVOAyyAC+3JLDO53iLZxsucs95o7itt3lXshm7kxu7syRGyZ+6EmZOMaZXJqnAF1wCvNIioegk2/cy8K4pkNJD77cRKluExC/HbQyqAr4Cx0p83f/7aUXJ2zL7SlljkxT5HXa4zuhGxbOmr/j9K26rgEQRc6xFcsP33pI6zpZd86q1dV3ws/eau02oeekrBv35uzox51TeUXGpvdffm9HpjOUhI8mrLty9OCB0PCLUYkXt3z3xxf/shZ39yZf2NCs17UqpmwqySvvrb8twRLOFf71TV99s2z1bNANVsHMP/7L+HFT9xVx+DI2KcLDvr1z0sfrLwMvu54WYdOVZRM/W5/cevfU2oDApSvXb928befWzmX70h8//Xzm2i2dW3Zu3bZjyfSPP/zw4x+23CQDEq+5Ivn09rlTJnw47rvtqYLO84qaorduOH61ML/gUdelOH7HjG+CDsU/4EI0YnOVZEs6LrPi6MxPPt+YVk+Xt7XS7hxfOX1ReD5NzeYqnRGktorjsyf+fVMa2fKu87w93viz7PYcZtZhGFZKVx/KZN1vUTnTHQb1+edXg/eDjppD3kkNHJsaODZr+Qdo8XcFctb9rXDn1ObUCya11K++ub1cLEei+mFX4rS9KV3tCnr6d/Se5sEeprPzYhqJ8UGSG0QjZxCpJiiG2gWQLgBAgvVFoBipj2gEYkR42h5xxn5cMDoEKUAocDETeDxeL6rr5beE3h44BfyDjviVMTP/Z8zvJoU+cI3wdMzI2ZWRh6Pz3WXT8R6nXYzKuO/ejE4SH/zH0aP/MH7drRr3YQdt48OKjhw8eC7Fo7Dgj6ceywQ1S8QiS1n7yceLTlFultSRAInXXJVycfeM9/7wwqjRL70bkuKewYhBBmulf3QkpF5f8+WcoymXQDfYPKVE3Ba/5uuZoY9dGrN6SUeCsvBAOI5Axu6kSuKWBfGrPv58SwYZP4QtGVu+nRy4O/HuEz5+Um3zw7Tzu5dP+3TchG+WHgjdPNXFs05Mi1zy8afBB12rg6Lj9i+cNO7L5SdzWHSm3IlGYk7GidWzApau3rBty5YNM7/4aPz3K9Zt2Ll+7brAmQEzZwWuOf+oGbjY4YDUWhE665PPNtxmSvWkD524+MFaed7oqIGvO3qXnVkrs9gcA/eIGzkj9YOOaJv/kho4VidijhwV0J2MRAVqaMIpm2OnHxwshwaQUBcGgj+BUSBuMzeyHkaNnD7dYdUgpBPd2AWQOpog9RmN8AhVYBQYkJjdohWkQL8VOJPV/PXW+P0JhT0UXY3Ep8Iw35M/0JGYQZk39oVRL/xxwuz5C5cucLcEfPnGi6P/4ZWZUSWe8KmTZEhzWXHziW9fHvNOyG02aWPnntqG27s///d/Gb/+Tp2TnYSFF9cHbUx8wHLdn04T8HlFWz548Z/+PDv0noQ8hxY23tyx/FBSBWgLOyxLv+hIUxG+5Nu1159WRgV/PH1/HjA6FzK4LST2g/dCMBaTAAAgAElEQVTiJR1x7h787pMV0Q3d6pGcmnSnI0XRqdVro6pIiZTaxtRfp0345Id1UTlUTRdXBjiImE1Z7qZNrVgqv73zuwk/n8psBjl1Qry4SCjW0lt5Dc3AuVvIrQqdNeHzjXdA7IgupzHkHJ7T2B23+Va2NZeHzvrk8xAUOxqspxVbbjqdx7laLtabn0erbi9lRXTkpVBoN39UILeybVII5adjuf2eRHo6ENgwhNUCEMIpKCiG6kylC8Md6jrCRwHhNYCaCOdu0nZva43wsBWwwovodKULjGqASObp8tB2pEAPChy40zxzX/KCYzcNJos//q7995r9gY5kBmH1jZ1bYu93Y5IO2JClrH5rzO8nbcvsXtYizDsx72+ffP9TwMIF3TsmLZr+19+98K/jZwV99f4HPyxb7MHvYcmyHWGFIoAHLQ9uZDRzPEGOoGz3J7/9Y2BSS5cdhPkJyXnDFDWC+vSHjthF+2bMO/lQKajC6chzQmMXOhJzs09t2XmlwSW+JJEZmuLX/O3H0Dx3FUT4RXajI1Fzxq3S1i5KGiQyQf7tglo8r88NHcm4ce7a1PKFkuvbvh/fQUc8gQqgEdNZVtRGl7No5Sdmj/885E4jUWvElHP5TjM6gUjDYVScCPgYuTIMxmNOqrVcKuZH3ufLdNbBGH8kjYnoaCR9muheuitAuQsaufx8/F4Pk8W+vkVGI3JpE4ztuOIQ3umVAKS+Ro3wa2taSAH+3XD8QGccidzgaIAzBvsqCNrfjxTYd7tl9v5rAQevixSoBLf7A2Nwt/gHHXVQkIfYCx4C+s24PTndIhs9H8i4HfL2i/8zP4HLr45b8PO+jDYP47vO0Q0SWn1eVkFGZtcl48qqj377bz+fSu3cnn9l/y+v/GbM//xwyoOHntdn7H4NXm/pOx1pnsSsDTpY2CYzCCoj5308fX9OZ7kXtzJl54LAecvWr9+0Y+u2nVuW/Dhx3NQFm/Eios3rFsyZO3ve9qhHwEGOtCjzD/8yZUsGKRBEfhdgT/fMOtLhLjuDl+7oiA8GWRWd3bXuKCe38PyqKeN+PpnZDIiIyQYRpDY68F1gshWgsqi5/NisiV9sSacJNSyOoo0uqcorLqiT8wROQBLxnp6eMx7R0cA+irQm25Uy0dl8LkduGtiRR+poiI5G6ieL7gsq4HBgp288wgGpYECmsJ7QiDw44bUAAkR47yNYg9QvNKIGXRHUaE0VVazdcTXADS+ilnCoI590eNYv84t5qjv36L25yXXnt5YkprG2QXDkave3qKvvKRpZknPX3bzl3W02najX0xnSmDRSmyMPxWPeDdjvK/GtA3+93Rxw8Pqs/ckCuQY9IoZegRFBR+zUJWPH/HtQEq3LjNzNlLrLhFvcFDbzP1/6321pIK1OXR4RNHH6qVwvgzzCxoQdK5aG7Nt/5OyJUxdOwuXkwVnv/MO/TNoQSmwhVk6Hx9/jdnN36O0K+3Q7nnfuMx215exdEXoXl0JQETnv42m/kuhIIuvSgapL7MjTNYhbLy2evCaR7VmBAaMjl7qjS5FxUdFx+xZ8Pv6XUzl0nIU60ueEYi1PoGayAR0Rjt6C1ifx+zasPJhR0grYiS8EhuwSwZNTiI4G7uFksTnSa2THstlUAXIm7YOsiI76IBba1T8VwDDs/O1SAEih+c84FfYGjfAsuwaXGiSnH0NHil3v5t2kqfzSQrUKw3RSRdRN4I8HGhzhlU7PeC9BMdTFt3g3HjJh9yQwWmzbuTLBiT753V0W1Fsxh8VUmN/ax+tpTuI7MIupqIDUvJW4a0pbItdm1WmSbvePLpov0qwOzMak8nb1uZVT0/ZcQfIjzp5E56lXpfGSHvOPX/fWiK+POvTvBvtz1N5bzXMPXZ+5L5kvRWg0PM+ykUBHvLy9H73428lHa0k+3b2Ch7YmYembL46dE9XsnLKLmSmbPnvt75vjy13iHr0O1bGDsGr/5y//56IUNw7gnrBhSLb3kY4k+ecPht13lk4JKiICJ07de7czdtSFMGUGb+hISE1ePXVLchcfiw7RnAoMCB3xyJl1IomOxVFweEqRRJa++9uJM8/ks4CdN7ShozEA/ECPb2Yb7ui94Wbh9TMrpv+w5NzDGnw3OlPOF2pwOqo8OQvFjgbgCeVwYEXNykOZrDKGGhWY9lVQREd9VQzt748KYBgWkV4OAOlYbr+NDXpGI7zNUS00lAuMaoBuDS5BpD7VGnVMsvGJvsNcnO1xdr4gzuNbHYO4mUxvL1ZQubJzHY1Tg69xcri64mJa30y08Y6oeja/7119mhO4drtaEeqBXpbmqxQOjF1D79v1OPkKDI5ZdUl9Ij382MU5CpEda2/HjBLJ/lhq0FVBrQm8tBs0ce7Mx3tQ2KfeOnC7edb+5Jn7kjkSlT/+hEfGNY8AOlIW7Pn0xd98uDnb4wzeZUIvkRnack98/6eX31qY9JRsVSekJqyc8If/9+nC0KwK9z4NLnP6ri9HBh0JGvIL6USQh/c4bO7E7/ZkedTWCzrS1sWunX2gmOxH1+0TGRA64sSucLoyQDSiMUD6nFgqT9v1zcSZZ4oFBjZXSXR6BYDEwgGJVXF05oSPPp3y8fgfVkaU00FMScVkK7h8PHAEYkcVx2ciOnrWJ94TtvZwFiufqrA5sGcd67k8HtHRc/mxP483jWFYTBZeg3Qspx+A1DMaBVyqBZVFeMtX8px4bmQdUXEEo0l9ihqBoRJ5lQbMJBLvpLghnKAY6tJ0cYPGXPmQtoAIvHixsuORWiBTnEtyjhl8jfdQbiq/77nzqacxcTrSsfpDR3GcnugoKJ5TKNLeSuu866XpopJW0f74zi1kqbusU2hpEsyuVpxwj14tp6tkyenumxGtLNWZ8b9MMLs+5Sp1QbqMB+1OMWtFoftDupzak1DDuv1IWtNPe5ICD90QylGt0XA+/fyPjtpyonfvD49Pr6hmgMkruyIu4LUxY97ZlMrtyioewzKC4uiQv//HH96bH+3G5kHMuL1n2tgXX/inN7+atzUsMbehxXsTvB7oqPXevunfrbrS3Jfolpe30/tufYwddRmQV3oxYOK3uzK8pyNN9a1zx5IbeYT+gppzK0Nia/EgDLHRZUXw9HTAhElbM9ku211fatgcBSS3tpTtX47/6WC+01wO4JaYFbPs40+D9l+MoJw7H3XmbPSZs9EXLkZfDIvaNe+LcT+fKMQ9IUAqHW5MR2MAezomS8GviA6e+P57H3y99EJ5PR1YfouleoGIZK/HLzs2Y/xn3TzrRBIdl6/iCzXiwXH6HjGO3m1iw/Ec9q0nEqMFWdL1/3FvUklTA8c2h7yj2Pu+l0vbJujozer/WdGRSIHhUADDsMu51SCCdDijT12DOtEIN6lzgSsnGsESo279Z+eEV8OQUUB4zbxoz1YKl5k3WrV1XLDUcjTEUicymzBMLeuykXi3lqNjGxwODHNYzeUPvAWkBWkSuslcnNMx16fQknk2BYO3th8zeDyzTsPgLe127KL4niNazbFsMh21hFaqajmeblPjvFOHQ84R/goBKYlxqoB70e1SKK7VYzaZItrdu4lUox7D7AbdzYwOBUgXj4OizeLAHDrVhXhqUCwjhWsx2DHMbsxM9QLMSEP5CDWFpjVO23l5UegtucYwHD87dM5OBfyPjiQyLfVe/IYpr7w45vd/+OMf/+k3o0f/5tVfzj/1AjykVekR675750//O2Nz1ONmctSoyyxc+fTW0Znv/mH0qFGjRo1+6Y/vTPh28fYEfHxWVdLZc6HHz7pfQvfNePsf/uXztUdddzix9uv/HjN61Oh//njN1RYvrrMLn3QLs/T53Weio4fnZk+Ysv0OsCOn3796aOfe7Tv2kJdty376eNzURds6Nm5d8cMnH3748Yydt1oFuKq0jNAtYU+7u9hJZAbe45SDm5YHzJg944cvJ3w4MfBcdSdTdflEOm5ZLChOPL1lyZwffpj+9afjPvxkeWQNiWHErZGLP/77yqjUzMI7aYVp6YUZmYWZWYUZmQVnV37z0feH7nLAznyhmsNT8gQqBgvQEQAkel3ihh9n7i94irs1sLkgoNRFdn7p4Z/Gfbz2pkvOJF+o4fCUXL6KJ1CT28t2OdbtjXi3cQTQkUBlvnCPF18iVBtsnU8dtNYvBWxmY2rg2MYNb3uJRoq97zdvBN1gzWpZv06IDkIKDLMC6aVNkzfHTt+XEnAJNGztdemCRrgl95ywagKQuqBRRG330QKjGmD4qNeo0cpU9ul02toE0iXFMdNFFq1IeKQjBrLqausiL665+2WQtrTEsmw2tSohsw1WHC3NV8rt1ppy1rbLpFO7nCWenc1SJmW2Lo5v6rIkCRttmKKNu7Lr9lVZUobOVFbCcMm4C45tWuTcsyWObbOpFScutxwp19C4kuPX2rZcdQLV0jylxGiqesLZHOv5kmJpsVRNZYs8u1qSWtV1qdfKHZiMq2qWaHKedH2rc09xyn3mSpfbhC9jmdkyO7ee2SF1SzjNouUJt3gI35G09Xy1bk80yBvnxTQevVn11Za4lWfS1HrkVDTMT5729nZ/pCN8rswuP/r9f7wwesy//vXHjTGV9B6nm8y6R1dO7lr4y/Tp83ceTypr9CYcxK6/cWz1V2/96yvTT2Q2dmRYyRRl18KOhydfvZWT3mlM19W5rsftmYWNPV/qQE2syeM8Cx1xi0/PmPj1zjS8WZOYX1b4uKyezxSQmKRH5SWi+tjQ+Ic9eQlqWx4kbpg24bPZoRkt3g0r5hVGrP16/OQFZx91EVNEvbBgypzQ4kYGcKVjc5UwTNRG59/YGTBzY+JDjgY2O4LwwxeCMiQISIxGWh1NRcMP5AmIj7uDyvgPD/742Q97c4jT4QVLKuj6LRRrcUBSDTgg+TUdKQ3W2EeCi4U8kdo8/M+5EXEFGIZlLvvfstV9oKPKtX9JX/iWw4bc0kfEN+C5vInqNsH03Ve+33ll1oWKnqe2BBoFhNV05sh1RJDmwoQ6kjEdeTS8K1FDYHQjHjXqvYtrYHQjAV1wnO1lOo3V9CgXDIJvab7YZlHJNDlF3oaJyNfjXL/MfwoKaUApTWsVfUFM07lWC547hpnlsmMdGOZ6YBy7WIPZtIYnTHUVeWEZlA7MoNS5bH/CNxsxTMkXHyHDXgx1dba0WqirBiNoOUYMM5saO0YrLutgFUrbFa7NYTHk36PhVnhNq664CfK4XiGJNLZV6s12U3Z684lG3ePivtpFULeX6eQy+ckOVlycKeNoddf66Q8xbLy0KrFpB+XepBDK0aT7Jgv6l0SfeNL5LR3JDOyS7Ku5VLrHEBCc2gqLk8KPn028nt/Y1sueHVNh8nRfwG2ieTdlJx/lY+vPQkeChscZ95m9hHR6uF8Bs66px5w6cKy2pay8guFOf08ji9oePqSR41FiqZ7DE1RW0ptxwgFNinjOEiMcgcQwWISbNOgIdCQACbdqkNGZcjdohOfslZa2kftc8QRqNlfB5joTDoViLZsL4lGuQSdP1+/ddj+lI4PFnlIlOZHLoUlQbsAAP+Xrk46kB78u2fWeN+Ej6e73Mha8WU3ZNcAXgYZDCgytAgK5ZtHxW19tifvl1ANP82wCjeZG1AZFgwasri4L0IOuw7ObPM7cSLAz7AYb5GSbnibKAKJwq+7OQa7yKvWYlksOWTSdbrbYrYa01J6T1no6UdBlQZ0FVmlieL1QcxjN6qyssemuebIxiGMVqjFDN/eF4JtSph1jPnX1clico5TareX3PFNNAq/CAEqDursyLMtViG3WulLnmMHXhY1a4/1ir4EwjpWvdBgFoq0UavA1wROZJulWj4KQsCoohrosU9IoVkanOA8JvsZ7INJlZfuZM/jOG9SFobenbI5NK2lCZkVD+2jp6Wx+TEfEHBet9KzAs9BRzyP7yLtiqZ7NVcEuRnSmXCDSCEQaNhf4dzNYcphHR2c6A0piqZ4c5CEAySMadSUZctSIy1exuaDwCa9TAicdWEH8jo5sdiy3QX44i1XNQeWkPT12+/2eTsxODRxbt86r8FHjhrdTA8dquC39Ph06ECngIwoYTJbdlHxPRnYEGoE8usg6CC2ugOQhagQawsJyo4vVXqJRYFQD7tZd76QjShuFabWZdNe6zOybjlPNNpMmuiOs0YlSXaf4PW5vOVtv1Dkwu8mYlwsm/YszJS0GDHPY+S28jZ6Sx+JYBSo3dLS0QKV02KofuFJQr3S0KEsucrS7oaPLrHyFjdPIWe28o+YTVLMNc8j50tOeyK3rve8s1+ntlof5zkvaVqKVKpTh3rVOWpAquN8mPdvh4xd0hX2Hprzqwb+hR5H7wGMDPs7R27XTdl6efeBaE1vqI781dBlQAURHfQlZdJ0oD+xUePBGG/F0xBdqIBq10QECwcAONKzrjkZsrpLNVZBJhi9UM9kKnsArtsFbJClgTh1oSstXsThgtIGNGsEvgx/REYZhpXT1oUzWg1aVA0OWdIP490vZ6eXpC95kbvlrz+Ej9ra/Zix669HReYN4KWhopMAQKuBwYJS7wMjux30pc8KfEvNUMhoFdDVaCIyq75Jid7GzBgke3olGF6p7rTWCzZFAlCmixhk+imxcd7VlR6lWY7fWlrjEZAaEjsDEfdGV1i4FTrEtG6429+SdHccsULqho321RrvdmNkt66xXOtpTY7Rh7ZjFQucokrPbnIZ7sTQK3cRr4xEVPgvSpAwrpheJ93lK+euKRovSxK0mTMnkhxCYR2mNpJkNarU3kLP4autq4kBgGNi6vmtmIPEN8c2VxfFNB5NKJoVQtlzKVutQodEQPkq8OxWiI0RH/q0ANO9uo8s6FgBIHtGIAwJKNIacjSMNQaTkaBKx0e2KSKITSXQwjw5GjXgCFSxncrv/s2z0Fzpq4OuO3mVn1sosNpj04d2zB+3VLwUsek3xnp96BiSIRve2f2fWKvp1EnQQUsBHFXjSyp+57+rXW+N/OVkcGN04L4YaeKkOGM2FVbugEZgTRzeAGiRoz9DNpKHPaBTdCJojReA5eJdqAyJqAy41pYltZpuD38RZ13XqHxTjho42F0qzvXar6/+c3i0dUejpEofDaq7uZp/QCx1RaKli0ITBrlYkVhv0dhuzgbP+MjtbbDVpdUU10sxquMjK5Xa7QetlatyiW4IqjcOsM7VxlbcL6J2GEAnM2wKb3WpprOfv8y4A1X+hXD+yoQsihVxtWnM+c1IIJTb7id2B/t70xacNoiP/ZgNvJt8jOHZE9DWiM0EGHRFBcptQx8bRiOgG6wJI3ihJ7IPn8ilhFZP3ZEUc7uWK79MRW246nce5Wi7Wm5FV99A93yEg3Zn36uMtn7K2vSvf01mGxN72btnWv98Jfg2h0dB9HuhMQ6uARm/eFw9K2H8+lDb3Uu28qIa5AFRcPegCI+vmhtfOuVDt3qSBSKjzPmoUUTM3sg4C0tzIOpBcF08v0zocWuWZeGrwdU7yUwIVwMoDkc1hNVXUdmxs0AitGGYzV/Sx31GfZ//u6GhRppxvd9CfsqNbjHKF+lZ2KxF96pmOgm+KaVabUu8AmXWXGWkSO2bTJV9pjWfbbGYLg6MqrBEn3ucl08wWm/lBAbBVWHCLd7WI1mEi5wY5NuXLmvV2KUdy6ip1fa6szehQSVTJmR31QpeZySyzGcNsJlNDszgyvbVP7aH6LNeQM9K+G9Uzfr06bWdiGZUztD8ddLY+KIDoCNGRvypARiNYa8Rke6w1ItCIzVEwWM6WRzyByktQ6b6bQKTh8gcragRP58t0JNVaLhXzI+/zZTrkh9aHB+5A7Wo1aJpun7+7enxq4Ni81R/d3/TZ/c1/z1s9LjVwbNbKj6gppy061GR9oMRG4/icAhiG5Va2fb8j4fsdiTPOlgZ1601EmHfPDa8Jiupm0hBWTXg2eJNQFxRDnRtZB4JF4TUBl2rnXqoLjKoPusxMFZhNVhwbQC5Z66nH0tul/EsFnNO57NO5nKtMi92iS89n4y9J/82kuTenHqhpenc6orQlcm1WjfJcIjWI0hrebDLbrW2NvG24B3fPdLT7qcGkVGRzgKN3aBx1caa0SSA7GkddcJOxr6NB7cYilcRqbShnACKi0JK4NofD1lbL7t6UacF1dgrNIFHpCh4wcI87wE4rs2UsC4aZdddvEijVcviximXEs7QxzKgz0Xjq1JwOfBoooYZ8nI1JjRsjciaFUDaGZQnkGp/7XaELIikwFHRU+FQ6ZVPJtkv1hxKa0DL0CuyKapiyqWTjxbqhP/XgnfFgfOOvUTV7LtXsjaw5ENtwILbh1+ha8DKqZl9M7T5K3d5I8Nav0bUH46nwrT2XavZT6g7GNRIvD8T2/p08GE89ENtwMJ56MJ5Kvh2wPa6BvGXA1zecr52yqYTO15F+sMO/qjXZrpSJzuZzOXKUKj3MH4fDZuWVZVVFhJSeWFx6fFFVeAi35I7diizUh/lzQacfGgWEcu3a8xmTQigzjmaSY0cEGs252KNJg3dRIyIWAV28YWZdQHRTCtfEaOJfxxsBdTdzc5tZRww1uCvd6GhbiVZtNd/P76ALCi2eZbFhmJInPpRA7YmO4pj5CmtdCS2uSzdYgmHAyopMSZvRRqtmQeTb8lCjcmBGmfz8dbJZX1NIFj+jVdPEU+eUsDZ264y0t1Kvt5uL7pIPoQZdYcTWaVh6h04ij0lr8esI0nwKdV9y+fc7EqbvTswub0XedEPziHiWswwFHeWUi6ZsKgk6WLno2BO0DL0CwYerpmwqmXtg5Oi/8Ghl8MHHwfsfB+8vXXCkYsGRivnw5YHH8w+VzT9UFry/NHj/4/kHHy88WhV88PG8/WBZcLh80bEn4Nj9pfP2P154uKLXz2LhkUowOD7m/ENlC48MqYYB+yumbCpp4fqK/5vF5kivkR3LZlMF+md56KBjkQJIAaTAgChgdzhuFNV/tz3hm20JM04WAbMEz32NXEwavIwadSeZwMvMmwxNVTljZUwzBXRrdWN17Tt0tCJLSjda68vwwA4RLUlkFyodGOZgPqUv8+zoveKeSiSRHoht9kRHS9PFVL215akTjRbcElFNmE2nie9w2QbqUdouVMqzK/nHUzrt8lbnCC5ngey+1QXSR/WCo9faThdztpFdFohLjW1Z5+cFSNuv1S85eWdSCOVIUrFKZxyQbz4aZLAVGAo6amBopmwqqWjAO4r6p+1b98QqP9oy8uqOuHxn59YO827Q2giWHvEEwNobdoMF1UEdtUawkZFIooO1SRyeVzl1fKHTp1sg0vAEqmfJxOvHF8Z3MuscDqy4RXkok1XGUKN/9BrshzIaHymAFOiTAlKV/sDlwkkhlJ/23ZhxpgTYMLjraxSEN3uFJg3eoBFeYlTb0d21I2CSwLrWJL/qLJLxdTpamy1tUhofPqAvJmCjY2VFnlLqwBStnJWe6IhCu8nV591tDoppjuPYuzt6r8qSUNWmyhLGUjjmFXaezG43GdKzOinIlS3jWjclgwDRugq9zWHnNnHXx7ZFtpnNZlNVFXsdiY5WpHPO3OwaSuq4ctcxfXj7snjq7oSHkzfFBh2+UdXC79O3Gu08vAogOvLXqhvvZ9sjj44kMgObqySjEfTyhsYMA4VGEpmBw1PyhWooNV+o5vBAd6MhW3yEjp6wtYezWPlUhQ0YF6E/SAGkAFLAFxV40sqff/QmcGs4mDb7QpXLHDowqsHpbud1Qt3cS6DWyJWOYqjBnZN4H6YjjuhClbqZr0xI9cAqFFoy11z9qHWpBzpaVSCvqmXhbnJu6Gj7fSVdrknNBjYMYIlnXONabWZDdo/VQesfaeqqgPX5yjKdzWEuzsb5J56ZKbFjmL3xcRvhFRF8jVciM9XXcbd75w/u8nH7wstfr9fMOXBt8ubYmKxKs8Xmi78ZdE2eFUB0NHST3SGbVbucaGTQkViqF4p15LZCQrGWzQVRIxrD6bIA15lsxbNHjaCGPIGaMOwWSXQwAOUi7+C9HHY6ahMbjuewbz2RmJz92T0/SNA7SAGkAFJguBWw2uxX79V+uy3+u+2XZ5y4FxjVAGfJfTbvBs7dgIvwrq/O9rLuJty+S0dWjTajiE44H7i7eGc0zEPdUdOxYt4uZ4FQczw5dpRApzRq6luER4iEt3jGNY7VarMLmYK9PXS/jWVmyWyNj0H504pSncVhyknvuIa7CqHd3lKO01Es7XI5b30MdWmmlGXFdFLFpRsdgTsfDhORFd6SVLf6fNakEMqacxkMAWqrMNzPhX6dH9ERoiM/UEAs1XN5oO8qT6AmAIkvVDNYcgZLzmQrICBBt242V8l6toQ6AniEYi2Hp+TyQU6dQKQh4kjEDoO6Mox0JFCZL9zjxZcI1Qb0L179erKig5ACSIFnUwDDMLvd4XA47HaHzWa320FbGIcXzWHESh1MtJu6K2nGqWJQiRRe7X1CXVAM1WlPF1ETGFUPMCmqnjz3Ja37Lh0Z2PzOJkI9QoUHOiIDSfNlLsisOw7COC1nK6VX73Yaggcnc7KEVqNGcz2z7UiFVqDS5RS6t/P+tVKvd1ju54B40YoSnZlER0GU1tOP+AdhO9c4Vh5degCAWdORepMVw4xC8Y7OeB35wnxuPSSpbt3F7EkhlICD13MqWh0o4eLZHgLDeDSiIz9gg2ecgvt77AiiEYPldOsmAEks1eO1QGq+UE2mI8hIbXR5/2qNCPqCsoskOqFYyxdqBq+vkafPd1joSGmwxj4SXCzkidTI+mwYn8zo1EiB51EBSEQWi81otBgMFp3OpDeY9QYzsaLXmy1Wm8Vis9sdPddA0vjynTF5X2yInro98afD92aff+plrVFHUyOnf/ecsOq5kZ7CR32moy3FKrZMGXl9MKf13TzrSDjn5ryLc5Uyu7X8nocEPEBWzVd4DrtGcapbktvaLPFTtU3Ok55Jdo688zwNaK4AACAASURBVJFGZrNxWgV74snnatpdopbYMIdBfQkPLq0o0ZrsnbGjLlcYz3kkUUVAUkoW1Jsxh7tTdzmkR/wbmj03XKnbGJE3KYQya39yRmmz1YZ6APr3EwzREaIjn1aAQCOCfxgsgD1khhGKtUy2gs4EcSRit36gkUii4wtBFyPy4J7QZQi2DzEdGS32lCrJiVwOTWLw76caunqkAFLADxWwWGwmk1WrNUE0MputZrPVYgEsBBez2WoygcVgsBiNFkhKMKbk9nYdDseTZu6a02mfr4n65dfrM8486l5ERJ46A8u78JqA8Bq8o1EDxKS5kfVzL/VCR+FF0nKW5mnXpUlld9gsNDZpO1svsWLt7ZhJoQi/RoaHAV2PYxWqsJ5jR+tvMw/doW1Jblkc27zvqcHssJYV9ERHSXzQ9PYsGXjiaeF1OonOWFLKXNUFTpoOVxuMGKZkCzo96OKYd/gWldZYVkKHxtyQjnI7MuvIn0JwioRuNRfnwOtpPlWrrSxn+LKd97or9ZsiC77cRPl5b9KtBw0WK0q4cPtz9LONiI58mg0GZAruv7EjAo3oTJA+R2TQdQckNleJOyhooCVdP9BIIjPgxnRqoVg79GEitx/0kNGRzY7lNsgPZ7GqOb7iHu5nz1F0uUgBpMAzKGC12iEXQSKyWu1WK0iqI6JDxIrD4YDIZDZbIUQBRgLNe9x4xmAYpteb1WpjZRN31dn0SSGUX/anzDj9wBMjgUKjyPq5kfWQkQIiajzt2TGb77ArSGg7ms/el9K6olt0pWPPAeWfLjTSbeQ4drGmFzranC1IbwKthKBsmM1w51a3cTrP0pwscDj0qoswnhPT/GuxrFZqbKAKj3WEjLrcZiwjU+rA7IZUz/VCi3MUEgemVeiquyLlU7aWrrVj7Zhdqwon6po6r6SHixyGt9Zcrt8SfW/yptjpuxOT79Uazag3+jM8BXzsUERHiI58VAEyGrE4Cjy9Tc3iOEuMXABJJNGJJMCzgclWwOqgvpp3wxIjMqUMewRpCOgIw7BSuvpQJutBq8r596SPPaHQ5SAFkAIjWAEMw4xGEAgyGi1EgMji2eDLZrMbDBaLFUSZiP21WpPZDHLtugsFU/Xa29sxDCtpYK86mzYphPLDnqszTxbOjfRUTQTm2dCwrud9gmKak3h2rUC8p1t70y60MMST+3jOIy2m96bu6DIjEbSFtXMaOKt7usiW60KHQSo7HkfdVSR9QFc/qhUc6zH2teyutEUsP+OkKbfc0nLokayUqanluC41bE15kyTSk9VeT9fp9kSDsnH95ZqQyIKvtsRN3XH5cm613mTp/t1DW/xaAURHPsoG5Gn6M677Y+yIQKM2OogaCcVaKAJf6BGQ4A4E0vAEqja6zMu+RhKZAbekU5FPJBBpnlH5Zzx8sOmoga87epedWSuz2NzMKvz6uYYuHimAFPBxBTD8j8FgMRhAKZHVagcFRVYAOZ5iQe3t7Xa7AybXAZqy2oBpgwPsbzRaTCar1dpLsQeGYfUM0d64gkkhlG+2Jcw6nhsQUR0U09hbjMjTDLtpVyaT3KVnOKGIwIY45uWnwlC3UR1in46V4OvsmAJ6b/4NTbszmRtwAlx9rbV76ySfuOuOOxrUi5kX3bA1sWIx3tr1pz1JsdlPNHpUoOvjT5p+Xp5P0xGz9mFydMTxY6eOn0tILmhhDmGrmWec1/rU4X5KR4TvHJ0pJ5vF9QpIUHy+UN1XA27oTccXAm86ngCk2A3v5zh4dMSWm07ncZPLxXpzL5OJfj5X0GFIAaQAUsCzAk40wq0XrFY7hmEOhwNGkGBoyG2mXHt7u9ls1RvMMNBk6yh8dzgcVqsd5tr1CkjwovhSzblbpd9ui58cQpl1JG3W+bJBnVWjwf1dgWVxdVtjH/y0J2lSCGXV2fT8Kpql4+vn+WuO3vFjBXyVjgQNV7ZOe/33o0cRf0b/45vT9t+oG+YJ6/BOl/t3dn+kI1gCBIuIaAx5/wCpr3JBEzxo4U3msb6OM1D7DwYdybSWS8X8qAd8mQ5lSPvxgxtdOlLArxXAMMyAZ9MRhNPe3m6zgeojvcEMs+YgQRG3CXnJ4QDu3hYrCBaRj4V81SdAam9vV2mNiXlPf9qdOGljzIwDKbNOFXm2p/MUPkLbR7ICgdGNGxOfrgvLnbwp9ustcceu3m/mSInvJFoZwQr4Jh1xbm6c8PvRo17494/nbjtzLiL6+O7ln//3P4we9cL//fpkEW/k58IN1PQajuNHdCSW6sVSPV+oYXGABwNPoPIekHzHTWGgPr6BpSOtyXalTHQ2n8uRm0bwEw3dGlIAKeDjCrhFI9jLCNozwIIiWFwEGxxBUiL+SzZsIG4WbvQekBwOh8FoMhhNZqstt7x1U/jdSSGUr7bEBYRmzjz3uL+5diMZFfw9/tOn658f07Dtctm8ozcnhVDmHLh29V6tSmckvmxoZcQr4It0xCs89MnvRo9+eeLGVLawI5uOkX/4i38ePeqF/w6KZQ3U7PM5Gcdf6Egs1bO5oOUrky1vo4N4EU+gFkl0DBZ42XMEic6UszgKFkcx7MVCA/ilGig6stgc6TWyY9lsqkA/4p9o6AaRAkgBX1YAoBGoNeoS+SEuGMMwi9WmVhvVGqNKbTCZrJCOXLpqEphEHAiLkaDTHTT+JkeWiN2IFTiC0Wg2GHBAMlusVptQro3LfjL7wLVJIZTpe67OPlkwB1QlIeB5nhSIrt8YX7H6Qs7XW+MnhVA2RWQ/qme5NfwgvktoZUQq4IN0pMjY9P5vRr3w73PiGzrQCJ9xcihB//XCqBf+PfBKc5ftKJTUiwJ+QUd4VpsaRoogGnH5KpFEB//rDSDhTWBliI7IzymHAytuUR7KZJUx1J7y+Mn7o3WkAFIAKTCoCuDdisw9VAcZDBaVyqBUGdQao8UKrLotVrvRaHXbRoZ4rFksgKlgi1iYoWc2u7f5hkEqk8lstVrB4BYr/KPVGiGJ2R2OymbegYTCr7bEgbjBkdRZp4sDLtUiTBrBCgRGN2yIr1oXnvfd9oRJIZT5R28m5D7lSFSD+ltAg/uyAr5HR8InB7/47ajRv592to0IHOF0pH16atrLo0b95r0dmSi5ri986Bd0JJEZODwlQUdMNogC0ZkggsTmKr2JINEYcu8d6lwiPMNuwOByPfDlM8aOnrC1h7NY+VSFzeGmE4gvP5XQtSEFkAIjUgG7HVgvuLWkg8Eci9Wm05mUOB3pdCbgXwe2mFVqo9FoIViILA5Rj0Sk2wEXO3wcT87gDgeGN1ayGI1ms9lCTt4jj6zWm249aICNkr6EmHSqKOBSzQiGhOft1gKjG9fFP1l/qWDazsRJIZSAg9ejMytpfLnbbxr5u4HWR7wCvkdH7NuL/+eFUWPeWX1b5jJlZKesfX3MqNF/CI5h9hItcTnwOX/pF3QEa41gBh0eBQJG3tC2rldAwi0cVH11qCO+FXyhms1VElbgxPZhX+k3HbWJDcdz2LeeSExWZNU94p/h6AaRAn6jgNlsNRgsVqvdZgPNXonrhpNRwm4BpsZBbwaIRhqNqedMOWIouAKbxur1Zk85URDGzGYASAaDqefZsFipu3m/Ye35jEkhlEkhlNmHb88+VYhbgT9PKWcjKMMwMLpxTdyTjZGF0INuxq9Xw+6UUVmSnr8GLt8x9HJkK+B7dNQUNf13o0a9+LddhUqX6Smv6MDHL44a9fIPp2qRc10f+ND36Ugk0XF4SphQB/0YugKSDAckRQ8RJJeviqeXIonO7Vuetrvdecg29oOOBCrz+Xu8+BKh2mAb2U8udHdIAaSAfylg7YjnWCwgQAQbFsFbwDDMZrNDa284Q8Vz3sBuKrWxVzQigxahic1mh3EqYovbFbsdcJqX02KpSp/6kLoxLOvLTQCTZh26NffUvVkXKpCFg18EneZH1WyIfbzqQg6MFP24+8rplEc1NKGdBOpuvyRo43OogM/RkfDJua9fHjXqpUn7H6pdpqH80uNfvDRq1EtfHyl3fctlT/SSrIAv0xF0qINpdUyWnMsH/VjZXGBY5wQkFsisa6PLaAw5mwsAiXCxY7Dk3lcZwWavMGGPLI4vr/eJjpQGK+WR4GIhT6RGzemewyc5umWkgE8rgGEgmQ02bDWZrBqNUas1QW8Gh8Nht4OGRWTIIRLqIBpBLzud3myxgA6wxK1iGAZMwPXABNwlTAT7xmq1JvL+xIHPuKLQGjNKm7deyvkar02aujMx6ETWrDMPUN6dr2HS3Kj6NbGV6yML5x5KgaG/xSduX0qveNLKt9k7v0jP+H1Ah488BXyVjl78/Nf7rrEjfkkoTkffHqtCsaOREDsSSXTQaE4o1oqleoFIA+GHxgAGdJ2AxFbggARs61icTkCiM+UcnlcZcZDBeAKVQKTxI0Dyko4MFntKleRELocuQX6jI+8Rje4IKTASFHA4HFqtCSbL6fVmrdYE6QjGbWAvVyKA43A48KiRAUcjh8Vi0wALOyOsRzKZgJsCFMVisWm1JpXaYDA4y4fa29vtdoBb7e3tVqsd9pYdPAWNZmsZlXv+dmnQ4Rtw8j3jwI2gU7kzz5TMjar3NVR4Tq4nMLpxSfTTjTEPl57O+ArH1x/3XDmUWJRb2SZTI+PWwfs1jKiRfY6OJNRLP/xu1KjfTNiW60pHvHv7Jr44atTvfjlH7QMb+HJwYGiuzTdjRxCN6EwQLyJqfnBTbxA1wiNFSjIgwdS7NjoAJGDYwAA231y+V1FEnkDFZAOsksgMEJCgV/jQ6N/vs/RKRzY7ltMgP5zFquZoR9RjCd0MUgApMLIUgKACK44MBoteb9bpQCkRzKmDBgzEHQMDOg1MqANopNY4uQjSkUptgDVIdrsDVCWpDFqtyWzuRCar1ZmkZ7MBOjKZhqjzNV+myXzcvD+h8MfdVyaFUCZvip1z+Pa8MwUzzj5CMaXBBrPAqIbFUVVrox+uPJ8Dq4kmb47dEJaVVFDbypW5OMIT3zS0ghTwpIDv0RE7ZcF/vjDqhbFLrkldppXslLWvjRn1wiurk9mIjvqggK/REdHvFRYaucR/IDXBt9jcTkBicRQEIDHZIN2Ow/MKjSQyA0+g4vJVbK4CYhi0YfBNnzryd74HOsIwrJSmPpTJetCqcnT8M6qnHznajhRACiAFhlcBkP9mcBp5w1Q6sxnkwkH7BHI4qL293Waza7Umm82JRiqVQaczwRoklcqgUhvMZgA8RqPT+9titcHEPOi1AAbFS4ng4EZjZ1hpaERwOLA2nux6Ud3WyJzvd1yGMaXpe67OO5EZeKZw5rnHKKz07LAUGN0YHPl0TczjNeEF847dnrI5FhLp0pOp526VljSwDSbL0Hzc6CwjUgHfoyNB6S4QIfrt5KO1/C6+1erHR78GZUeTTz0W9oENyNPN53Pdp+gItnxlsBR0JggQMdkKLh/YzfEEoLsR/ICEYi2Lo4DtX8k1SCwO2Blu76tDHd5PSQXNwUUSHXEuX/5KeKKjBr7u6F12Zq3MYkNp0yPysYxuCikw0hQwGkEMx6U0CMIMrBoi3zDEG9jCSKkyQKyCyITTkdEMmhXZNXhMCZKVxWIjh48gd8FiJ5fAFPlEQ7DucGBssSq3su3srdIVp9PgJP7LEMqM/TeCT2UHnL0/+2JlYHTDs9PC8zBCwKXaFdEVayPvLzmdMRX34AYWggeu7Yu/d72oro4hMuLYPAQfKzrFiFfA9+hIJkle9tqYUaP/eVpYpZhEQcLa0G/+z+jRL07cVcLrQk2kfdB2dwr4Dh2JpXouXwW5iM1V8oUaGNXpAJ5OQMLz3wA+MXBXBiLFjs1V4od4GzUiw49YqufwlLC9LHm7z653pyO23HQ6j5NcLtab7SP+2YRuECmAFBgZCsA6IpPJ6mKQ4HA4bDa7Tm82W1w9Nm02u0ZjUnWgUXt7u8WKlxjhsSOL1Wax2JR4Th1sLGuz2SEdQeKCbWHhUeSSpGHX02K1NbEltx82HkkqDj7q9An4akvcnMO355/OmXeueObZkjnhT5EJXmB0Y8ClmkWXKlZFlawOK1h0Mv3nvVdhFO677Qkbw7KiMisf1rFQHdGwf6VH6gX4IB0ZGKkh74wZNfo3f1kQR+0AIdmji4GAmf51+klkWOcOgXqY4vsUHREtjHgCtVCshbEgaE9HZ8rJESRYIATjS0SKHY0h5ws1Pdxsz28JxVrvbe56HmoI3iXTkVRriSjmRz3gy3RDlEM/Uh956L6QAkiBIVYAwzC9wUyO7cALALbdVptabezethWa0ZlMVlhiZLHa9XqzUmVQqQyQsnT4S4PBmT0FKYvw5oZ0BMfXG8x96pU0lOJoDeaqFv6V/JrdlPygIzegUfikEMqUzXEguHQic/7ZgoCzD2adL58bWTuCo0OAhSKeLo0qXx35YOXFvPmhqURG4qQQypwD17ZeyrmYWpZV1sIQKJAB91B+RZ/bc/kiHUnEzZQF77w4etTol/57wk9LV61dFzz1g38bM3r0mP+eeqKc3Uc2GIJZrI+fwkfoSCzV47baagg8RNSIwQIxIreAxBdq4LtM3LYOLz3qPWokkuj4Qo0fxYg8fX8gHTFFhitlorP5XI7c9Nw+p9CNIwWQAv6rAIZhBoMFFguR7wI2NXJLR+TdLFabXg/cFyAatbe3Yxim1Zo0GiMMHEF7OmjeTbRLgkEkK45VxG7kYX1w3Wqzs8WqR/Ws5Hu1x689WHs+Axo8wJjJ1J2JAUduLzidvfDcveDz92efK5l1oSIgotpfEvPwcFBtQFjlooiyFZcerYwoWn4+d9HJ9IBDKdBZDsfC2IWht36NK6DcrSp4QmvlylCynA9+UZ+HS/JJOpIZJOwnlE0/vvOHMaNH4X9Gj/mXt6etvVRGQ2jUdwV8gY6g1wIsMWJzlSwOMOmGmASjSS6ARLjY8QRqBksOu8F6GfYRiDR4IZMa2n97Yg/f357+iD/9yJP96UyqAJmQPg9PY3SPSAE3CjjsNp2IqaDVKJn1BimfMLN2s6uvbrLbgZ2329iR2Qx6H3UHJ+JWIBoRXt5wO553Z9RojESqHuiPpAcxIrgFGj9AaiLcIIgx/WtFrTM1MMV3y1siMyp2U/IXHLs5tcPpAVLTpBDK1J2Jsw6mzAtNWwjYqWD++fsB5x7NOl8+O6xqTkT13MjawKiGwcvWC4xuDIxqCLhUMyfsyawLFUFhZQvCHy+JKFkR8WBl2L2lZ+8Gh6b+si8Z1lwR1/zDrsTFJ25vi8o5cf3h1Xu1j+pZHIkK9SDyry/nCL5aX6UjyAAs+sO8/NS0/NySNkbfqcD3p79Dc4XDTkcQjWgMYN5NrBNohBcXOU0aYASJwZJD1wSRRAfdFJhshZc2DHgzWeAFzxOouXwVi6PgC9UEaw2N4AN1lot3WVP3VUiUqLvrCH4Co1tDCnhUwKyRN6dezFr+QWrgWGIp3Pk9q+i63eJPkWSHw6HXe8iss4DMOiJBzkULcKChS9QI7mCz2dVqo95gJljRaLTodKDxKxE7gnv6V+zI5fZ7eGk0W/kyTT1DVFzDvP2gMTqz8tjV+1sv5Sw+cfvHPcBPvPsyeVPsd9svT9+TNGP/9YDDt4KOpc4/kbHwVNbiszlLzucvvVCw9HzB0gv5S8/DJW/peXw5l7f0fO7Sc7lLnEvOkrPZi05lBofeCTh885d916buTHTBHuLUkzfFztqfvOps+q/x9y6kPr5WWFfwhFZLE/KlGlO3SrMebha9hRQYegV8m44QEQ2EAsNIR2KpHhrQtdGBvwJPAFzjIAIx2QrCmI7JAu+20WUwgkRjyGH8B4ci0A2pT+7bApEG93sAUIQbfyv7dPhAsc2zj0OuOxr6RwM6I1IAKTCMCjTdPHNn3qupgWMzg1/NW/h6wSKw5C587e7Sv4KNy94TPr03jJfX11PDvkMEzMC0NwzDrFa7EjfsdrGzg+MTdOTSs8hud6g1nUwFd4OhJJdTWCwgK89fMuv6qqqn/a02u0Spa2JLq1r4D+tY+VW09NKm60V1CblPL6VXnEkpOZp0f29cwdZLOWvPZyw5cTvw0I05B64FHLwecPB64KEbQYdvBB25Me9IyvyjN+cfu7ng2M1FobcWHb+9+MTtJSdurzidtikie29cQWjygwupj2Ozn1wrrMsobS58Si+jcusZIrpAIVJotQYzKhDy9AGh7b6vAKKjkW95N1x0RJh3Q+aB5t1MNigx6o5GMJQEvenYXOAsB63tvAwZuaCIQKRhc5UQk/w0cCSRGRAd+f4DFF0hUmAwFGhIOpIaODYr+NXCxW8UL33TZbm3+PWcVR/dCX7dXwAJ1h0ZjRbojgCt6mCHIsKn22J1ta2DwlosNmgFbreD9kfQuVunN5MjTharTaU2Go0WCF3t7e3Q0Rt41llseoPZLXoNxgeHxkQKIAVGhgKIjhAdDYoCEI3oTDmdIYd9irh80JKVnFBHZ8ph1IjY2EYHOzPZzkQ7Ll/lgj1uX0K/B/JbIomOy1dxeMA0nLzdv9YRHY2Mhyy6C6RAnxRovHY8NXDs3fmvFi1xg0aQlIqWvJG7evyd4NfFdQ/6NPhw7Wyx2IxGYMxgNltNJrAQZUgGA2jqqtEYuzvLwYZFRqNFowEeDGq1UaU2Auc6NVi0WhOGYXY7SNtT4cZ3MHAE6QvDMIfDAbrQ6jsT8Ibr9tF5kQJIAf9SANHRoLCBT83ChyV2JBRrGSxFGx0YKgjFWogrBAXBBkee0Aim3rG5Ci9lhPZ3LjuLpXr/jRrBe0F05F8PU3S1SIFnV8CsVaYGvZIV3BMadQLSuk8Ktn5F5JI9+9kHbwTgmqAzwUCQwWDRG8zQrdvhcFisNkg+5MZEDocDlhJBPwZoWAe5SKs16XQmvcFssdpgmyO1xqjTgwARjBGRI0hGowXGlAbv1tDISAGkwMhTANERoqNBUQC6L7TRZdBQwZuoEZurZHMBUMGFy+/dvFsiM4gkOtg3yU+Li1ygjvwS0dHIe+CiO0IK9KxAXdye1MCxbhPqXPLripe+WbR2XGrgWGnj457H9IV3HQ4HNPUmAkcWqw2aKMBesUo8fASRCeclk0ptVKkMkI40GkBEZrPVYrURvYw6yMqk1oC0OuItiEmw2RFAMg85e74gC7oGpABSwDcVQHQ0KGxAnuMO+/qwxI4kMgO0jCMS6mDgyFPUCEcjJaw1aqPLObzec+rEUj20CJfIDAKRBtGRbz5i0FUhBZACXiqAOewZi97ODH61Owi53VK05I27Kz8qP7vSy/GHdze9wQwCPhYQ8CHqgmCcB7gs4Cyk1Zr0Bgtch/Einc4EC5YI8254F3a7A7qBq4CpA/DyttnsRGYdHNZsthoMFlR0NLyfOzo7UsAfFUB0hOhosBQQS/UQWuhMZzgIJtox2cChjsiya6PLyWjE5au85ByhWMvhKYnYFJcP3O2GnUUH8AJQ7MgfH6nompEC/VZAL+GkBo7NW/i6WxZyu/H+zu8yl73X7zMO5YE2mx2Gj1xSAWGBkMVqgylzMGQE/qs2mM3W7nZzMCik15vVGhBc0mhMEI0gBRHJddDL22i0DuU9onMhBZACI0OBoaCjWrp6yqaSkhoJT6hDy9Ar8IQqm7KpJKuEP/Sn5gl1bJ6axpRTW6TE0twG1ltpsla6jNoipTHkNKYcbqSzFH29SA5fw2QraUx5G0PO5Kj6ergv75/+kD9lU4lI7k+NTUbGYxHdBVJgWBSQtVSlBo7NX+SGjgoWvX7PnX9d8bYpqYFjMYdjWC64Tyd1ODC9wWw0ugnmQHMFk8kK0UitMer1Zr0e1CZZrSDQBPnHZrMDlwWDGS9A6kQjouIINoGFqXcwcORwYH26SLQzUgApgBRob28fCjpKfyT8/+kILc+VApNDHk7e+ADe8uSND79cX/zl2qLOZV3Rl+vxl+uLwVvrisCyofhZJPpyw/0vO874LOP42rFUlgY9qpACSIHnQQF6bnxq4NjsBa+5hImKlrwBu8G6bC9e+mbGordTA8c6bBa/0Ad2cTWbreRsNxgdwjBMpwfYA626oU8DfKlWA7c6uMB0OxW+m1brjBoRCXWE6x2MUxlwj2+/UAZdJFIAKeBTCgwFHZU2yKdsKgm7RbtewEHL0CsQlUafsqnkZHLL4J36ag7jai6TGD85j3XlLi0ho/VKNh1uTM5lJt6lxaW1wiU+vS0urfVyZtvlzLb49Nb4tNYrd739elzLZxMncllJyqEn57FcNvrvy+NJLVM2lXDEBp96ZKCLQQogBQZJAWn9w9TAsWlBY10oqHDVe6mBY+8Eum4vXvompCaHzT/yx2D7V1h9BOuIYP6b3mBub2/XG0CynMEAXOZ0OhP0YwBhom6LXg9iUOSEuvb2dhg4gmEoo9GKN4dFgaNB+qqiYZECI1yBoaCjBoZmyqaSigbZAJZkoKG8V2BQXRmIvkZsjkIgAs2FCPNu3FxBSVwnLBOCnWGJvkYd9nS9ezBIZAahWMsTqHkC0MiIGJa8whOoRBIdeYtfr6O6oxH+9EW3hxToqoCc+hjSTvaC14hmRwWL38iYD2JHWd3cGoiYkr/QEc4wmNUKEuSsVmCiABvFQkMFq9Wu0wN/BUg4MDVOqzWRF+BNZwFmd1YrsGEgqoygzQOGYbjHt02jNZHDU11lRq+QAkgBpEAvCiA6GixPAt+Zlw8qHfEEatjXCJgrcBQ8gRqad0P+cRGBACQ2V8niOM27GSy5l0jDF2oEIo1YqufwgPe3y+B8oYYn8OPery63I5EZEB318vRCbyMFRpYCkI7yl76FR5BeyQx+9e7id0Cu3fxX04Jf605HxRs+8a/YEfy4YJNWaN5NdmiAwR+4DwQnuAV2d3V0/IEuDnCH9vZ2uALpCDeys+l0oPcReeSR9TVBd4MUQAoMugKIjhAdPZMCYqmeyQYtX2EUiMkGZnRu0QjO/oVirUCkKdj2VQAAIABJREFUYXOBeTc8xBvzbhg44vI7Q0wcnpIvHFEshOho0J926ARIAd9WANIRa+tfGVv++mj5GwWLXi9a8nrD+relu9/LWvy2Cx3dW/xG5gI/y6wj5LfbHbDxkc1md7HqJvYhyMcFh4gdYIiJCB/BqJEebwuL0IhQCa0gBZAC/VAA0dEzsUH3Ga0PbhnU2BFMpSOgCAIPgyXvQQeeQA37GjFYXvU1gkOJJDomW0GYffMEKpjI18OJ/P0tFDvqxxMNHYIU8F8FIB2xt/5Vsfd9l8WFju4tfiNr0Z+zgl95snMS7srgH3VH5I8GNiwymZwNXom3YKSoB7whgkWEkV17ezvELRQ1ImREK0gBpMCzKIDoCNHRACggEGmIWBBMsesBXbh8FYMlJweCvMQYvlDDZMthDyWBSONlPp6Xg/vgboiOnuXRho5FCvidAt7QUdGSN3IXvZG58M2s4Fd4299tOjTVT+kI+ihYLDbYBIkoE7LbQU0RrCCCkSVo2A1DTET2XUeeHfi/1WqHNgwooc7vvvPogpECvqkAoqMBYAMfnFiTL2kIYkdErVEbXQbDR4RJA/lK4DrsEtt9e69bxFI9X6hmc0FOXQ/01es4/rIDoiPffGj61FVZ9GpBZS6r6Bo9LwEt/q5A5YW1qYFjS1e8Ub/+bZfF6daw5O204NdSA8cWL3mdt/1dxd73/ZqOoEmDxWLTaIzAbsFqg5YMDgeoGoIGd3DdYrUR+AS3QDqyWu2EeQNCI596NKGLQQr4tQKIjhAdPZMCZIc6JltOrkHqAZC85BOxVN99T7cbu+82ArYgOvLrZ+tgX7ya3fQ0ensa7mYGp87ovyNegazgV8tXvgm5CKbe+TsdweIim82u05kMBovBACzpYAdYSDsQk4jSI5hEZ7PZLVabyWTF7b+tuIsdMu8e7EcOGh8p8BwpgOjomdjAL6bgAxU7Ekv1XL6awwMFPxBRyGjE4gATObw6qNOkod+AJJLocPNuNV+o9guRB+MiER09R0/ivtwqhmENyaGpgWMzgl+rWv1n3vZ3pbvfk+9BywhXwKUSacTQEfzuwwQ5vd5sMFj0ejP0bDCbAflYrPhisZnNVrPZajQ6GyKBd/EcvL78etC+SAGkAFKgdwV8n45EZZk346/klTJGPsYMxgxbIjMMCB0RfY1oDOBKx+YCgwSxVA/LjSAawesfEEDiC9UCEUif4/JVzy0gITrq/QH2/O1BoNGT1X+W7X7P7YwZbXx+FBgBsSOXHzFuPQcQyElKBjMMK+n1HSsGM85Fth6cG1zGRC+RAkgBpECfFPBpOuI8zdg/+/1/GT1q1Ji/rE1FzWT7yYfPTkcwakRnOjsUAd8FrrMfK7DnxqNGZLR7dkDi8kFfV7yFkYonAMvzk1BHKInoqE/Psudk55a0sNTAsU/XvOUWAOR73uNuf5e97a/iXf/rdge0cYQpMPLoCP6QiYQ6wpLBbnfAqqTn5JeObhMpgBQYRgV8lY7ErOyzqz75jzGj8T+jxvxlDaIj2bDREWw3xOEpmSwYOFKKJDo2V0n4axMTemLFFZC4ij5ZzEHnBr4QpPBx+SqeQN3DuYiTjrAVREfD+GT0zVNbjbr0hW89XvGm2yk+dcM72YucDXDuBL1SuuJN0U7ESK7W2G6l89+NI5WOfPMHiK4KKYAUeE4U8Ek6ErfFLnr75dGj/+kvM7bHnA38rxcQHT3LvP/ZY0cE2AjFWqFYK5LoWBwFnQnqi3rwjiMBkszLlq/k24RFTc9DXyPyXZPXER09J09h72+TkZ+YGjiWXJRPTOtr174FKpHmvZK38PX8Ra9nz3/1TtCrOQtfR4BESDQiVxAdef/zQXsiBZACSAEvFfBJOhI+OTxtws87rz1kGCTsm4v+hOion1EjONXuNx0RcRsOT8kTqOBoBBq10UEcyRtA4vJ7d1YQS/UuuXO4f7cG0ZFEafbyx4x2G/EKFGyaVLz0je6zfP6Od1MDx2bNf7VoyRvFS9+ES8Hi1+8EAYuz7vujLSNGAURHI/5Xj24QKYAUGHoFfJKOyClkiI7IavRrvX901GHDAGJEbXQZLASSyAw8gRrm18HWRr0CkgvzkGMjApGGxwfQJZbqeQIVX6ghvwu3u2x5rl6i2NHQPxB9+YwOmyU1cGz9+re7z+yrVv/5TtAr/x97bwIdR3nm/frocJib5JvJN0vuvXO/uWfGIQmZLF8kWzYJ4zDENkkGBm5CgBATlrAFEgi2AWuxhRdsbDCGsGODwdhgGxu8rxivki3Lu7zJWrq7uqqr9622rr36nrfeVqnU3ZJaW6u79ej0gerqqrfe+qvr1fvz8z7/x45GGJB23nfNlt9/MwjmDXUlu74O6KiQn1noGygAChSpAkBHgwrLFMVkfWB0RPuYThuGEEFGCRKFj3DyD+mJ4T3tjnAuEaSsKlkL5ygPclwgSJTLlPXIUbsT6KhIR9Vh6nYi4ts0bezZJ7L4MRx55Dvbfv9NK2pkbex5AFUOJWehsqHwKkkFgI6G6XGDZkEBUGA0KwB0BHSUXQGKjuOoEQYhJxExjbxTTgz+IO/1s24qmglImWvkesEbFD6iY6Qnhhfvebxxf5AHTMKKAR2N5qE58945n3PTtLEHH/p25iz/0MPfzkpHO+69ZtO0sY5nfph5CuwpDQWAjjKfFNgDCoACoMAgFQA6ys4GvUzoi+6jAcSOPF7G5Y60daSiRhiN2jpQpMhuVZcJSBQdcxBhK0kpF60wIDmJCMYwjEkASIGQAHQ0yNGtxE5PRP0ouejeb2ZO63uio62//yaKHVVB7KhkQ2dARyX2mMPtgAKgQCEoAHQEdJSuQCcahV1uRCwYjXDV194BCX/a1hGi6L5tGOzghIommSv3cEiql1Ql+1klvw10VAhDZOH0QYwGNk0bu2na2Mw8oqx0dOCh7+Djs3rcZSIW7ClGBYCOCucJhZ6AAqBAySgAdJTOBqU3584xdoQ94khPzIwaIT86JxHBaIQxqRN+skSQSE/MWmI3APPuQEjweONm1AitrCu9X8HA7gjoqGTG2SG5EYuOLj6VbsyQlY72mklHPTmAFyMJQJ8zFQA6GpKHCxoBBUABUMCuANAR0BFSoNOhDjl0WxSE845MNIq0daCPMALhA9xU1CIZX4DzeHH8J6eokXWihQ2YzXqpnmQdOXo2gI7sQxVsW3S07fffdHc3Wsikoy8f/M6We78NsaNMnCixPUBHMDKAAqAAKDDkCgAdAR0hBUhPzOIia6OtAy+uS6ERSg1CyUhd+DQAmPEFOIqOE2Q0E3IykSnzmFG1B+hoyMe7om4Q01Hzk9/bff81aYCURkcYjXbd/60LT30PYkclhkNptzMkdGQYRlE/GtB5UAAUAAWGVgGgI6AjpIDlUIcjRThGZI8aYdeEdkfY4UrFl9odYYqO+wJcvxiJouMeL4NjTb4AB0TUC+8BHQ3tYFfsrWE6ujLj+96aH+2+/5ot94xtevy7nmrkuGDR0ZcPfmfn/d/a8vtv7br/W3T1j9qf/gHQURpOlNjbwdORruuiKCuKWuwPCPQfFAAFQIGhUgDoaFTTEYYTXHrIcqhzuFB0KCsaOYkwQeL6sCgriaLj7Y6wm8oSCMo66TervqLAEX653JF+kVXWNkt4J9DRUA1zpdGORUeRugpfzY+OP3btlnuQScP+B1FRo03Txm5/4Lubpo3dcs83Gx+71lvzo0hdBdBRibFQ5u0Mko50Xed5MR4XOE7UNK00nhS4C1AAFAAFBqlAYdIR/dmcu37xi/+66ef/ddNNP/nmV8vGlP3Pb//kl+jtL259+M3TnlDpI80QTvp7cmXwB3lcaIj2MW4q6qYQtGAbBmzJgHONrKiRiUZRnH3kdCEowmvw3FROuUb4jmgf4/GiGkc4YNVfd7shlKXwmwI6GuToVmKn2+kIz5IDs8vP/+V7Bx/69q77rtl53zUHH/p285P/7q9FXIRfQEeWFKW6MRg6stAoFhPicQHCRyU2YsDtgAKgwIAVKEg68ne8cfs3ysZk+yn7SvnMfW6go/4okJWOLBsGjEAUHTPjOajkq5VZ1OFEASKCRCVfu6ERMUA0soAEr8ejfQzEjixNMjfe2Om645Wz7x+mj7bHyYio6pAbMOCBrhROzKSjPmf8QEd9SlTsBwyYjuxoFIsJsZjAsgkApFIYKeAeQAFQYNAKFCQd9WfqnzmnhD1pCmSlIxwv6nCiJCI3FcUu3qQnRnpiFh1hKBo8Gnn9bFqXcATJ4+1H0CmthdHwFsWOnm447WQOt8Y+bvS9tMe9eBfxzkHPzubwBQ8XT0CewKDHv6JqAOio2ElmOPo/MDqy0MhcU5dgGERHAEhFNR5AZ0EBUGAYFQA6Kv1Feml05A/yVsSG9jEUHcdo1NYRbneGvX7WDkhtHciGAecaYUzq14I67L5AemIAQgPAucyVdYZhxAS1meK2N4fePuhZsotYusf9yXF/fVuMCIuqBsGlYRwrR7xpoKPhoItib3MAdGShUSwuCIKo67okyXZAkiRZUSAHacSfeOgAKAAKjJgCQEeji47Qgjo3qveKE358AY4go1awqMMZpuiYL8C5qW47Oxy4OGy/F9R5vAzmIvCmGxI6yhwnVM1wh8X6ttgnx/1L97iX7CLeOkBtbw41U1xUUMCoN1Ox4t0DdFTsJDMc/e8vHXWhUUyw6KgbIMVxEEkEQCresQJ6DgqAAoNUAOhoFNERRqMOJzKdw74IgZBAkBGHzWLBjBQhh4a0CJJzQLlGbipqX1ZnxawGgAqj8JTM2FEuT3s8oV7wcDvPh98xg0sv7XGvafQdbo25QglZ1XNpAY4pTAWAjoaDLoq9zX7RkWEYoijH44iL8FK6eFwQRUk3fyTJ/MhcYheLC4mEVJgPAvQKFAAFQIHhVgDoaPTQEU24YxiNCDLqC3AWb3j9rGnSgNwXcByp3RGmfYwFSANDI1xkFlc3CoQEM9cIEo368X0bGB2lDRmqbpAR8Wh7fF2T/+W9KHPpzf3U1rOhs242wkNwKU2tgn5b1HQU3b5HPrOCffPGQdDI9fEtb3PvTOm7hfk3R5dU9njYgkk9fjT317E3Jvf4aacTYEEdkDsd4bpGqqoKgohfGJAYRpBlNBTIsoL3dOYggYtdQQ8I0DlQABQYPgWAjvoxW7Vworg2mlsjNz3dsO2wOysaWfeCixdZdORyR/ASuwGbdwdCgtfPEmSEomNuKkrRcYgdWWrnsjEkdJQ5drCiepHmd10ILz+MMpde3O1efcx38ErUEYTgUqZaBbSnuOlozzkjqentb8TnpdzG+2aMj9ZI5z9i37KA6gbuQsRQfdLm23s8d95tzJa1sp/RfZvZpVkB6XqmsVWjjyS2/jGaSTuLlsp8WD3/HvNK1nP76vncW5k12ZpNXagytn4xO7CWM7vauSdHOtJ1XRBQXSOeT+AFt6qqclzCAiRRlBgmEYsja28UXAKThgJ69KEroAAokG8FgI5GAR1dCU+dfnjzfleHM5wWNQqEBCsjyAwfRbDBN/4vXmXnJFLlX/tV18ia/Xv9LPZ+sC+xsz6FjV4UGCY6ShtjNN3wRKXGjvj6E/5lZnDp9S+pLWeDZ9xsiIPgUppaI/m2uOlo5ylDD0uf3tAj2HRO97sOWLNT0xXt4kuxuRhLbmCbQ0ZkGzPfRimLFiQufsKtfY7fv1FqvaSxcT3mVt2n5ItfJDbd09VUV+OTuVbOMFTtTE0WOlr4vMRrOrEyvtB2ia5ze9pZGVv3Fv/B5Mi8BxK+hEadkFsbU6+2Jrmtc7u1WZMMI7qPe3lA6NVDN3KhIwuNWDYhSbL1JVYUhWUREVkhI5ZNJBKSSUoASJZOsAEKgAKjTgGgoxKnI3+Qb2r2TX7y4Ob9zkw0on0MQUYtQzmKjlF03ONlcJlXy62hrSM8MDTqZeoPH/WpQH7oKHPM40TtspffczGy4jBtBpeIVUe9B1qiHYGEqEDmUqZgedpT3HS0/US/6eijrZoWlD79E7dtehQB0iT2rN8Ib0F0tPhFybWHXzE5smipLGnalQ+5Dc8yb91mHtYTw5j75z8hhjRDPMVnjeEsrJNYVTs9KxtWdTa7fJFQvzZhfzUeUeWkwZ0SVtyfoBXtjHX6DdyluNG2LIVh8x5NBBSt6YneGu8BgXo5pU86yopGsqyoqmoYhqIoVqQohnKQZMMwupk0mHWQVBXqB+TpMYfLgAKgQCEoAHRUynSEbRiOnqYnP3lg22GXPdcIJwLhuJCTiNgDO74AZ3p8h6xVdoBGfZLMcBwwUnSUNjDpukHHpOMOZsPJwCtfkEt2Ea/tIzedDp4i2CCL5lJpx8PbYVJgJOhoSnztEn5rbXxJJxv0f/qemtlvO94jHc37RXRxtvY/2IToaP0vmVMdavOLsXmTmNPeFB1t2K/rota8KPbCC7KgqEfu74Ufun30ygpF1fXWpVkCR3UVkYVzJKYvOpp3J7vnPX7zc+yaZ/nLISN2kF89nfloOvPRU8yb9wtU73Qkq/U5dzU3qXunIwuNsD0d/maKohSLo9qvqvnTRUcmCOEn2g5ILJvQNPhnkWF6rKFZUAAUKEQF8kFHR5pDU2c2LF3b+v52J7zyqcA7n7e+uaFl8YcXfvbEgefeb7ZfevmWtrc2trzx6eU3P7389mct721z2D99d3PrG5+2vLH+8psbLi/f3Gb/CLbzpsC8Dy5Nndng8vGFNnLwktbi47+4FHm/HgWXluwiPmzwfnk52uYXILg0fL+sfNPRm/MTDj+C336siLuJazokrL87smBS2iu6vcnQI9LGm9L2RxbcxDQ69MhR4YNfdMOYuorI+xtVNSitmxR5431FTqj1T7CnMB1NZs+HUilMCxdIfD/oKLq5Xtc5efsvu671crVw9NX4AhPPcqGjLmiZxKT6Y6HdrwSygOjIMAyca4QWznWWNsJoZKUV4ewjlHGErepiKDEJf4cxIJkQBbWPhu+xhpZBAVCgEBXIBx1tbfBOndnwi2cafvnsUXjlR4H/mnX0lzOP/Hz6oZueOjj1LwcnP3Fg6l8O/HzmYXz1Xzx95KbpB296ynxNP5j5q/nFMw0/n4E+/a+njwyswz+feSiz2YE1NWrP+vkzDVNnNlxyMYU4ctj6pBuGLy43OZnPTgVe/YJcvIt4dR/5+engCRfjZ2Qdgks2rQazmT86mnsbs/+IKuqG+dMfOprMd8iGSMiXj0iXur1kMmAYouaqT9svXapXorKheqXt93URCyaQFetTdDT3doEQ9dZl7EkPih0te1H2Hebw0riFcyUudzqaxJ72GXpc7TgmX8GvRiUsGIaiXXk9Pj+32FFvdHSr4Fb0tpXs+jnma27CxRnURg6//fQNKarkM3ak63oiIaHMIpN8GEbgeRFnGVk7cQRJlpVEQsKHxU2Owl9UXUffgcF8aeFcUAAUAAWKUYF80NEFBzN1ZkPThdBwrD6CNjMVsNU1ijiJyNFTnslPHNj0pbPdEfZ4GdrHOIlIuyPc4Qy73BHLlQG34wtweJUdRcdIT98G3P4gn7ZgD7dD0TH7ar3MTsKePhUokJV1AxjXBFlr9Qv7LkVW1ntxcGllPb3vUqTVJwgy/Dv0ABRFp+SJjubewV+JICxizou71sgJvT90dCPXlkgtfuuiCDO0srVRzx6DMpNz0rwW8LnL16XoqK4ytnEF/8EvmBOIjrgvdokbbkmh1MLnJDZnOpr3x0RA1dtftS2r+5Xglg09JH9ppjah2JGmh8/LZ1ZxyzNiWWl3VJcZO7oF0RG5Qziw0nytkrwJI3Cg8+3nCps/OrIWyCmKIsu25CIzOqQoipBAFnaxzrQiTdMEQbRiSqIIxY4G+JzCaaAAKFACCgAdlVrekYVGDleEohmvnz1x3ovpqK0j3O4IO1zovz2hEemJudwRyhPrc+6OD/B4ka9DGmLleC4c1rsCxUtHaSOjbhgBRj7pYj4/HfzrPpS59MoX5MZTgSYn44tLEFxKk6unt3mio3mPJChaOfkyyjVatKTfdHSFGzI6emctoqNPp3QuxpvMoNjRVuaVW6JLHuVb25XDT0UX1klMBh0tekxob5f3/TE9GPXOx6rKyTtu7tqPbBj0rg7jlXVn6pg9RzSR1do/597rhZEy6QjFjnp1ZchH3pHptYCKGllWCpqm8bzNmy4uKIqCcKg7ICFk6gQknhchatTTkwj7QQFQoOQVADoqKTqy0KjDGXZTKWg52xKa/JeDm750Wh507Y7sUSPSE8NudRSda9TI42UoOg501DvnDOzTkqGjzGFUVPS2gLC/JfphQyq49N4Reu/FSIuP5yUILmUKhvbkiY7sEZIB0FEL2wUb9qYGEDvCdHRwrew6KV86LLW7dD1pJAi0jV8XtvAr50uMqvtPyC315uukEvSodKsaJFT/qcQnnSEm1JPK+KEWQ2tNvGUz1H5rjapp2qmnOyNRlitDZXTNGoVTDTWsHKvrtBS38ovwRicdLbyLu9ChHJ8Vndtn3pGiNvyhi83s+gx0O82VAaMRDgqlmXfb3Rfi8URWQJJlhecTDCOoKjyG2R9D2AsKgAKjQQGgo9KhIzsa2c27m1sjU2fUbzvksuiorSOUxj++AGehkZvKiXYoOuYkUMVYio5TdK6xpoFxwug8q4TpKG1sNQwjyMqnCHbzmeBrX1KLdxHL9pIbTgYaHXE6Juk6ZD4gwUYpHa2bhHEiuvOEbiSN+JfsizZKQcEfG3Kg4E9GKAmDx7xHE35RI05KO7uQKbrrlKEHkPEDPibNlWH5GzKjGoagHHywC2mWViWcLtVzTm5rVMIJQyKVtmY1SKqBc+KnD/XlWaeoxx7tamqgRGRvwU5HdjTiOFT1VZYVa40c8mPotF6IxYRMQGJYAXt89+lQZxiGpmmyrPR5ZNqTDm9BAVAAFCgKBYCOSoWOgjxFMx1OVLnVjkaBkNDcGrlpZv22Q0S7I2wBEs5BwtTRXzTCkSKKjhFklCCjeAOyjIYc4UYPHWWOlZKqdwQSB1qiHx31vribWLyLWHGY3nMhfInmOXGU/qv26KajKdzluJFMGmyL4mxMbLi7k2fmIVeGow91vu2ZjlZv1/gT/PvvyZdf6cw7upG7GDW4Q9yiTtxKo6O6isgHn6iSbrje6TzFPHLedeblOmNHVnXauXcLtKpTexJH1pivtZIvYQSPdL7dprDq8NU7sqMRywqJhCQkRJZFgSAcRNJ1nedRsVeOS+A4kgVIHIecG+JxwVqMl/lI2vfoui6KkiCIkiRr2ih9Hu2CwDYoAAqUmAJAR6VCRyHB5+fcFCKWNJuEM5eDU546tHm/s8MZwUlHViEjjxclJvUrauRHGBYjzcQkHDXy+ll7Sdkhh4RR2+BopqO0cdYwjDCnnHGzW84GX9+Pgksv73WvP+E/1hGnopI2OoJLxUFHQ553hAM7S5bIPKsGQ2jZ3nsrFD6mnpgfm1cRWbQI1Tuqf6CTjrKlIaEQzW18a1Ctfywy77EEdYp/1Vxct7BWimt6y4td5JNJR3XXxXfvlw48lmq/W7Qng47m3Z/wqfqVd9g1zzDoVS04OMO9LvX2k2VSRNaa/pKtqU4869Z+Tjtx7EhTZEVRLZcFnFCE3/J8wmIY7EFnGAbPpywZ4vGEKCJewvYMut5HXSNsY5hISIqiGIYhSbIkyTkyVdpDDW9BAVAAFChYBYCOSoeOAiHBF+DSUoBoH9N4FlWD3XLARXriXkRQUSuI1O4IEyQKN7V1hHNcUOcLoBZID8Iw2oeSjgIhoSfnulELNkNy40BHvYybsqo7Q4mDV6Krj/le3O1evIt495Bn1/nwRZpnRbWXE4v3o+KgozbBkCiltVFOe3lChiFp5PH0/a3HlZhsxHYxuOKQHQ9w3hGio8rY7lN6YAt/2nT0nl8Z23Na1yW1aWbkhVdlWVH2394HHa1cr/q3sajm7PVMU4faYC5vW7tH0xh5q632URY66gVRMuho7t3c0S38KmvlnmnH17YsRV9zb46v/mN0bi8NDuSjy8/f8vk930rwvMVCmqZZht08j+BHSIgchxKNrC9/d0BKOdflEgXSNA27hGMiMgxDFKVEQsrlXOvqsAEKgAKgQIErAHRUUnSUNinH5t3I0fvJA9sOuTA4YbyxAAnHkXJEI6t9HEFyU1GHK5wWqrKOgY1BKgB0lPvoaRhGhFfOkezWs6E3zeDS0j3utU3+hvY4GRHVkgguFQMdmfWOwlsYa7GZRTu9uzJwB9iFGWxg0dH8xxNeStpwG/Ksw97f858Ug4pBrYy9skJRE/L2yV10lGnwPfduvvWSuPam1DEr1qmxw9zSKez5kMEf4ZbYrjtIOrJuNrXRnY7SP7VddxAfXXz+1rV3XxsJxWPxVCFXWVYYBgGPhUY4LmSno2QyaQcklk3kkkFkLqhDkSJFUTguoWmaYRi6riuK0mfQKfdnGY4EBUABUGDEFQA6Klk6suoaHT2N6GhPI21N1n0BjiCjbR2hgaGRvR2vnwU6sgQZ2g2go8GMj7Kqu0KJw62xjxt9L+1BwaV3Dnp2NofPU1w8UZTBpWKgoyns4W386l9lWTzWIx1dH9+ygl/VGfyxc0KKjm6M7ahXztRF6yYxp71GZIcZZaqMrv9A2Hh7ZOVnquoV11i2CnOzlD9a/q544E9dXZp7B++Iaxd3KQlVO1PVtb+usxps2k57l7ptd48dzb0p/sFD3d3t0uhoCrPzLXaZzTGvW2sDgaVwXcXpuf/98V3fRXQUE2RZkSQZL5NLQyNJknVdFwRRltMiSAmTc/pYUIefRCEhWk7fiqKwbEKWEReB9/dgRio4FxQABQpQgQKmI5qo37bx3ddfW/zSW+98cuCEo2QxZmin1FZrtI/tcKK6RsfP0VNm1O897rU+8gd50hPH4aNcokZmpCgOvguWgPnZADoawhHTMIyYoDZT3Pbm0FsHUObS0j3fzmQnAAAgAElEQVTuT47769tiRFhUtSKwxSsGOup5ir/tuKFHpA03dKOR3vEA09GmheLFNQwyTpjEnvEbsV2sbQ1edOsxXTrNv9R53YVzkUnDkfv7uMqa7SjsobYmlmN/BdvprKqdm93H6aluYzraxq5aLJw6Il/endj5Mn8I+zFkc2U4e1k3kjq9gbFHq3pXoNdPw3UVgdkVTXNu+/guM3Zk+tHhNXVZ0QgHlDgOIY31ZOHgj/W29w1FQfQlJER8GIYxiBr1Lhp8CgqAAsWoQEHSkd+xbenjU77zP68qG9P5U/bVf53y+HuniBAwUj8U8HgZlzty7kp46swGi458Ac7jZRyuSO65Rl4/66bSzR7yQwij+SpAR8M6pKqaQYTF+rbYJ8f9S83g0lsHqO3nQs0UFxVQxvmwXn0AjRc3HW1vGiAdHXqBxSYKdZPY5pDBfGGjo0nsWb/h+ShuJfMsnC/xOdDRyjXIiY47wb95fTcQWrRQEjT90vPddmZFlLk3xT9+VaRYQxc0Yo+w7nfmKZOZbauE3S9xn1abTgzdXRlSVg0z4su6I1nW9vvaidHIVTWhac5ta++6Jh5jYnG0mi5zQR2OGmE0wgekAVJ/v4oIkARR7/zp7+lwPCgACoACha9AIdIR8fn07149puzr3/npHX+aUV0345HfVPyfCJTK/va6mdt8o3m6PLB7R/WOOuloAObdFB2jfYxpwBBLs3wYWH/grBwVADrK8wAaF9QLHm5nc/idg57Fu4gXd7vXNPoOt8ZcoYSs5rT0aFg7XNR0FN1+wtCjA4kdWcWI6m7gLkaMwOfM4jtir5iAsahOinPKF3d1wczC5/umozdfkWOi1rFV9DAG1yLufLzLs27RUil8RdrdS0miytjaD6W2Fi2hGDqntW3mV93WdfV0pElbWdcZoUo/rN/7LTRyVU04/dwtm6aNFTi+TzRiGAEvujMJCuHNwL6uhmEkEpIsF+K/IAzsjuAsUAAUAAXSFChEOqK+ePm+B5duPB2yJpHtexf+7B/Lxoy56n/9/pMroy985Avwpikc7/VzXj/nC6ANX4C39Ol9w6Kj/qJRICTQPhR9chIRTEdpNWR7vy58OkgFgI7SRqs8v1V1g4yIR9vja5tSwaU391Nbz4bOutkIPwJTw3zR0S/YpnMq3YpeXo+uGUlD1kNt5p4W+YvOykL9nOJHd5w0jJj0We4r6yYz+8/pelTeP5tdW22+argdr3LrFyUcYSPWwL9zY/zL83pgE2O3c8AG3w09d/Ld1+Qop7W8EV9YEVn8R/4CoeuqHj4jHV7Gvv3LSN11kXl9sco7K5SEqLWu5ZZ32jz0KMWw0JEdjajqcZefv2XD3WOZGNN71IhlU8VhcRApHhdypCNs4Z326GmaluPpaSfCW1AAFAAFikKBQqSjbHNK4s3fIDz6yn88f4Dux9KybE0Vzelmtg9D0QxBxvDLSURd7ihBxpwE+i/piVM00ycpYTrafczT37pGHm8cZxwRZMrC201Fi1rS4uo80FGhjaFMQr1I87suhN89hINLxOpjvoNXoo5gPoJLeaKjubcLhJh9WaGhaWeqew6V9MYV0V2nDSMufZ47HU1h9p/WZa/ctCZxOPO1WvhysxK9klh1Y7f+LFosJ1T1uM2DoQtdKmPrNyhMQGmosXknTIqt/0iiw2ghpaEZvF/1XlTaj0oXvhBPbxdPbBaPf45eTZ8J6yzfiOti7z9ma6GXu86go7m3sI2XtY4ViM26OtaP7TQ0itRVNM+7ee1vvxUNx3vJNcJolEwmRVHCISZV7aOEq2EYmqZJkpxISFDRqNAGIugPKAAKDLcCxUJHwVX3/8tVY8Z89YYXDnmLBm8GNhf3B1FoyE3FLSgiPXEMQhSNYMl6uam4dRhFM7SPzXpFk47qdzaQ/aprRNFxgoyQHrSazuNlcCUliobFdfn7+gEdDffwN8j2Nd2gotKxjvj6E/5le5Et3utfUlvOBs+42RA3qOCSrhuZRhF5oqMBzdr7nOtHd581DFbe3B1m+rjWpNhrv87e8pKnE2S7tNm2pg43teglWVS1UzPTz1r0ANd0ViW/FFbfmv4ROvH62AcvCE0HZIrQElJaxpmheuU9ttV3mX2efx9/4YqJVY1yS4PtdVSmCNVzumtP6zk1TGlhQml4tms5X2aDPe8JzSl3VU1wVU2gqsdF6ip8teWnnrvl47uuZeMsrmuEzbvtuUYDQCPs960oimb+yLIiihIEiwY5XMDpoAAoUEQKFAkdec88P/lrY8Zc9c+//6StpFfWef0cRTMOV9RNISLyeFm8mg4n/FhpP3ihHe1jLVLCKIUN6KzDMCzh2NGuo5TDFcnFoQ6f5QtweDUdQUYJMurxMlnRC3YOnwJAR0U0kuKucqJ2ieb3XAivOEwv3kUs2UWsOuo90BLtCCREpR9pHp6oVLfZEWBluwLFTUdfnDf0sLQx99hRzxGVJU8JLSfEz+7MwjkvLJXDV8St0+wfRVe9IZ7eKnz2QG5AUhl5+R5m9Wxu61/5L1clGjYm9szs+8QFN0YsZ4ie2cbeqwFve2srLDQiq8djzzo2zgoJcajQKJlMKooiiqmvn67rUO/V/iTCNigACpS8AsVBR9ShF27427IxV/3rPStdwzcZHfGWaR9LkDE3hdbL4RfpiffUK3+QxwRlHUzRDF53R/tYOyBZeUdeP2ff31PLafs93jhFx0hPLG0/vB1uBYCOin381XWDjkmNjviGk4Fle8nFu4jX9pGbTgdPEUyQlXuxxTvWEb/nvUsPr2o54WIsEYqbjtYs5T+4ZcBIYDuxMrb+VW55TzGoHBKHhplebF3tGfD62YdwXUVoTrm9ZV9tOVk93jlroklH341FUN5RPC7gIA9OLhpY1Ah/38zCr5KqospghmFIkqxpfSzGs76osAEKgAKgQLErUAx05L/8zt1jrxpT9nf/MX8Pmb91TcM997W3b65eYx2uKF4gh/+L40heP2c/0r6NuYggYzj7yB/kaR+Ll+GRHpQyhA+26Mh+btZtMyTV4+WyngI7h08BoKNiH14z+89LWouP33sx8t4ReokZXPqwwfvl5WibX7AHl9af8N/z3iX8Wn3Mh1fZFTUd2Wf2sN0vBUJ14z014701FcHZKUAKzSmnaypcVRPc1eNP1N1qVYNlGFQQdvBohL+3oiiJIko60jRNUVDV18zvM+wBBUABUKAkFSh8Oooff/ueb149puzvf1q1o6ue6fBNSfPfMkYjJxH1eFnsROfxpoJIpCfekzed18/h1XQUzXi8XcEizFSkB6UkYUDKnY5oHwMr6PL/BejpikBHJTnm2m9K1w1fXGpyMhtPBV75AgWXXt1Hfn46aKER3piz2RFgZKCjfkFFaRwcqhtP1VS6qia6qibQNkDy1ZZ7ayr8qbyj70ZCcWy3gKseDSZqZH0/DcNQVRVbMkDgyJIFNkABUGA0KFDodHRl+7wbv3HVmKv+9dalTSVZChYHfFzuLjQKhATsVuem4i53DKce2SfQmHl8Ad4X4D1elHqUtgAP78eeDf4gnwsdmVYQrMfLYBsG++Vge6QUADoaDUNw2j0KstbqE9LoCK+ya7hAbpo29sqM7+c+729/+gebpo2lqv537qfAkYWjgIVGzlkTnbPSASlsrrU7O/fmj++6NhZh4p3VYAeARoZh6LoOy+fSHkZ4CwqAAqNWgYKmI8eB1/6/sVeXlf3TT2Zuv+AvzTV1tI9NQyM8F8eOC24q7vEytI8jPXHazBryB1HtI+uFI0vWIjp8Lv7U42UxIJ27EraqwfY00afoGC5qZBZ+7YpE9XQ87M+DAkBHo3Nc5kQtk47uee/SzHVXVv7xJqCjwqGXYe2JhUZEVaW7ejxRVZkJSJajtygIgpByZcD5bLmbdyeTSV3XZVnBP6PzoYO7BgVAAVDArkDh0pH76Ht3f/crZWVfH/foupMl6uJN+1CukbWgLm3CTfs5lzva4Yx0OCMud5Q2E5BwZVjrSAuTrD3YDZyiGbxgj/TET10M3DSzYe/x7OsScQsUHSPIqMsdoeg4RXflLFnNwkb+Ffj8MDV1ZkMgKtmfWNgueQUue3mLju5beWnJLmLPhbAvDivrhszkYFipZkgat9DIXVVJ1yBLBk/NuKyAdGnBzRvvHqspsiTJPI9KviaTSUmSc6xrhJ+mRCJlwIDf9uIXUvJPH9wgKAAKgALJZLJA6chz6pMHf/R3ZWX/4wf3rTpWouVfaR/nJJANQ0+ZRR4v29YRbusItzvCBIks42izDlLWZCQrfOT1c9jdIRASfAGeopmT5wNTZ9RnpSOToOKdRY0QF3m8DEFGIPso/yyUecXXdzhvf/kMFUrAUDWqFNhzMfLEJ63v19OnCMZu1QB5R0MCHoXfiIVGONcId7gnQLr8/C2bpo3VVcV6RnRdx6vs+iz5ap2CA0f4rWEYotiboaJ1FmyAAqAAKFCqChQiHXkvbH7yun8sK/vKtb9dcbh0TepwgddMSzoczEGBIzLW7kB01OGM0D6W9iEbhraOsJOIZp6Fs5Xwf+3xJdrHNjX7pzx1uGc6YnHhV4xGeI5usVbmlB325E2BnUfpm+uOz9viDPNdU59SHYngviwFeEnL+o/3QEeFDzZD0kNv7ThXFU40mkjXdEXMsgJSJh0ZhiEIYu5ohKsbJRKSoiiqqsL6OutJhA1QABQYtQoUIB1F91T/+Ctjxowp+/t/++H4iorur3HXT/vrGU/xF4T1mqvmsHM3xiH7nBvHfEgPslugaMZNIc9ujEYdzghJ968w6+lLwcl/ObSznrJfwr7d6QwRIcio18/aP4LtEVQA5x2dJ9gF211tfmHUDlJw41iBUUFHix/kNs3ou/pqP+sFRV6em2htEPc8HZvfBRtDQjJD3kh4TnlwdqqWkZVoZF0lE5AuzL85LXaEKxT196mRZUUUJZZLyLICDnX9VQ+OBwVAgRJToBDpaG/dDV8vKxuT9afsaz+uraeKnI58Ad5JRE3HBeTcjQsW4XCN6R3H4eV2VgAHV4nFQaTe0cgXyFLv9WxLeMpTh7cfIXtawocBwBfgvH7wYygg8w/LlYGXtGV73YdbYyU2+sDt9EuBkqaj62PvPy+cPK7yiqEHpc2/jsy7lz+9V1hzZ3TxlPTXkru4EyflfY9ZzJDLRnTVelVSdWoNs6BAAQmXfPXVVpDVqLoRLvbaJyCdnXvzZ7/7N1UeguxEw/zp13cSDgYFQAFQoCQVKEA6KqDp6TDFDSzjBNrHOomowxV1uVECklmMFVV0pX1dJVlps66RhUa+AE964gQZQy52tsMCIQFXSXIS0bT9566Ep0w/suWAy+OFuFAxfbssOkomk5pufNzoW9Po03SUdQ0/o1CBkqOj66KvPc5uX5loPqnGOMOQdf8ZuXl74tByfv39kXm/E2jViF2ULx2W0l6Xz2qybgin+beuS+eiub+OvTYpfWcq0DSJaSIN+Sz/Snc6euFPQsuJxPpbezir+8H9jVnlfHzwuUpPzXi6psJdhaobuavHh+aUU9Xj7F7eVg/tEaSmObet++01PMuJ4hAA0ih8rOCWQQFQABTIVADoaASmy24K4Q123DbpKGIiDYrb+IMIfqy0IvzWjkZOArnYYbcGFxmzjsQGdzgrifalKMgX4L1+DtHRjPrth91Wfdhhoj5odmgVsNMRfnQPt8aW7XXzkpb5JMOekleg1OjonfnCvje4z+cwK++LrVyvqkFpnQ1s5v5aIBX9yosWEnRtLJwjMYpa/0DXHgtCXnhN5in51PpE/dosr+NHFOe+7vvXS2TUMJKG1CGuvy1Lg1bLw7kRqhtH1kxwopKv6EVUVQZml/try3MBpKY5t31817WRUJznxazpaiX/XMANggKgACgw5AoAHeWbjvxBHi+lw8lFBBlzuKKkGTgKhAQzKNSVVuT1cx0u5OhNmtZ2TiKKfRowHbV1hHEdWDtEuam4tb7O6+c8Xvbs5dCUGfU76kmXO2qt1hvaeTy0NhwKZNJRMplsCwgLtrvoGPw78ZAPhoXeYKnRkZ033lmbTkd1twnuAdDRK7KsaZdeYz6a3s/XU8zyX48UHQVmV7irx3eGiSb6ait8tRVEVSVVPS44u48I0om6WzEd9cuGwfqu67oOTGWpARugACgACmAFgI7yTUcIeJwRvI7OyjKifawvwGNXOischCfciJdsaORwodpHHa5U+MjpjvoCHO1LeX8TZAy3g8NQeKkerga7s4EiyJgVVhqO2Ty0ObQKZKWjZDIZ5pUXdhJn3SyMYqNKgVFGR7cIRK901PCHLDCzaKksqdrJ6Vk+ssNYarsytm6dePiZoTeByHKtHlfoheeUe00WwnTknDXRXVXpqRnnqprgqppAVo/vHZDOzr153W+vkUVxAM+CYRgsm1BVdQDnwimgACgACpSwAkBH+aYjnB2UhkA4pEN6GCfRLbyD8Qm7OLQ7wh0uhFU4EwkHkVxu5O7tckfxmjq8lA4zEm7TF+Bx7GjXUQ/ObhraGTy0NnwK9ERHyWRSVvW3D3q2N4fg331LeHROu7XRQUeVsdW1zIsVkT5jR0cfyYJAi5bICVU78Rf00WsviBShUmfl1qNyS32WV1uLphiGHpJ3/C5LU/0hnMGc7q8tJ6rGm2vqEAthL2/CBCTCBCR3r4CU6eid9rXBb3saKAzDAIe6rIrBTlAAFBjNCgAd5ZuOsKdCJh35AmjFXdbFby53rMMZwWhk8Q9eXEeQMX+Qd7hQMhLpiZvBIs4sF5syr0N01ILyjnYf87gp5A8+fLN5aHloFeiFjrBp77ZzoXcOemRVH81D2Oi595Kio/nT2H0fd6UAnTiraZzavC7RdEyTNZ1cwyy5XSAVI3Ck6xgrlajhSzWhqsf/nIVJMB01PZn6aIEtkSmNdlb8VQryBtchn10vbHo8OrfH2E6Wq6Q1NdC3wdnlkboKfy3y78a5Rt6aCqo6VeyIqKqka9D6OmTSUFVpjyARVRO8takO50JHqqoKgihJ8uh5WOBOQQFQABQYjAJARyNAR26qy3cBz6fxEjiHK0KQscwZNu1jXW60KA6jkZuK48CRk4gGQgLpYXBYCRt2+4O8y40sH7piRzY6clPxzPZhT2Eq0Dsd4cf+jJt9YScRgXKxgxkFi+TckqKjusrY2reFL5ZxG2rZNbP4i35Dj8r7qpg1z5ivGfFX7k3QikF8zKb24P3mf9eukPkels8telFOqGrj4+lI88ZC4dBS5pXrzf03xLftUYOXpC+rYiPk7h2uq0C5RlWVGHJ8tajGkbemArvVmcvqUDVYoqrS2wMgkdXjAyZc9UlHhmGIIqr0igGppyBSkTwE0E1QABQABfKhANDRCNCR3ZUOz8s76SialY6suTu2ArfQqHM9XhzbM+C3Jh2l/MHxidizbvcxDw5bWa3BRoErkAsdJZNJKiot2O5qD0C52HyMmCN4jdKiI1usZu7tgltCZY7snnXz7uXPNSQ+vyedc+oqInNvZz75Y/a6rotekkVVPfpQxlk3MftPaVJIaV4jnGiQm16OL7F1YKDBn4yr5NQmRiNX1QR31Xh/LQof4ZevtsKsbjSRrB5vAZK7qhI7NGBYCliFYqsmhurGReoqeqcjwzAEQcRm32g7IYmiBEvpRvAphkuDAqBAUSgAdJRvOiLIWNbYEW3a0zmJiC/QVezIPn2n/Zw9amRnoXZH2Foy5wvwOL/IF0D+4P5gKu9o9zGa9MTB1NsuaYFv50hHyWSSE7Wle9z1bVAutihG3QF2smTp6KVXZVFPGpzasS+x9Y85eSQsf1Nq3cgurbTQIrWx6GVZUtUj96XvRwRyQ3zfGeTQ5lsbn5cTxmRrZLAnhurGBWZXmI4LqaJG1lWQPUNNH4DkqprgNWsiBeom4BN7pyNFUURR5riU9YJhGDyfkGUZIkgDfAjhNFAAFBgdCuSDjnYe802d2XD7nON3zW2C1x2zj90x+9iddY12Ke587vidzx3/TU3Db2oa7nwui1B3Pnf8jjnHbq+pv726/je1Xcegs2rNszobvLOu8Tc1DXfUNVrt/GZO49SZDb+qRde9Y/Yx+3Vhu5AV+FUt+sW1uJlcxiJNN1Yf831y3K9Dudhc9CrCY0qVjqLbG5GvtB6UNi+UwrzmXMu+ch/ffEX1X1Y6GlNuCo4rWrhdSZkrNMikQw26lNOLYmn5Qi+8rqiqcuAOCzm6bcy9g3fyhn89M78b5ERXfSyffyM+/Kvsgs9VkjUojwgHgqjqcaZ5N1pWh/sZmlNOpwBpAlU9zh5B8teilXjY0S5UN966r97pCCcoqqrK86KqqtiDQdchU7EIn3/oMigACuRRgXzQ0cGzoakzG+auvPTK+jZ4Lf245cXVl15ee8WSYtm61mXrWl9Z37bko4uLP7yw9OMW6yP7xksftyz+8MKSjy7ig/FHy9a1Lvno0uJVXTuXmoct/aTFOmzBh5emzKif9Xbzi6svv7j6sr1N2C5kBareuTB1ZoOD5nMfEA5eiS7bS0K52NwVK6IjS5SObuHbWZ26qKFqsDdE1+7WdF0/XxdZcGPEHuHZ2qir53jkZdfr69WViibJu+5hm86rgVbFcUK+csz2Oq7EJCNy3rbnmHylUY0rhqForcMLSKG68e7qiU7TYsFbgyoa+WpTHgyemopMQCKq0gEJL6sL1nWLmPVJRxiQFEVh2YSmaRA1KqJHHroKCoACI6VAPujogoOZOrOh6UKowBcy5ad7FM243FGPF1ks4HQjj5f1+jlfgCPIWFtH2JXNmCEQEnAZWbO6ESpw5PGyJM24qXiHK+JwIV9vfIyTiDpcEa8/5Vnn9XNnzGqwu456cBXa/NwmXGXwCuS+ss4+fLT6hOehXKxdkVLZLk06+us7SsIjbv8UVYNdPyky93eCi9FOPZNOQTnS0fsbU+3MvzHSPUBkNnizQChG28vdFu+98rLMc+rFley7t6RftHcS6+envlpkuuCcNZGqHheeUx7AZV7NPa6qiXZACs4u95gRJFwQ1oogkdXjwxkXzYWOksmkruuKokDUqFQGA7gPUAAUGF4FgI7ynXfk9SMKokywoWiGohls0uAP8h4v09YRNr250323zRqvrJuKm/ATbXeErRc+BZd5JT3xDicqF4szjgIhgfax2NF7ZwPlcEWhGuzgoSVvLQyMjlC5WE5ZtMN1juSGd/CA1vOrQCnS0XXx+jbd+U58+TpVDSE6qquILLktujAjQJQjHW08oKstwmvdois25smkoxuYpovKoSe78VIGgdhayOhYbgeH55SH55S7UTmjCZ6acf7acuzc7aqagIvApgFSip3MyrCdS+wmBDtzjez9sdMRXjgny0rWAq8QNcrv8wpXAwVAgSJWAOgo33SES7uSHlR6iCBjDlcUb5v8k6rr6nJ3wxiSZlxmWAm71eFKR9jF2+FCNnfY5oH2sU4CFT6ifSzdGTvyBfjm1siUGfU76ymCjKXVWcrbRB8uNAAFBkxHyWRSUvW3DlA7m8MwJSri4bl710uQjhbXSRGXuGpSJEVHN9jn/d227XQ09za26aS098FuB5iUEtt3wYjvYXvMIMqgo3n3cVufHVY0wg51VDUiItosZ+SpGWeiEcIknErUByBVj6drKrBDXeYt2+lI0zRZVmQZmXcritL96wPvQAFQABQABXJVAOgo33QUCAlW4MhNIRM52odW1uHZM+lB9txtHWGCRAWOaD/nImNpUORwRd1UnPQwvgCPl+eZMaLUkXjZHo4Ref2c18/h2NG2w+7e7cIHMH2HU4ZVgcHQEU422Ho29O4hKBeb62hY4MeVHB1dFz9wXj33HIKT5etR7OhTGx0tf0vyulXqnNLeiNKEPEFDj6htZhJRW7MaIjV/k/Dh5O60MIk969dbl/ZMOxl0lFvkp/tV+hE+ssy7cXmiwOxyV9UEs8BrCo1MX++UTwO287bKvOJCsVT1OKKq0m7DkNYZOx0lEpKqqrqui6IsCKIsw1K6An+moXugAChQoAoAHY0AHXm8KMhD0UxnxhFKQMJZQ4GQ4HKj7KN2BwIkhyuKYQktn3NFnASKKVkoZU3NPV7W5UZHYmtvM4spZeedih1NP7LtsNty/bZOhI1CVmCQdISHnFMEu3gXERXgH5ILdAjOvVulRkcvvyCRe9iXTNhYsV5Vw93oqK4isujGLhKwx456Qpq59yRoTtn7666z0o/MKx1ZaIRX0wVno5V1zqqJ+K27qhKhUXUlWT2eMM3oUASpaiJZjaoY0TXoFUFFY8t7ihrh27TTEY4dSZKsaZqiKByXUBQFose5P2JwJCgACoACWAGgoxGgI3+Qx1GjTM7xBXivH62vw2vkrEV0eK0dhihrQo9NHewQRdKM1488G/xB1I4vgKALuTI8dXjLAVfm5aymYKMAFRgSOjLLxYoLtrs6ggkY9YpagdKioynssQOJ1VNSJPPeBlWLSBtssaM0sMmFjv66XGFP8st6ie3kj46Cz1V6asZjGwZX1QS6psJTg1wZsqKRy7Snc1VNJKoqcUoSgcBpfHhOV63YnpDPTkc4YpxISIqC1tdpGvL/K+rvPHQeFAAFQIERUQDoaAToCC+uI8iYx8tmTspNewbWiho5XIiU3FTc42XRWjuTfGgfi9OWOlwRa90d6elCI0xH2Lnu9KXg5L8c3llPZV4L9hSyAkNFR8lkkhXVpXvcDe3xERll4KJDokBJ0dH8B9lP7uqa8a/8TNWi0sbB0FFlbP95rbmu52V1FZG6PNFRqK7SMu/Gngqd5t22BXWdUaMUL5kRJLqmAjs3EFWVlsd3l0ppxGi+vbTg5s9/92+62hUclmVk3g3L6obkoYNGQAFQYHQqAHQ0MnQUCAkEGcPJRdYEHacJBUIC6UHmdcjduzOIZDnUdTgjdiLCq+mQzR3N0L5UsMgeOPIF+JPnA5P/cmj3Mdq6EBzDRUIAACAASURBVGwUhQJDSEfJZFLVjY+Oetc2QbnYYh3qS4qO0ib6H3yuanHp89zp6Lr4ti3irj90kcP8xxLu08Kb13XtSbtEXUVk/p/FoKq3Lu3tmMyz+r/HU4NX0E20VsfZbRjsC+rS0AgtsTPjS/7avqNGkbqK8Jzys3Nv/qw7HRmGoZs/xfpFh36DAqAAKDDSChQwHZEdBz9f+8bLy1548c231uw71pYlzFIUc9yeOun1c24KOdfhBW++AFpu1+GM+AI8RSM6chLIzs5KKLISkKwNbFtnNYLDSjh/CS+r8wV4j5dtPOO9aUb93uPennoC+wtTgaGlIzzUHGiJvvIFKcjaSI88cP1+K1DKdLRqi6ax8maUaBRdvUK8XC+3dH9RAeTKcKVzZ2uLphqG6pO2TcOoE/18j1z/5+zYs/Itqb1FjXg0hjcMVW18PPth/aegntoxSxtNwAvqsDe3adiNHOp6QiNfbQXyrzPLHzmrJvaea2RdN2TS0Ya7x9pjR/3+YsEJoAAoAAqAAt0VKEg68rdteuHhn479u7Ix1k/Z3/yvnz70dpMzNGKhniGfQPuDPO3jSA/yZsAJQrj8kZlNhGoikTSqeuT1cx4vS5AxJ2EmI7lQ7MhJICNv0hPHdZBw0AlnJVnb+ESXO3b6YnDqzAagoyH/DQ53g8NBR8lkssXHP7/d5YtL3YcCeFfoCpQyHa3ermmMvMm0YZh7S/yTZ+Kv3xKd31PZoozMonmPCKc+YjKrJHUBT2X0o5UyoxrhPdwrOTfbdXrGFXv9CBswUNXj8II6Z9VEd/X43tEIB5ewMUMgW10ji4jwRmhOua8WxY4uLbh5w91jNUUu9K8v9A8UAAVAgeJRoBDpiNgy83tXl331Xyfd+eTzL7727tJ5M2774T+WjRlT9rc/fmZHcLinpPls3x9EYSLSg3KK0hwX6E6Pb1zXFTt3Y/Kx+AfvxP+1XO/wpzhqZKY2MeeuhIGO8vlrHaprDRMdJZPJECsv2uE6T0G52OIZqpPJUqaj157hVt+RBgD9eDv/jtirva6pQzBTGX1/RnxJ/zinH33ozkuB2eWB2ajAUSocNGuiCzFSyqHOvqAOExRhOn0HZpcH63KCN3yWt6bi/LybP/3tNxVJLKavMvQVFAAFQIHCVqAQ6Yg6+M70mjUH27rCRN5zq3439qoxY67+7hM7iRIKH+FVcKQnjgEJR5B6mltjTLL+az8Mm9dhDwacdITDTRi6mlsjQEd2uYple/joKJlMior+xn5q9wUoF1vYI7Std6VMR93RYsBMUlAnhs3wjuXWjS3puoodmTYMdjTK0YYB3yO2s/PWVpybe/O6317Dcxw4d9ueFdgEBUABUGBQChQiHWWbvHpX3P2NsjFlf3fnh+2lRUcYkMwIEmPlIGEFLN+5bIIgdLTCSlZMCdeH7UQjBgeUgI56ErDA9w8rHWHz302ngysO04oGtr+DGkbzczLQUUHBTy+dCXU6cacBEq736qkZ5x4cGtkvffn5WzbcPVbgeDDvzs9jCFcBBUCB0aBAkdCRv+Ovt329bMxV1zy6ucRiRxYIebwsDiLRvpT/BLb2xv4KVt1YDEL4LBwswkSEM5S8fo6iGScR9XhTaBQICUBHBU5BPXVvuOkID3AnXMySXURMUEfDeFfU9wh0ZKeCAtkO1Y0PzO62Wi8wu9xjVjfC4Z00QLIiSHRNhVkHdkLu5t1ZbxnXO5JFZOFd1F9v6DwoAAqAAoWjQHHQUcfe52/8h7IxV//7I+tL1pYamzRgm28cRMLYg5fbWVBE+1gMRTh2ZCUdYS5yU3GXG5VRsmcxAR31hB8Fvj8/dJRMJskIKhfrDEG52MIZmbP0BOgoKx6M4M7gc5Xu6glk9XhfpwE3dqhzmnVdA7NTrtxpgERUVdI1FZZ5dy4L6sJzykNzyr21Fd6airTjMR2psiRJYMyQ5amBXaAAKAAKDECBgqWjUHPj8f0Hju7Ztvnt+X+84f/9P8qu+r+un77pnL8rGanAp7YD6B5OH8KARJAxCpUwQiyEMcnuu4Ab9wV4r5/DlWFJT9xJRNPW5uHDgI4G8LsohFPyRke4XOyLu93HOqBc7ABG0TydAnQ0giCUeelw3TiqJuXBjQHJX1tOVY/DNgze2m4BJQuQiKpKX20KjZyzJqYdlnkVvCc0B3k8+GvLfbXl7u6FYjEdMTEGVtbl6TmEy4ACoMAoUKBA6ch74Z3bbIbeZf/wg/+u2tBIlDIa2afjtA+tsnO5kW03QcZwRSOKRt7fHi+Ljb+x2Z0dpayYkr0pWFmXpkYRvc0nHeFysR80eD89EdANYxQMfcV3i0BHPcHDSO2naypcVROQDfesie6qSnc1KgLbE/OE5yC88deWk9XjXZ11jXJ3qLMiUZjB8LK9SF0FpiNw9C6+5xl6DAqAAgWsQIHSUYA6/m7N008+OePxRx+64+fj/+WryND7H35039IvSnZlXeasHceF3FQcIxCGJZc7alETLnlE0SjFyL6ULq0piB2lCVIsb/NMR3iY+vJy5K/7oFxsIY7ZQEcjRUG9XNcOSBiTvDXdokZp51LV44gqVCjWOWtiLnWN8Ol0TYUVZUJL7GpQpSP8EaYjqAZbiE8s9AkUAAWKVoFCpaPuxnTthz98eMLfl40p+8r3n1jXOloiSPZJPM47slzsrEpH9mN62gY66kmZAt8/InSUTCYve/mFO1x+BtIYCmtcBzpKI40CeWsWckUhI+esiebCuRS3ZHYvMBsFjoiqysDs8lDduMwDetoTmoPW7HlrK0JmApK/thzoqLAeTugNKAAKlJYCxUFHgZDg3F5V8TdjxpT98+/e9xT4pLbQugd0VGi/kRz7M1J0lEwmA6y8cIfrggfKxRbQeA901BM8jOB+y4YB05Fz1kS7SUNmx3y1yF8hc3+fe1KAVFPhry23GzNA7KiAHlHoCigACpSKAkVDRwHnqrv+vmzMmK9NXdzs6R5ZynGuOWoPAzoq0l/9CNIRLhf7+pfU3osRqDJZIKM90FGfCJHnA+xoZGYTpXKQegekwXQyPKcraoTbAToqkMcTugEKgAKlpEDR0BF1aOGkr+DY0ShKPRqSaT3Q0ZDImP9GRpaOksmkbhifnQq8X0+rGvg0jPywD3Q0GK4Y5LmhOuQ1Z1/SZkcjnBRkz0EaMCBh826f6d9gLZ/rpfNARyP/ZEIPQAFQoOQUKEA68q6v/cNTf919wmXLL3I0vnz7NVePGXPVNx9ceSlVLDX/s9UivWK/6chzZmXVo/f+4dk39wfwLZMNa5596IE/zPzgIIl/KaGDy6v+cO/DM5c3lWRx3gL5RY84HeHh7riTeXE3EU9AudgRHv6BjnqBhGH9yKxrNNFVNdFVNQHl/5i+C96aikyHusEDUngOWjjnM827vbVd7gs93SDQ0Qg/lnB5UAAUKEUFCpCOyHfv+qeyMWVf/ZfxN9350KN/+suj993xH9d8HZnWffUH9664AMvq+jt37y8d0adW3HfduHHjJt750gkKLWJkml6/39xxzyvHYujq9Jlld08cN27cdfe8fcxng1hY8TikChQIHSWTSSIsLtjmIsJiKY6BRXNPQEc9EcKw7g/VjSdrJmAQciJAmojTfsKdTglpVx8kIJlFjRAU+WqRT11m+de0ywEdFc0DDB0FBUCB4lGgAOlIcB7b8NwDv/zhP3+tbEzqp+xvvvHdKY8s2HjJPaSzz/5iRpEe3186CrRvfWbqhPGVP/vzaofXFPzKp1VTK8dXTn764xYzcOd3rXlqSuX4yikzN7fAb2TYFCgcOkomk/GE+uJu4riDKZ7BrdR6CnSUBgb5eRucXeGrrXBXVRJVla6qibhmkb+2N2eFNEDq/eC0u8CxI79p3hCYXU7XVPhsDnVpB1v1jsDRu9SedrgfUAAUGFEFCpGOUhDipU8fObRty+5te443XYkWKZkUQrf7TUchgXYSzZd9dNe8n3FcbrvoYLpux+e7eN7lgMBRl0RDH0MrKDpC5WI14/16+rNTUC52ZMZsoKNMNsjbntCc8sDs1Jo3t+nKbRUgytqHLkCqmhisG5/1mF52+mvLvbUV+Iq9Zx9dWnjrpmljgY5G5pmEq4ICoECJKlDAdDSc886uWf4ouMoA6GhU6VOwN1todJRMJg3D+OJS5LUvKVHRS3RILNzbAjrqBSeG/KPgc8iGAS1vs5Ve9dWWu6vHu6pQaSNX1YQ+AQmVNqqb0GffMvknMBuVfM3F/vv8ol9tue9aMJYs3OcWegYKgAJFqADQ0dD/k3+hzbaBjgrtN5JjfwqQjvAQd5FG5WKDLJSLzeuQD3TUJ2YM1QHBugnu6gmuKvSiqsfhRCNcccjkolTtV1fVBF+vS+x6KvkarkPWDhiKTA+G7O4LmdSUeYNNC27f/cT1ef0iwsVAAVAAFCh1BYCOgI5KX4EcaaTQDitYOkomk35Gfn6767KXL/URsoDuD+gokw2GY0+4roKsNm0Yqia6q8Z7a5A7AgYkb20FVT2Oqh5HVFXi8q99AlLWHtI1KCTlrakIzcExooqsh/W5MzD3uq0P/PuFtYsL6GsKXQEFQAFQoPgVADrqxgb+IO8P8oU2Sx5kfyB2NEgBR+r0QqajZDIpyNpf95FfXo4U/zBYHHcAdNQnLQzJAcHZaPmcc1YKjTALUdXjArORE0PIrMfqqy3PCki5RHtwJ4OzUWYRRi+fSV+40lG/buHiS7/dNG0sH6SK4xsMvQQFQAFQoEgUADrqoiN/kKfouJuKlxggAR2NFN4M8roFTke4XOyGk4EPGryqDuVih33IBzrqFzkM7GAczHFVTcBRI3uYyAKkSB123O4GSN6aCroGRZb6C0hU9Th3NYpQeWrG0TWpIFUunacW/Xz7wz869vLDw/7NgwuAAqAAKDDKFAA6StGRP8iTnrjDFXG4IqQnPsh5bUGdDnRUUL+O3DtT+HSER8tjHfGX9rhZEcrFDu9fD6CjXJhhMMdgNCKqKt1VlV4TdbCLN15E55w1sVdAmuhEK/Eqw3X9WCYXND27PTUotSkwuzw0B71yuQVq0c93PFL+xdNTxFhweL920DooAAqAAqNPAaAjREcWGrV1hNsdYTdVUgbiQEe5A0lBHVksdJRMJp2hxIJtLjeUix3OPyFAR7lgw8COCdWN889GwR+8Xs5dPR5HjQgTk1xVE3IBJCcy767sbwfQEjsUOEJr9nI51zt73Nn5/73twR8AGg3n0wZtgwKgwKhWAOioGxq1dYTbOsIdzrCbihXURHkwnQE6Gox6I3huEdFRMpmMCeqSXcQJF5SLHa6/KAOgo+Ynv7dp2tj6J8efnvUf8OpJgZOzbqif+Z+Hp99wePoNh6bfeGj6jUem33BkBno1zvyP+hk/PTz9Pw9P/89D6IU+bZgx6eSz1+PWTj17fdMz1zfMmHR05qSTs37a0yV639/09PVNT19vtZn14FOzJp2o/s/66ps23XPNlvuuPfXuMxA1Gq4nDdoFBUCBUa9APujo+KXI1JkNH+507jxKF97Ls+UQ8dk+58YvHJ/tc3z2pWPDXvTa+IVj80FX4fV2IAJ+speYOrPhzc/bS+N2Rs9dvLaxberMBndAKJZhStH0FYfpTaeDUH1lOH5lA6Cjlhnf3zRt7KZpY3c+PgFeWRXY8fh1nz/6kw0PX7/h4es3PpzaMLd/vPnRCZ898uOND//ks0d+vOmRCfZPNz+arueOvhTe8Vjltj9Wfv7IxO2PVab1ZMdjlTsydqYds/PxCXun/+fBOb+6svVtiQUrlOF4wqBNUAAUAAVSCuSDjrbWe6fObCjA100zG6ZOPzz5yYM/e+LA5CcPTJl+ePL0Q5OfPDD5CfT62ZMHJj91cOr0wzc9XYidL0A9oUvDocCloorGGIax+0L4jf1QLnbo/8YMgI7an/7BpmljOZ9z6HtTKi1qmsZxiVhMYFghkZAYxtxmBFGUWDYRiwssmxAEkWUT8bjAMEIshl6CIOq6rmla7jLoui5JsqZpqqrqug7/gpC7dHAkKAAKgAJ5ViAfdHSmLTZ1ZsOeRu/FjljhvC60R89cDjY1+xrPeBvPeE80+861hC52xM61hE6cT+1sPOttavadvhi40B4tnJ73tycHT/mnzmzYsN/d3xPh+JFVYN0+99SZDd6QmOdBYfCXO09xC3e4QlAudvBS2loAOrKJMWSbiqIwDEIjUZQEQYzHhXg8OxolEiYvxYSYeYCQEDkukTvkqKqaSEiSJHMcwi1ZVnI/d8juFhoCBUABUAAUyEGBfNDRBQczdWZD04XQCKZwZF6a9jFOItLuQDYMON2IICO0jwmEBI837iQieGdbR9hJRHwBLrOFYtkDeUfF8ptK62dx5R2ljTa+uPT8dleLD8rFpgkz8LdARwPXLuNMTdNFUVZVVZJkQRAxGuHQEM+LaKN71CiRkDgOhY9iMSFhchEOIum6ntF29h26rsuykkhIqvkjCCLQUXalYC8oAAqAAiOtwGikI1zXiKJjbirqJCIEGXW4LECKYhByoj2h0jBpADpKo45ieVvUdITLxb76BXmgJTrSo1yJXB/oaKh+kaqqsWwqTCQkREmSu+JC5sK5GFpE17Wgric00rRc0cjquW7+aJqmKBA7slSBDVAAFAAFCkuBUUdHGI0cLmRMR/sYf5D3B3mCjHY4U4BEemJOAgWU2h3omBIAJKCjYsGhtH4WOx2hcrG6sa7Jv+oolIsdgnEf6GgIREwmDcMQRTlmrqBj2YQkyfG4wPNoqRsOB+H/smyCYdEqu8GgkWH+2Lut67ooSoqi9Ctnyd4CbIMCoAAoAAoMtwKji47saESQqTARrnfkckcsFsJoRJBRTErFDkhAR2nUUSxvS4CO8Ph1tD2+FMrFDnosBzoatIRJbIdgGIamaZIkYzRCOBQXJAkttLMDEnZfyLqgrs+oEb6EKKJEo7Ruw4K6NEHgLSgACoAChabAKKKjrGjk9bMUHfcFOH+QT8s18vrZzhykrggS6Sm+OkhAR8WCQ2n9LBk6SiaTHcHEgu0uMlJ8DhOFM2QDHQ3yd6GqGs+LiYSE+URRFJxHhIlIEES84K0LkMzUo8xcoz7RyIya6jhAlHti0iDvDk4HBUABUAAUGCoFRgsdWWhkd1nw+lmHCxkzkJ6YL8C53BEr16jdEfZ443i2apo0IEDqcIYpOrUzbSJbyG+Bjgr5t9NL30qJjpLJZFRQFu8iThHsUA1eo60dMRbcNG1sy4zvR+oqcny1zcSO3q7RplXm/aqqxrAiDgfhVW2SJLNsguMSyLk7hhbR4QQkSZK7AMlMQ7LbMOSCRslkUpYVWVasbgAjWVLABigACoACha/AaKEjio5b1gtOIuLxxr1+tsPZZVhHepBJg7Wn3RF2uFBiEp68erxxlztCeooPjQIhAeioFwIp5I9KjI7QlFHVlx/2bD4D5WIH8qdBlRKbpo29+NT3ckSjSF1Fy3RUDVaKhwZyvRI6x0IjjkvYoQVbI8hytyCSKCJbOQuQBoBGyWQSu+FhKMJudbCgroS+UHAroAAoUOIKjAo68gd5jxfRkZVZhLOMsO+CtZP0xCg6TtExvKfdgby8LUAqXlNvoKNCRqBe+lZ6dJQ0c+J3ng+/eYCS1H77fZX4YNzX7RmGsf2R8sY/9SN2dOKJH2594Hu62hXE6OsiJfh5T2hk3aqmaVaZ11gMlX9VzJ808+4co0a4WcMwBAG54UmSjONIQEeW4LABCoACoECBK1AMdOR1Hd62be367VsPd7hDQi+zyZ4+8gd5X4CjfYzHy1gRJLxSzutnSU/M2kl6YjgTCRdB6nCGCTKCE5B6arzw9wMdFf7vKGsPS5KO8IDYTHGLdrjC3KietQ/gb8OFT17Ycu+3ArU/yiV8FJxdvu3+a8+unDOAC5XMKX2iEb7T1Go6s5xRLC5wXCKRQMVhOQ4tuovFhH6hEW7TMAxc4Agc6krm6wQ3AgqAAqNEgcKno+Du2T/9etmYMWPGXPW/HvqI6B8d+QKcm4pSdNwf5LE3HelJhYbaOtCyOoKM+oN8GiDRPsY6zL6+LusUtvB3Ah0V/u8oaw9LmI6SyaQ3Li3Y7mr1C6NkqB2S2+QD5KZpY5uf/Pdc6OjCU9/bNG0sQ7UNyaWLsZHe0QhHdfB9qaoqCKKu6wyLWCjtNQA0Kka5oM+gACgACoACWIFCpyNPw6u/+MZVV/3jN/7hqjFX/T8PreoPHWGjBXOBXBjTUSAk+AKcGSlKVXrtBZBwGlKR5hrZZ9tAR3Y1imi7tOkomUzykrZsL3nwCpSL7cffo+OvPr7lvu84nvlh74DkevaH2x74bsPi+/rRdGkdaqERy3bLNcJ3KYoSqmjECPY0JLMUktRlZBdHTt+ARqX1vYC7AQVAAVCgbwUKm478l9++69+uuvqau+fM+PFX+kdHFhphoznax7ipKE4iwn4MOHbUUwSJopFtg5V01MuU2hfg8MEWgPVy8Ih8BHQ0IrIP/qIlT0e4XOza4/7Vx3yabvQ9XMERyaQisIeeu713QMJotL/mFpmLjU7NLDSKxQSeT6SJgNEIpxjZ6SiZTGqalqIjsw4soFGadPAWFAAFQIHRoEAh0xF76ZPHrr36qv/71jePfLngJ/2hoy40QmvnIm4qim0YXO6IP8jjpXQEGSFIZFJnByRrj5uK5ji7peg4QUZIT8zjTa3fy/HEvB0GdJQ3qYf2QqOBjvAgW98WW7rHzYnaaBhzB3+PGJA23XNNw9OTnM/+7/CcchxHCs8pd8360bFnb9j8+28BGtlXx4miZMluR6PMUq3JZNJy9B4YGimKoqqqdTnYAAVAAVAAFCg6BQqYjpxfzKj8WtnfT567P0Id6AcddaGR6angJLBtd8jpCrupqNfPYpMGHOqx8ovMJXYIcrCRnceb8vLuZb6Layjh+rAeLzK7K0xAAjrq5ZdYyB+NHjpC5WIDqFwsFe2axRbdYJrPDisJ7srWt3c/cf2maWN3Pzbu4IxJB2f8dM/j4zdNG7vrT9e1bHpd5pl89qdwrmVFjVg20bVGLiZgQOodjbABt6qqLJvIBY2y2tDZ05kKRxboCSgACoACoEDuChQsHUW+nDfl78u+Nm7GnvaQkCMdYVxxuVGB1w4nKudKkJG2DhQdwmhE0TEnEaHomH0VnB2Q8Im5lHzF13ISCKjwDNvjjbupaAECEtBRISNQL30bVXSEysXyygs7iTNuKBeb6wCuayp9Ys/p5bMalz3auOyRU+8+SzXuGM3+3RYaCQlJUVRZVuxW3VbhV5ZNZEaNFEURBDGRkAzzp8/fga7rQkLEhWXTDs5KTWnHwFtQABQABUCBglWgQOnIc/ytW//5qquv/ePqy2wgNzryB3mCTPnRdThRIVfaxzgJREcWGnU4ETXhVXNZAQknKfUyYcUfYTTClEWQCLfwfo8XXbTP0/N8ANBRngUfqsuNNjrC5WLfOejZdi4E88uC/ZtRsB2z0IjjEnhtG/bUtgMSzjXKikY8L+JPcQSp99s0DAPXe81KR72fC5+CAqAAKAAKFLgCBUlH/rb3f3/N1Vf96x1vX/KaBY5yiR1RdNyq6+pyR8zAURQZ1pkL6nCNV7N+EbLwdlNRNxW1F3jFpt65RI0QrdFxJ4EugV3CcWoTXrM3VDPjIWwH6GgIxcxnU6OQjnC52O3NobcPemQoF1vgfz0KqXt2NLIbLWBAsi+x43kxreOKomA0yrGukaZpHIcqxqqqimNNaQ3CW1AAFAAFQIGiVqAQ6ahl41M/+Juyf/r5y4foVHWjPukI5xqZi+hSVt0OF0o3yopGLjcKKOEgkh2Qcq/66vHGPV4ESDhShKsq5X56PmfYgZAAdJRnwYfqcqOTjvB4etbNvrCTCPNQLrao/77kqfO6rrMsivxwXBbzbllW7HQU68xBwp3rLxolk0lFURIJiedFXOzVDmN5umG4DCgACoACoMBwKlB4dEQcrPrJ35X97aSqPUFrltk7HdltGLA3XVquEV5Qhwu/YjTCB2QCknXFXDbwyj2Pl/EFODtl5XJuPo8BOsqn2kN4rdFMR8lkko6hcrFtASgXO5x/AUqibV03RFHpCY04DoFTPI5elpGdKKL8ov6ikaZpiYSk6zoGJBw7SiTASqQkvkZwE6AAKAAKdCpQcHTUturBf7mq7Ks/vOPJWbOf7Xw98+h/jb16TNnXf3z3M7NnzVm+3UxGwtNQOxrhXCOz2GtvUSOUiZQyskMRpMFkCpl23t1W6A3h5HiomgI6Giol89zOKKcjXC725b3uw62jtGhP5ygN/+9bAcMwMlOALIc6jhczTRoEQeS4BOalXBzqksmkKEqJhCQIyIxBlhWcoZR53b67C0eAAqAAKAAKFLAChUZH7LlXb/sfY3r9ufr7f94UwvPUTDQiyB5zjayoEUXHaR+D37Y7wrmYdwdCgi/A2Y0crA4U7II6ayoPdGRJUVwbQEeoOqdufNzo+7gRysUW8J+RguyahUYsm1AUVIAoq0lDjrlG1i3iRoSEiFfWWfthAxQABUABUKBkFCg0OhK8LU0bP97w0Zpur1UvP/SDvxlT9k//XfXhhtVrD5wgUT7SgNEIn9vhQE7fbiplN9fLvNkX4LDHA0XHcrRt6KW1/H8EdJR/zYfkikBH1jh7uDW2bK+bl6BcrCUJbPSmgB2N7A51hmFIkmxfYpdj1CjtYrqua5oGVV/TZIG3oAAoAAqUhgIFR0dZp5VZ844IMlXXCC+ow1EjRzaHOnvUKIVGzlzRKBASPF4Ua7Jqv+YYa8p6IyOys9905DmzsurRe//w7Jv7A7jDZMOaZx964A8zPzhocmkgFDq4vOoP9z48c3kTYZoKjsh9lfxFgY7sg2ybX1iw3UXHIMfDrgpsZ1FA13W8ZC5rXSNV1Vi2HwvqcJZRlsvALlAAFAAFQIESVaCI6cgX4LBrHO1jMBq1E+DdSQAAIABJREFUdYQdrjCu7mqZdw8SjcwySl2ZRcUYPuovHdGnVtx33bhx4ybe+dIJCsEP0/T6/eaOe145Zoba6DPL7p44bty46+55+5gv5StY8qyS/xsEOkobdcNmudhzJJSLTRMG3qYroKrIdNseNcJHqKqWSMi55xoZhiGKMrjSpesL70EBUAAUKGkFioOOPEcW3/DVsqv+7bFPXHyaO5zXz1pohH26O5zIy9vljviD/CDRCE+ITSKK4aQjr58tusV1/aWjQPvWZ6ZOGF/5sz+vduB6U1c+rZpaOb5y8tMft6DivAG/a81TUyrHV06ZubkFYkfDpgDQUebYK6v62wc9O5qhXGymNrCnmwKZBYUH4FAny4qmaaIo51Iittvl4Q0oAAqAAqBA0SpQHHQUCLHOK44LHRHSE3dTUbvLHEXH250oZISt6rBVd1tHiPTEhgSN8Mo60hMjPTG8xM5+9fzHEwZwxX7TUUignUTzZR/dNe9nHJfbLjqYrqv7fBfPuxwQOOqSaOhjaEBHWcdVwzC2ng29ewjKxWaVpwR36uaPYRh4Y2B32F80MgxDSCBTO8X8EUU5E7cG1pN+nWXoGn1yb/NH80++PePUu89e+OSFcOupEelJv7oNB4MCoAAoUNQKFAsdCf4gT3riDhcq5Opyp8qwBkIC7WNIT4yiEb20m0YLGJCsbRzq8QW4jv7kGnVhgDn9pX2Mx8tQdKzo0Aiqwab9KovoLdBRL2PrGbNcbBTKxfaiUdF+ZNpz66qqiaKSSMgcJ/K8JAgyz0v/P3tvAt9Ulff/8/Dzxc/BR/zPPM/MM//ZqwKKgE1byugoIqDOo6Mz4zgoBRFBQWWvSLrKIuCCouA2KDgqyCaUfd+h7PtSoFDa7Pue3H3J73XuSW9uk7RN2rRN2m9eeeHNzbnnnPtJ75nznu/m81EkyZAkw3E8x/FxmnQSRSOcdAEXNSJIiqJQFu9WZhIm4L22/rMtY7PK8jI2jLhr08jum17quWFkj7K8jL1Ff9EcWCNwUCs5bf/EYeKgACiQ2gqkBx0p0QjDjxKQsM+b0ezFPnWYgnCzJqARzlCXdu5zDWz6m2A7aqA3+KrVFAA6anjx1LtQudgqK9lwM/g2vRRgGI6mWZ+PQjhE0CTJUBRL0yw+T9MsRbEEgQApEKApCn3kOKEBdOF5PhBABWHjTN4tCAJBUASJihpx0ksQBIqiW7OuEe1z7pjwQFlexuYX79r1cvd9Y3rsf6Xn/ld67hvTY+eo7ltf6VOWl3H8kzcAkNLrbxtmCwqAAumiQBrQkYxGVXU96JSAhDPR4YR1OoP7epX9epWjCWhksQUMJo/e6DGYPNHVjVptW5zcgYCOkqtnq/UGdNToMuqn+Pk7tIevQ7nYRqVK9QaiKLIsSpkgMw/L8iyLrEOCEIIf7FyHLUs0HUKmAIHMSgSBQoNiMpKUwg7RUZzJu3FFI4ZhfX6SJOno1A4tLSXtc24f/8f1eRm7X+6OoSj6393j7i8bficAUkv/FtA/KAAKdEwFUp2OlGhUo3VKSRHccohRBCCZLD6z1W+y+Ko1ziagkeyn12rb39YZCOiodXRO+ihAR/EsyrwgfnfUvOK4RRDEeNpDmxRUQBRF7C9HEAzDcgzDURTbAMywLB8gaNwM25QIgvH7aYmmYvwZcJzQQG/1CSLlY6BJko7Tf6++fhI6L4rirqkDG0YjDEsYkC58Pzuh/qExKAAKgAKgQKMKpDQdyWh046ajWoPQCG9A9cZ6AQk3kPPaabTO61X2eEq+yhfqjW75coPJKw+a9L1vq3UIdNRqUid3IKCjRtcvucH+a64Fu3QEA+ViZUnS40AyB4l+P/KjYxgOoZHiXd89yARFUSzDcqIohoKUJB+8pnFyTLsTPhnzq/rm1szztoqjZXkZO0fdHW0vij6z760hG1/uxRLeZg4Kl4MCoAAoAAooFUhpOjJZfDgNw/UqR7XGoXR1axSQ8D5Vb/ToDJ7496xmq1+jc+mNHpPFhzMxyKQUfyep1hLoKNV+kTjnA3SkXKoaPa40E+9srjF5oFxso1KlSgOMRjjjAschssX1iHAyBo4TYk4UZZOTXOlIkqHpsImJ43iG5UgpkUOi1h5BEGiGTfSqmNNr5smDb/9t/fAMOdAomoiUZ/a+em9ZXkbV9n83c1C4HBQABUABUECpQKrTkVbvknPQVWtQCSN5ZxkPIDWBbUwWn1bv0uiceqPbYFLksG7J3M3yTbXEAdBRS6jaCn0CHSmXqniO7X527paaC3p/PI2hTZsrIAiIc3ACOnkyDMORJBsIIMc5lo1hDMSRSNjEhMON5GsFQUDBSwkCkhTIxFNUq3rQyXNWHrCEtywvY9tLcRmOMCbtmTZ49/QnlJ3AMSgACoACoEAzFUhFOrLYAlJ2BG+N1qnRuTS6BAAJX9vMnWtSOmnmHJJ4OdBREsVsza6AjpqwutGc8Nk+/daLjtb0hmrCPOESQRADAZSSDluNZEFCJiCS4XmEOiyLLEKyh5tY9xUdTYS97GoBKUYMkjwQPuB5niAoRjIcMQzbtn82Xv31sryMXfUnY1AajvDxoaInN77cK+Km4CMoAAqAAqBAcxRoDTraedIyJL983PyzUxZdaPQ9ddGFSQvOTFxwesKHp9744OT4+ScnfYw+vvHBSfwe/+HJyQvPy/1MXHB6/PzwVxM+OjXho1OTPzknN4CD1z86OyS/fMx7Z0CK9FJg9Hunh+SXX9f5mvOEd8BrRVFcf9a2+CCUi03dH18URb8/BhrhGfO8QFGs10t6vaTHQzIMoiOcsE55SzIoySdR4m+Wky1IFMU2HIMkoRRHEFQgQNE0Q9NMa6btlqctH+iObqov6Gj98IwtL94VTUc7J/yxLC9D4Dm5EzgABUABUAAUaKYCrUFHu09Zh+SXj//43FtfXGz0/eais1M+Pj15wSn8nrrwzLTPzud/ejZ/0Rn55JSPT037/ILcVf6iM1M+DrXHbaZ9dl7+Fg4mfXJ+SH752PlnQYr0UuDVD84gOgI/sSYtcqc13ne3aVwEVMxsknwteZEcOBRhNZLHFEVkVnK7CZeb8HpJjuNRlm0WFYeNaSySLUtS5jpUtlVqj2KQWBZdK/esPJBS0iEc4nmephmGYSmKIYi2jFvTHV5XlheDgvaOQUVgy/Iyoulo40v3IDqCyrDKnxaOQQFQABRongKtQUeXbnqH5JefuGRv1CvJYgto9a4bNx1yyVcpMQNKWKc3evRGdzwxSPFnqIuYjzKoKeKrtP4InnVp+vOBZ13zFregzknN3lxz0wblYpspZJIvlyKLUObu6H4x2NA0Mhy5JDrCkUUMw/l8lMeL7Egxr8InOY6XjUUcx9M06/fXG00kNWBIkmYYlmFCFF1f0aToQVvijENKWFeWl7G3tvwrxqE9E3LL8jI2jbgzmo4wNQEdtcTPAX2CAqBAh1UgtejIYEKxRhiBrlc5btx0aHSuao3zxk1HVTWq7towIGl0roQy1Ck3zTqDW290K8+0m2OgozT9KYGOmr8u+yjugx3aIzc8ze8KekiWAhTFUhSLLUJKww4+ZllENQGCpiiWIFBWOoxGbg/p99PRtqMGZsVxPM5upxxFbo9JjOf5QIBqk6qv8kzkA5mONgy/c+eo7nvH9NgzuvuOsX0xAkV71u0b2xvoSFYPDkABUAAUSJYCKURHJosPo1FVNTIW1ZZ8tddonQpAQgxTnwWpmcafdlDaKCYGAB3FlCX1TwIdJWWZ4wTx2yOmVSehXGxS5GxuJ5I9h2JYVO81QNDKlNyiKLIsL1MTDjSKH41iIhC2U9WXHBzfjCAIHMe1bcQRngmmo4uTem0fjVJ14/fGEXeenXDvltG9oulo7yQUdASedc39o4TrQQFQABSoq0BK0JHFFjBZfGarv0brrKp26Axuo9mr1btkQMIWpOtVdsmCFAakqmpHjbZOmu+Gt7xmq19vdGt0CVzScIdp8S3QUVr8TNGTBDqqu1g169Peq66PoVxssyRMwsWCIOAiRSjvNsl4vaTfT0m5E1Cabo5DGepkyMGxQz4fJVuNsFmJlNLZyc2CwSCqVkSjJOAsy0fULOI4PkDQBMEkYfYt3wWmI81bfRwlmdVv9amYct+1qffZijOdpapoOtrzRjZyt3sJhSSBZ13L/zgwAigACnQgBdqejjAUaXROs9VvsvgMJo/Z6q+qRq50sQAJudthLzhsQcK8FL2zjHnGYPLqjQiuNDpXMw1NMftPzZNAR6n5uzQ6K6Cj5K7EV82BdzbXmD3psVFO7r2nSG8cx+McdAzD+f2Uz4femI4wCymDkTiOV6IRTXM4GMntIfx+Si6FJIoiTnDn8ZAkycjUhMsiCYLAMFyASMwlr63kkunIWaqKeCvpaN+YHnveyCrLyzgyrmfFO08BHbXV7wXjggKgQHtVoI3pSGkvknHFbPVLViNkKZIBSY5BkqDIrjO4dYaQi53e6Gl0o2m1E3qju0brxC0xIBnNXnnQeHpI0zZAR2n6wwEdJX3ZtfuYOVtqLhmgXGzSpY2rQ5pmcYEjhkXE4vNRgUAoawLL8vIx7oskGdlqRNOcpzZPA87W4A+EksuxrAxRlJyzASf1xpYoNFaAri8/Xlzzbq1GjdLRvjE9drzcY8voXhiNHCWZV4COWuvXgXFAAVCg4yjQZnSEvenkQKOIjAhGs7eqGpmJbtbUASSt3iWnbdDonDVaZ5wZ6nA2PI3OJQ+E+aq9xhopeQDoSKlGGh0DHbXEQkyxwqK9+h2X2kO5WCbgvbF1yaHZz+9567FdUx5O/ffmCQO3THxk+6QBu6Y8vH3SgG2TBmyd+MiOyQ/vmPzwlomPbJPOy3exdeKATRMG7pj88NaJj2wY/+j6NwZtnDBQOnh0/RuPbhg/cNskdMubJwxcP/7R9eMf3T5pwPZJA3BvO6U+d0xGDbZPGrBl4iNbJj4i95yyB3Ks0faX7op446/WD7+zLC9j35julfm9HSXI4w7oqCVWCegTFAAFOrgCbUNHEqu4b9agZHQ3bqIcDDqD22DyGkxevHm12AIGkwcDUrXGqbQg6QzIBHS9KpTFLqHNLmYkvdFtsQWwI19Cl6dpY6CjNP3hgI5aaHUWRHHdGdvXh4wsL7TQEC3dLeWynv26cMPInmivPLr7kXE9jr3WM8XfR8b1PPBqr0Nj7z06LjzVo+N6Hh3X88i4nvteue/w2HuUt1A+7p4j43oeGnvvnlf67B7T58CrvQ6PvUf62Hv3GHSmfBz6iI9xtwde7VU+7h65/yPSMR73wKu9lJ2n7PGWF+888Er3mNM7+fo95ybcq1P3VTrdAR219LMG/YMCoEAHVKAN6MhiC2h0bjmyCAcR6Y1ujEkYkK6fKt+0eVfZ+h2r12xbtXrbmh+3rV23bfWPe3afseK4oyYn7zZb/Rodqp7UEXzqMBUAHQEddcClrdFbPlnjfW+bxkPEqJ/T6LVt24B0WXZOfnjjiLtOvXGPsaDOXlm5b061Y2txlr4gx1yU7SipE1TjKFFZirN0BTnW4qyIOVuKszTq3Gp1rqEw9K25KFuj7lc9PVej7mctzjIWZlerc+VrLcVZluIsR4kKv221B6aibENhTsS4EWOl6Uego7Z9GGF0UAAUaJcKtAEdSQVeQ8Yfg8mL88jJFWCrNU5D9fbJfW7tFHr9R+fOXTp3/r//8R+3dOp0+8MlR65IViOj2de0LS+2ShnNISNV0zpJr6uAjtLr95JnC7ajll5ztQ5q9qaaans6lYvFaLR55N0RNoTU39zbS1T6whxLFAI5S1VGiXnsdanJWaqyl6h0Bf1MRdkYnCSIQmhUPT3XXJRtK1HVqHNr1LnGomx8++aiLExBGISsEinZS1SmomxdQb/o/lNftEZnCHTU0qsE9A8KgAIdUIE2oCPJduS6XoUc6nCBV1zsNQxI19a+eneXzj/p8adn/vHMX599+pln//L0c+j9zHD18htSJFLjaRjMVr/B5ImZsKHjWI3wPhvoSOaN9DoAOmqFFdlLcu9v1x6rSptysYdmD60PjRwlmTfe7H38NeSodn7ivZai+xvdW7dmA2Q7iqIjbOQxFmZrC/rZiuvYlOS5YdQxS4SD0cgk4RCmI11BP1stVpmL0BC4T2dpyILkKFGZi7L1BTlAR63wQMEQoAAoAAq0AwValY7MVr9W75KgBcUOSd5xIYc6OdcCSkl3ed2Yu7t2/u8Xl9YQVjthtvp1BtSsqtqh0bniMftYbAGjGSXv1hncWr0rvfbESZ8t0FHSJW2dDoGOWmeF5QTxm3LTmlNWQRRbZ8Qmj+LVXSvLy7g8uZdMDvKBpej+XWNQGNKGEXdtHHFXWV7G+uF3Xp1yn9ygzQ8stZ51ypk4SpCBSF+Ygz3llF8pj6PRyFmqMhdl1UhudbLLnFHyoLPXOtTZpc6dpchzT18IdNTkvzu4EBQABUCBjqVA69HRsQtWXOxVb3Sbrf5qDSr8imONarQoPQOOREIWpMvrRnfv9n9+PnJJdcBqJ3AGBZyYIaYtKHqrajB5dAa3lMXbo9G5tHqX2eqPbtZBzgAdpekPDXTUmovx7grnJ7t1JMO35qCJjnV2SfGmF+/G5UGV8OAoydw5uuf64XfuHNV935ge+1/puXd0j80vIka68WZvZcs2PG7YdlQ9PTem052zVGVFUUn9qqUAJGw1wneB6Uh5Rl+YE2E7whYkDFeyiakNRUj60OBZl+hDBO1BAVAAFGhUgdago4tVnsFTDx04qcfedAaTV6NDnnX4o4xG1TUof/f1KseNinWju99xyy9GfV3l0xsR3hjNXpPFF4/VSN4H640eqfYrqi2LjVQdFpCAjuS/ivQ6ADpqdP1KboMKY2DOlhqrN0XLxYqiuHHUvSdevyd6h12Z37ssL2PXy933v9JTfu8b02Pji3fvGd09un2bnME2InNtjBDmFvwvTq5gKIxM2IDnaS3O0hagcCMlCMm2I7lDmxSkpKQj3DmOO0Kee7UOeG1y+y00KNBRchcB6A0UAAVAgWAw2OJ0JIri6Sv2QZP27z2qu17lqNGi5N1V1bHRCJuSqq6sHd39js4/H/mva6HUdnGajCL2vhIduY1mlCi8w6KR1U4AHUX8YaTLR6Cj1l+jrVK52MvGQOsP3eiIHBWoz63uyNgeG0bcha1GMh3tf6XnjpfuLsvLMBemRACSrUSlL8gxFWVjzze7lKrOWpyFDpCPXD9tQT/ZRy6CJQyF4QutUmI6yaCE/PFkZDIVZdeoUbYGZc46PJapKNtYmBPRZ/v4CHTU6IMDDUABUAAUSFSBlqUjURQJkjl2wTpo4r4DJ/XYhoODiKo1qJYrdqjDViPZy06KO/rJ/7n1t/dk5fbund0784EBT4547e1vtlxoKILIYgtEpFswWXx4xISMTumydY5/nkBH8WuVUi2BjhJdzpLSnmKFhXv0uyqcYoqFIfnN1WV5GUfH9Yze1h98pfumEXcquQgfbxuJnOuqp/WJvqT1zzhKVEYJckxF2ZbiLHNRtllKRodDj1Cebilzd8TEMOqYi7Jx3jmNup9G3Q+nqgslrCtECeuwfalGnYvz1DlLVbYS9HZI/+oLcwxAR0l5PKATUAAUAAU6gAItS0csy3m95NFzlkET9x09bzFZfHJdo3rRqMpRU7lzas7Puv13xh+6Z/a4+87/6dalM8ru3fn//vbxgnXVJjtK1RD91htRPdmI8zhmKeJkR/sIdJSmvzjQUVutwIIorj1tXXLYyPEplKeBsBvK8jL2jr47gh+cpaoD9dARDj2qeSsl6MhZqjJIlGKWLDn6AkQs+sIcm5Q7AVt+tAX9ZE85nNEbQ1GNGmXxDr/VqN6RtgC9LcVZ1uIsfLlBSr2Ac9PJZihrMUrzXV9QU7SY6XUGbEdttUrAuKAAKNCOFWhZOuJ53uerpaNz5njQSKNzKfPXIZ86o+bAyg9euP//69ypU5ce45Zdi4FGUtEkj1bvijAfpem2OLnTBjpKrp6t1hvQUduuvMerve9v13jIVCkXS7msZXkZZXkZ0dv3+ugIt9erU6ViLAYV7OdmlAq8ysVbrcUoAV31dFTa1VKcZZP87rCZCEGRlJIBE5GxMNtchIgIm5XsUsLuGomXsFUKe9Nh6MLpvLUFqHRstG7t4AzQUduuEjA6KAAKtEsFWpaOgsFgIECevGwdNHl/+RkT9qNrwGqk0bk0OheOSrpe5dDqUd45/Nbun/Pwf3bu1Pn/f/5rnXwSZ7TTG90mCyoOazR36PgipSzKY6AjpRppdAx01OZrrsZBzd5co3FQbT6TYDAo01E07cSko72je6QaHdlKVDhSCPvUYYCR0zOYirKxdQg7woXsRRIXaQv6GQtRTVi5lhEGG5tU6RW1VOfqC5AZCnvTYW89/C+GsXZZ7MhZqgI6SoVnE+YACoAC7UyBFqcjQRDOXXMOmnJg7zGUlQGXfK2qdlRrUIa6cKxRFaplhNHoxk2HzuA2mOqWfDUeVPf7SadOP3nw7eP6WmTCRKTRoRAmXOCoafkb0mjH3ISpAh01QbRUuAToKBVWWw/JvbdNc7za2+aTkenoyLiejpJMpd0jJh1tlYKOyvIyomlKeW0rH6PCrIU5OHeCcmhcm8ggFT7SFaDIomp1Lo4sMknhScrGGKhwFSPcUlvQz16Coo/klA/hNlIqiIjL281HoKM2fzBhAqAAKND+FGhxOgoGg5duegdPOXjgpAFn8b5ehUobNYxGMfamxkPq3J906nTbwDlnDAo6wi2lCrMeXGG2g+dgiJYO6Chak7Q4A3SUIgsux4tLDhvXnm7jcrGYjna9jNLQnRl/jxKQoulou5StDjdOKTrCVY+i6QjDDHa9wxYkqdJrP4xS2Gpkl0xD2F5kKMzB7FStzsXZuq2SPx6OVsKYhHN5Gwpz5BikdgNF8o0AHaXIKgHTAAVAgfakQMvSkSC9Lt30DskvP3rOrAwokosdXY+yGsXcuRqOL3jsjs6duvQYu8oWs4HVTpgsPq0eFUeqr0HHPA90lKa/O9BR6iy1oijuqnAu2qOnWKGtZoXp6OrU+06/cU9ZXsapN+6Ry8Iq6WjfmB44Vd2J13tel+ogpRQdOUtVpqIcnZRNQQktuBiRXXK9q56OrEbYjoT962okBNJKNqVwMNL0XI06VycVMsIOdRiN5LpGFikfAyKxUpWME+3sAOiorZ5HGBcUAAXasQJJoyNRFDmOE4Tw1kEQBIqiAwHyXKVzSH75iUt2o9mrBCQcX1SjRX5xVdXIy05ncFvt9t1LFi7Zq1EaiExX9sx66ve3dOr8n/2KNmtiZGWQt78WW0BncENuBlmQptQ7Mpxdqh774stvfbbXivvRlS97a8yol/O/2a/D4tv3L1a//OIr+YtPaKLseMqh4bg5CgAdpdrKexmXi/W1TblYTEfXpt7nKMnEgLRpxJ0nX79HO73v3tF3bxxx557RPba9dPeGF5Fx6cTryLh0401UJTbV6MiBgoVycFYGDEiW4izMSzgwCaORXrIO4XwM4Wx1isx1+gLUiU1yqJOJCIce4RzfUk68fo7S9pmPAWMe0FGqrRIwH1AAFGgHCiSHjlBdI4L2+UiKojEgYTRyuwmPhzhdYcN0hMOElIBUo3VWa5w4HklCI8Jqqfzwyf/sfMt/3f3AM8+PnvD6GxNGDX0y81c/6dypc5ff/HnGViNOT6c3euoLMdIb3R259mv0djxR25Hx9Fcj+2dlZeX+84OTUoiX98Sil6QTwxcclfJkGM9+9EJuVlZW/+FfHDU3BKvRk4Ez8SsAdJSCK6zVy8zZUlPRFuViZTrC22Kduu/x13puGI6y2MnvDcPvPDqup3Z6KEldatKRZOHJMhejAq+YapC7nZRTAdVEKsrWScdWKVW3vhAZmlA1JMmghOsd6aW6SXJZWJxxAUcu4bgjnONbW5BrL0XVkNrxG+goBVcJmBIoAAqkuwLJoSOKYrxeErMQRdEsy1IU7XYTbjfh95PYs+7EJTveF8oWJGXy7mqNs9bg4zm5YlbewPv++/9KVY6kSkdd/qvXoyPnLj9us9gCOMTIZPFVa5x6YzipHe5cSucAnnV1iCVROrLe2DhtSL/snEfHf38TV5e6tlo9JCc7Z9Cby6+i3IBWS82yyYNzsnMG56+/CrajFlMA6Cg1l1eS4Rfu1u2ucLby9CLoCO/4rUWZlfm9KybfVzG5V2V+b0vR/UoSSFk6cpSqrCU5piKUngGzjexlh0OGcBgSTjqH0y1gWMLBRXLqBXyAG+NmDsmUZEK5H/rZS3PasU8d/qGBjlr5MYThQAFQoCMokBw6YlnW6yXcHoRDHg8iInzs95M4K4NsO5IBSW/01Je8G7fRV1Yc2L1vw8bd2/ZfqNCHtvtGszdkYrITFlugRuvEubzxJfBvTAUSpiM7YazWXLhiNob3/d6bV65fvqnATrP58sWam2A4CktUh0hj/hCJngQ6StklWBDFNaesSw+bOKH1ysXGpCMlC0UfpywdIZ4pzTKX5BprAUmmo+i7wFm8I/6VmzmkVA0Yk2Q0MhT2s72d07596rACQEcpu0rAxEABUCB9FUgOHQWDwRAgSfYi2WqEdYmwHeE9ot7owbFGN27alXWNGt5BGs1ejc4pt9EZQpWO5DNwEK1AE+gouhM40/oKAB2l+MJ6rMrz/natt7XKxbYzOpIBCbvY4ax0MvPg9HTyx+gDDEs46AiblXCsEbYadRA0gnpHKb5EwPRAAVAgTRVIGh2hYoUU7ZHMR5iO5BikaDqy2AIaHcrEoDMkHCOkM7g1OpfVTpitfoMJyr82brIAOmp9sEnKiEBHqb+qVtvJ2ZtqtK1SLrb90ZEESCEXO2WSBsw5mJdkVzpcOhabmORjfCDHGhkLc3SFuZJDXXvOxKBkRbAdpf4qATMEBUCBtFMgaXQUSsOgoCOPh8CAFE1HOD0+rbdmAAAgAElEQVSDwaTw1IrbQwlnpdPqXXqjJ7JibNydJGXzmi6dAB2lyy8VMU+go7RYTz0EKhd7suXLxbZLOsKAZCvJNhXl6AtQGBLGIewv5yxVYesQ/miRir2iSyRvOmVUkqko21CYg9MwtPtYI6CjtFgZYJKgACiQvgokh47kDHVuN+H1EcoYJIqiL9xwR8QdRewCm/ARstLFLxrQUfxapVRLoKN0WVhZXvj6kHHdGZsgtmAYUnulI7zXx2m+9YU5cj46bDvChYywH50cXCSXfLUUZ0mudCj9nVTXqKOYjGRAAttRuqwSME9QABRIIwUSpiNRFBmGpWlGrN0HKNEIp2GISNJw+op98NRDcs66+Deg2HfOYPJC6oX4RYtuCXQUrUlanAE6SqOVVBTFHZcci/a2YLnYtKYj1+YdzNmvfJ8NlLf1MQ9wJm6NVArWIKXtNhVlW4qzpPefHOs+d382xCyBkKko24iMRf1CXFSiSNs960nXezkx+0cnZz9U71cz/u7+dFC936ZkZnCgozRaJWCqoAAokC4KJEZHuK6Rx0N6PIRU3QgxEs/zEWkYwkkaJEe7Y+ctgybvP3YhVFo0/o2p0ew1mLwGkweyL8QvWnRLoKNoTdLiDNBRuiyj8jwvGfxzttTYW6ZcbHrT0Y7zYpAXbnzqmanAmHp4A3vT6b/+zn3y3+aPB+sLc6S6ro/aTlkCPp1z1XPIxCSVgpXTf4eQZuYz3g0rGItXMK/3zY8JSA96j1XyxkPkxnGu6NHnzmcCDu7i194FMa9tbOYznvYui9VtaKAc96p3fU3rOXqqtWeAjuSnDw5AAVAAFEiWAgnQkSiKJBmqa4RxiCRpPA+KorHVSDkt2YJ09Jzl0Qn7Dp9GhVzj35WarX6NziUVOPLqjW6pkJGntiZS46kI4h+o3bcEOkrTnxjoSLmepMux2cO8s7nmqjmQ9AmnNx1tPS0KDnr1gAQsM8u2shxDX3jf8bZKKvz6iOuMhbNtdM7IwjVkUYaGubPJyz/4V7wd2PsjXVnB+zyCW8tpTzOXd5Flw2ONNchf6RdFjj9bGIOO5rxDB3hBs9QzpzEQqoUTaYgc98rPA98Mcs4cRZpJXn+SqTwWel8/wVyvPa68wNOi6Nrt/7BJ6FVnxPD0gI6S/qBBh6AAKAAKJEBHgiBwHBcIUD4fKvxKEJQgCDTNNCAiBqSj5xEd7Tum0xncCeGN2eqXzEces9WvM7j1xoQT3KXptji50wY6Sq6erdYb0FEDa0sqf0Uw/Me7dPuuupI7yfSmo80nE6aj7zbyvI1e/YZ/0xTXDJWz9CHfOYvo2OCdpXK++z5dsyPw1SDn3PkMzfPX/u1f85b382ekZmFyiEFHsyZQdl6kTgdi2nDmlNI+jj8zPcaFMpwsnkscXkEq38cOcUxQ9J8mvnqJNLL8WfnyAf4Kj3j9oxCGzRxLWln+xISGOpdHifsA6Ci5Txn0BgqAAqBAMBhMgI7kQCOO41iWFQQhECB9PjIQQCVf63uxLHvwjHHQhH2rd9w8cdFy7pozoffpCtuJC+ZTl62nLlsTuhAaywrsPmEakl++cpdGPgMHaaHAsh2aIfnlRntDz1d9zx2cb1sFBEFcddLy7ZFklottVTqa9bRn5XuBPd+RB5cG1k/zvNcgcsSzld90vF46mvmE691Y/X9Thuho1Z+9p6u4C++7Zz7kPWMK0dGavYJA8RfmuufNYwiWO/RSvMix4CuWE4TK+TEMR6Uq55wS2tsYHc38p2/H14H1b/uWvRW4Yhfd+wPfT/F+N8X73WTvZy8R+obpiOEOxz3VeFQtVQEdte2TDqODAqBAu1SgcToSRZGmGYZhKYrmOA6rgNFIrm7UMCCt268bNHHfY1MODskvb/g9eOrhiAaDpxwcNPnAoMn7B8dxecS18BEUaAcKVNR42+XS0xFu6kiV54MdWh8VWjabecutREcz/u47cIjzM7Vpd4LBoCiS1fS2V+MgkMf8Jw4Qq15AmQ/qvl2bT4iCk/7xsYjzztmPeY/dFJxHiG+eiOx/yY8cZ6NXPuT8dAnLkNzhCb7TmI4G+S7aQyFMc2bTgQToyLX+sCD4mc1/Do/1YQFx5GPPbAnP4qGjMLQ85A3NR0a7vxE6oKNm/pnD5aAAKAAKtL0CjdARTsPg9SIbkcdDyKnqKIrG/nU4AMntJhoApBNXXEOmHlq+Q7P7hDn6veOIfsdR/e4T5l3HTdvKdfhY2WzXcdOu4yblGThOSIE1e7RD8sv/taEqoaugcZsr8EVZ1ZD8cp2NaPt1AmbQVAVu2sjZm2t0TqqpHYSvayU6QmaZoMi5uepD1KlN1JVLPCOIwaDIG6mVg8NQEYYEmQ1UztJBgSpGpDTMlUN0RZ03o7OKIsXXHI44T1ccZl2MyJnozSMjO/9qVYiOZjxLaCih8iPfKQOyHX30PmM+6MeucXNm0P746egh3xmzKHi4qqPMNfw+xjoIUWT5a4s8s+KzHYVvPJqOnia0rHB9qW9VifSeQdb4Rf2Pfvxx9ae0iwXbUfgPGo5AAVAAFEhVBRqhI4ZhPR4UZYT4h6BIEpmPcJ46gqACAdLvD33bACDFrAaLgzdMFp9G58IZF0wWX43WmVDmhlaLAEnrgSDuKE1/Pog7StVlM7F5uQj23W2a05rm2gBbiY6+W8FcXeH7LJw+wfX9Wo4Vg0FBuL4gtkNaGBgG+q+TIee38EkJnzYeE2JnZZCCc5ybUDRRxCWLV4boqDTH/eNXgW+e8J5EdOTftY1a81So8Zy3aV/cdDRzHGnlhBsfK+7ib4SWEQU7s0cKbUK2I15wXGTOfutfHGXLipheaTQdPYXoSLeF2LdUen9Lm0jRuq/24zrWB3SU2LMDrUEBUAAUaBMFGqEjimJkNCIIyu8nvV6CYVhRFAXpJeVpiAFIcpBSMBhsgI6sdsJs9euNKGc3/leubpRQ/oY03f62zrSBjlpH56SPAnTUJmtiSwzKcMLig4b1Z23KhTHRgVqJjiIZQOUsfTpQQyPzkW1dDIap036g/5o/aXT05QpER6sH1zrjDfIi29FG74KnXO+NDVTeYA9Ods0ppb1RdDT3NeLGDWb3uEjc+nI5x/mZLU+Gz6M0DEJ4wtiz7mypd8chnvLxN9b5v26AkaLpCNmOGszKAHFHif7VQ3tQABQABdpAgYboiGVZbBoKEBRGI7dUv8jjCQESnm8UIFEcx/n9JMuyuEHDdKQEpGqNU6t3VWuckjXJC4CUlA030FFSZGz9ToCO2mBFbLEhRVHcdtHx2T49zQlNG6Tt6GigvzKA6Mj6Y2PVigb6r/rCsKEEpybYjjAd7V/B1JxiKg7SN2qQyx+pQcf4fWlDYOks2ssJlpPM1cPS+xRrM3DGSs6m4SynyR9qTUxoJjmeA1dFvpL8XJFQ+/NlHM/zp9+stUTJWRlyXMuWsX5O5Bzs0VI3ypgX/a6lozlD/Zeq2OPTXTMajTtiufKXY3UV3Xm8ZyArQ9OeJrgKFAAFQIEGFKiXjliWDQQo7FCnRCNsSmoIkDwEhiiWDcUiN0pHMiBpdC6DyYsTeYOLXbK240BHyVKylfsBOmpg5UrTry7o/XO31Nj9of/nKKG7aDM6mjmaNHPxetYlnY5WPoRxwrX1pCAGRc8e3/sKckDGHwVyIONPlCkJg83MsaSF4jWn6K1hZHJtOy0KVpT4AbeJyMqw+FPGy4kiwe4fHUaa+WqyuoYznGeuH2MdpEjr2OsXOJuOs56nVo9pLGcdyx0dG+4qBnEpbi2+b4GOEnqIoDEoAAqAAvEoEElHOKaIphmMRh4PEQgghzq3fCDFILndRMOARJLhOkjx0FFdQIKqr8ksdwt01MpUk6zhgI7iWcLSro3JQ7+zuabSnHCyjTajo6U/crwYFH3M1mca29m3gO0ohC6D/Vc8yH7lu8pWHyPXvFDLMzNRVoYjY2o/1k9H32/mAycDS75mrsjRUwP9l12i/4B/bi2TRNBRqcr5zQ8cLYg1XypClVTOmf2l4WptR3LE1IwXCCMn6HeQh5ZJ7xW0mRRth2o/bmJ9HNQ7SrsHFiYMCoACHVCBOnQUylDnI73ecCiR1yulZAgg5zoJisJfYUCSVeM4jiTpQICiqDAaNRp3pNxKmiw+vdFtsviUJ+G4mQoAHTVTwLa6HOhIXlva2QHB8At26fZfS6xcbNvQ0YxhgSqvGBRF23rvnFqKqNes0QJxR5iO3nuPCfg4mx257X39FRtwcydnuWeqnHPnonpHh0fV0lGsMCQ022cClTbu8GvOma+R+tOBjyXnujlFtIcXrr4fJp9oOirt79m+l973Wqj/OjceRUczXyLNnHDtS9+yaV70LiBu+kXtytDHHz6inQx/YlKsrhoVtt4GYDtqZ4sD3A4oAAqkggJhOkJoRNJhLpJCjEIpGcJoRPj9dfLUeb2EINRxo48OO462HUkU5NEb3dH7TnCoi9akmWeAjpopYFtdDnSUCktkC81BEMQVxy3fHTXzKF12XK+WpiNHna0/3o739+w8IyX41lE/PBbHtn6g/zoh0nq28hgT8TbYRZHmdccjz1ceZ92M6N7mxRWHlHPAcUeIjnLc208L1g2BM1JG71k57h1nBIHmTuQ7533MMCy799lG6GjpKs6yyYdqzj7oPVHFlUvubSt28LyX2aiofRSDjurFEmd0zroZL/iPbAh8K3vuSen4rn8Uoq8ZT3q+H+eKHcLUwCiNfAV0FNfDA41AAVAAFEhEgTAdBYNBiqJxgddQoBFO5F0XjbAFSS525PUSLMvi/HX1jRtNR3qjx2j2miw+oxlSLyTTiS7mPh7oKKYsqX8S6Ki+JaXdnD983T1/h9ZP8fHcUYvSkb0021ScY39bkbGgVOVasYFjhKDoYw/ENJ5Eb9ylekeODTFS2zWclcG/zxdtmJLpaNbrpElPr3kG5azDub9nTaRsrKhf6l7wFcuRzOZBYTqKTvA944VAZQW1opbuvlrJuQ/65w/2XbSLgUP+9xR30Uw6UqIdOq5LR5HfKsZtxldAR/E8O9AGFAAFQIGEFAjTkSAImHxwhjrMP4FYaOT3k7il241MSSzLen3hDHXRw0fQkcUWkPJ3uzU6l0bn0updYC9q0Z060FGLyttynQMdRS8m7e9MlRWVi9W76EZvreXoyF6abSjMqVHn6gv7OUqzMGm4vvmOJQRk8Dk3s56kbdH7+8G+g5sC3/8thpWpXjp60LPhq8C3tcYfJSeE6Gige8th9mypq/Qh7xmT6NwiWZlyXKu+IX581rl0LceZqGVyWoUZMcofLf4Xte+N8JRmPBe46eEvb2NJjj+rDp8vra0GG3FSOaU6x3U962Y85vlmTF2hIuhosHfr576P6vBnndHrdB6tbewzQEeNPjjQABQABUCBRBXoJIoiw7A0zbAsS5I0oUje7fWilAw4AYNMRPgABSN5CJ+PJMmQuSki1kg5jwg6stoJg8mrN7p1BrfFFtDqXQaTp+W2mNAz0FGa/g0AHSmXkXZ87Aqw87Zqzmp9Dd9jC9GRjEbV03O1BTn2kky0ZV/8JePjRZHlKz5E4T1N2rjXuWrTcVFw0mvCRWbrfBuzf0xHZXOoy8u8KHHCQ76zFtG9zafwwXNtPCrQZwIf1M5wzgyUpOHQS410vmwzz4siV0kuxvkVFJf7OP58cSOXh2aL6WiT79t3idOHmCvbya0fBg7gfAyxsjKcuyKIQcG4xqu0VsW88UROAh01/NTAt6AAKAAKNEGBTgQhxRpJqEPTDE6rgFNy1ybvRoFG2FhUHxopM9RFTyKajqx2wmILWGwB7FwHaRhadPsOdNSi8rZc50BH0YtJez3DcMKX+w0bz9mj4zblW24JOgqjkTq3Wp1bo+6nL8iyf/oR42ZFkeMrP/XICdkS2bLHoIvNJ5pIRwfm+XAShdKHfBfsoneXgo4e8p2ziIbvPHIwz5xZdCAOOlq6DGWi858MfPZgnanOnUMTvFDxTp2TMW98xmOe5R9Tep8oELxmB7FymHTJIO+mb4ntH/hXF0iZGOpmZQilapjq+aguksXsP+6TQEfyAwIHoAAoAAokS4FOgQCFY40wF3k8KI4IF4GtpSMiEEB56pqGRnLOumMXrBH7SL3RYzB5wXAUIUvSPwIdJV3S1ukQ6ChZy1xa9COK4pYL9i/2G5i65WKvmgJ4/kmnIxmNatT9tOqcanVu9fTcmvdmO3UenmeFm4s90bFAce/aIwDDtfmkKLiaYjuSixGVDvBfdorWdd53n3MvkABjbint8bO7hobHmvNO43T02QLGTfFVGymDV/Rfpba+Hs5ZN3c+7bhGb2+gJFGOe8W/6etXeZIVBT9/fX3g2waynEd41tVaqJqqYfg2FT0AHaXF0w2TBAVAgfRSIOxZh53oMAUFg0H5I2Ykn48kSCraoa5hqxHW4sIN96ApBw+fMYKNqHV21RGjAB1FCJIuH4GO0msxTcpsz2l987ZqHIFQudhKMzFyScUNKyqOlFw6UqKRoTDLWpxpKFRVT39Et78KVbfze2mnnnWaeLc5/Hbpmb2KuqiKPXrMjbvypGvLKVF002vj96wb5N17XhBczN5i34oC6V3o3/Kxf9Vc8qZDdJcHvhzo2XNRsJbVyTOOE3yX15Y/ip7hvxYyLj9/9VMEfu+OC1zSCAInOM7SBz/yffFnZ2l/Z6NuhF9+xZIUX7nCv7g2zUP0KKEzQEdJeSagE1AAFAAFWlsBlJVBzseAQQinoRNFUWlB8noJlOy7bqxRPGgUDAbPXXMOmnLw+EUbZF9ok3050FGbyN78QYGOWns5TI3xjG569uaa6xbC7mdfX3Zt+NcVi/bok0tHMhohY5G6n7lI5SjJlADpQd2eay5XwONB9b79fqpOwQaR409OVjJP/MeubWdE0UOvi5+OBnv3nhEYE3NiGXkw+v09sWc967pGfjuwzhzmvsuQHHdckYMhjC457lVrWK+VLS9U5E54yL3qO9roQA6NIi8GLJzpMnvjCH1pF3VmM3VyPXV8HXqfWEuslPNG9HcveU3RQwMWoSg6mvGU79gVvuqrJBrlwHaUGk8tzAIUAAXalQIhOvKhCrAhDzq3myAIiiTpCBc7t7tOGoY40UgQhFOXbYOnHjpxyY73i8BIzd83J9QD0FFCcqVOY6CjdrXWJnIzAZqft1Uz/OsK/B7xdYXNxyTLduQoVRkKs2tQlBFypZOSMWSbi1AyhloLUui8BoFTKIVdHQgJI0cDbFDnK9f2c6LoY9bXhZlG+nnIvfDvscd9701Sd4Ner/Cpw13N/YChOP50fuRVc0f5T5zjdHuI75+O/Apd+KD7m3nEiX2MXsOTtFi3AJXImZgdCu+76DnPGhm4dE3CqmPM1XLF+wij13CGM+Ezlec5h553aNjyt8LufNEdJnIG6CiRBwvaggKgACgQlwKhjN48z+OyRUp7kc9HiqIou9gpM9TFiUbBYFAUxTNX7YMl25HVThjNXqPZmzob0I4wE6CjNP2VgY7iWsPaYyNRFD/ZrZPpaPjXFcuOmpNCR/bSbHORylyUqS3I1klvDEi6gmxrMQIkU5FKpiaU47sgO5TFLpEtezSBuHZdFAUH/WP8tqM6cFWnw/cmE1dPUmv/Wecknt68+YzjGrUxT/mV69tPqTMbibWj4gOSHOeHw73fF/s3fhLY8y1Z/iO5I7/xC2cPdMqZIZonlHLm8RwDHbXHBQDuCRQABdpYgXC9IzwRkqTlhHUeD0GSqAqH3082DY1wn2evOQZN2l9+1qQ3unEd2DTdrabptIGO0vSHAzpq49Wx7YZff9amRKPhX1eM/vcVp9Vclpdxbep98WyacZsbb/Yuy8vQq/vij5JDHbIaGQtVtloWQvkYJAuSviDLXJSpkT7WqPvhk6EsdjjNdzP2/a5l8wPfPBX/zOtvmeNe9bF/cX02qDgCh5pxF/XPqn6Wa+HhgI7a7jGFkUEBUKDdKhBJR6Io4jqwcjKGQICiKFQHqTa1HZOoGJduegdNOVB+1qQzuMFw1Po7daCj1tc8KSMCHSW61LSP9qc1vgg0wh83HK9pDh3JaKQtyDYVhnfzpkIVJiIpBgm522nVOYZClb4gK7mAlIJo0Q6mBHTUPp56uAtQABRIKQUQHfE8T5I0jr4VRZEgKVz4CAMS+tdD4OP4HeqUNxmz3lFSto/QSTwKAB3Fo1IKtgE6Ui4jHeeYZPhLBn/ZGdv72zWvfHtVJqUJy6+uHX5302xHMdHIWpyJveaMhUpvOmWSBpUSkBzNtiC1AxpJtVsAOuo4KwPcKSgACrSaAp04jvP7UUoGgqBwIUL8L8dxSiOSG3nZJWw1wrcBdNS2O2+go7bVv8mjAx212jqYsgMJoqh3Ufuuuv51wJC/8urCKS81gY606szaNAz9ZKsRji9CtV+lbHUKV7pcQ61lKZSkQSoUqy3ItpcmJ0NDqgFGWs8H6ChlH16YGCgACqSvAp1wGgaPJ0xH8s0QJCX71zFMqP6G/G38BwnTkf74J6P/8ujjI+dtM+OdpXbf56P+/NjjIz7ZoSGkM7ad80c/MejJEfMPVdvxGfi3XgWAjprMJ217IdBR/ItMR2hJuaxrh3dPlI7W5d15/c1MnGihRt3PKJGPMvWCviDLIoUbKQApDFEYkDTqHFtpTlpTRHudPNBRR3j24R5BAVCglRXo5HajuhaBAEpPFzG2HIPUZKsRw7CiKCZKR4Zj8wd17dSp00/6Fx7WI/jxHH5niHRiwNsHXGjDajxe+qefdOrUqeuAdw+Y6qWCtt3aps7oQEep81skNBOgo4gVqYN/bFrOurXDMq7lh3ItoOTd6mx9QRaCJXWuHG6EAclUqNIVZGNXOq06x1QUik2yFWeC1Shl4QroqIMvC3D7oAAo0BIKdIqJRqIoCoIgiiJJ0hTVuEOdKL0i5icIAg5nSpSOrNdWjPxDl863/PofX1SaJNNQxTcv//6Wzrf8ZsS/LvvQ/tJS9a8XfntL51t+N3z5ZbAdNaZAwnRkOLtUPfbFl9/6bK8V7+Z15cveGjPq5fxv9uswi9r3L1a//OIr+YtPaBobPSEegMZKBYCOIpaUDv6xaXS0btgfat7qYy5SGQpDQUSIf9TIfc5UFMYhfUGWrTjTVpwZBqSCbItUBCllwQAm5ixVAR118GUBbh8UAAVaQoFO0VYjQRBwkjqO4+oUSq9nfFEUGYalKJT7O+YrYTqyE4abN89cMhrCO2/PjUtXLtzwhPeOJuOFs1U3wHAUlqheG1qidGQ8/dXI/llZWbn//OCkZLvznlj0knRi+IKjbvQTGM9+9EJuVlZW/+FfHDXXO274x4pjktA4WgGgo5jrSYc9mRAdOVBpV9XlKb3XDvsDzuhtKcrUqkOmIVwB1lGSaS4K4xAGJNSsILtaMi4ZCrMcLZyQGginmQoAHXXYBQFuHBQABVpOgU4RDnUYjVDybg8RT6wRthoxDMuy9QYmNYGOoneKcKbJCiRKR9YbG6cN6Zed8+j4729i29211eohOdk5g95cfhXb7mqWTR6ck50zOH/9VSCfFlMA6KjlFr507Dl+OnKUqizFqhp1v7MTM9e8EK53JOWmkwsZIS+7aECyFmeailRadU7bxBq9O9pfNrXx6quJMtuHM8jKcmrHm+5Z4VTmzcSSFLkc6Cgdn2WYMygACqS4AnXqHYXRyI0y1EWAU/SdiKJI0wxBUsFgkKYZjuOi2wSDQaCjJoNNUi5MmI7shLFac+GK2Rje93tvXrl++aY3PB+z+fLFmptgOApLlHwbGtBRzPWkw56Mk45kNKpR97swqW9ZXkb1tD6yjxyqYqTOrc3THRuQ7CUIkGyl2Q0DgKMEJQS3FWc6SpqPHA+6l7xDnDrOBVhRsNHr/+6c+WLgzE5i2T9d7w6OfL831H/yFLP7tYanF/Gt69tVHM0J+mXe2c2fbQr1AHTUYRcEuHFQABRoOQXCtqNE0SgYDOLAJFwuFpdIiumJB3QUhoqW3EzXN0oT6Ki+ruB8ayoAdNRyC1869hwPHSnRSKvOuTyl96rn78RZGTAg2YozteocfUGWRp1To8a1X0MWJORQNz23Rt3PVpwZgRYxP9pLMo1S0VhzkapJgNTftfB13+al5IVTnNsvioxgOctc2EweWBxY9ZJz5jDCyInuy0zFQTrifeUczwgicSbwef/Iic34u3vhQ5EnQ4amh7wndCJzLrCgLtvMe4O4epJc9XQ9V9VtnKjNquXbAx2l47MMcwYFQIEUV6CTz4ey1fE8T1E0cqiL22rEMCzDsBJTMTTNMAzr95M8z0ffMNBRa26po8cCOorWJC3OAB1FLyYd+UyjdFQHjQqyDYWqs5Myfxjao2IqylNnLkKmHkfI2pMphSGFAUmOStIVZMcTa+QoyTQVqqxSIgeTlODBnqgF6ctZxO5P/etKvEtHupeu4jgbvVIBNjP+TuhY4dr7MaBlTgntZbnDo2J8NW8hE9Azp1eRh1fEeB8/xFbvrnt+Fa1ziWJQpKuoVc/E6LDl8aaZgwIddeQ1Ae4dFAAFWkgBlNHb5yNJMgE0CgaDPM8TBEWSNI44wj51PM+D7SgFt91ARyn4o8QzJaCjFlr10rTbhunIXpptKUKxRjXqfvqCLKtkIzozMWv50J6V+febClHOOpx3Qd6OKwEJFzvSorpGjTjUOVG+h0zcG+7KVoxIyVioShiQZPb4ckUkHZU+Q2ibQEcLGIbnKxZ6v5uS4Huyd/HfZWXS6ADoKE0fZ5g2KAAKpLICiI7kdzyxRvLN4KzfBEmhN4FCj+p7ge0onq1wy7UBOmo5bVu0Z6Cj+paUjnm+ATqyl+boCvthTzl9QZazFGXrlrIyqFY+f1fVm31ROm91rrYg21rXa04GJKkUUlxoJFuNMHFhkLAUofR39pK4XPJisEcMOnqK0DRIR+Uvx+hn7nyG5vhTU2J8JZNY+IeUPUcAACAASURBVCDHvXIldXBa8pNAhIdoccc8oKOOuRrAXYMCoECLKhCmo4TQSDknnudZFlV9VZ5UHgMdtegeutHOgY4alSg1GwAdKZcROK6PjhylWbrCHJxroUbdz16bp7tGnXtxUp/Vz2fcePN+jEamIhUOFlIyEgYkbUF2PFYjZykyQBkKEYAhBqu1R2GfvfiYJBYwhOkox/19kfd9lbNR29GRV2MMN/c9huT4k5PQVwvnUXoNpz/HVB5hrh6O8b5+lWdFUbAzW4bF6KoVCac5owMdwcoACoACoEDSFejkTiTWqGEKqm9yQEdtu/kGOmpb/Zs8OtBRfUtKxzwfk45qY41Caeiqp+dq1Dnaguwada6+IAtnZaiYmq0tyMZohJMxYNc7eVOOwoficKhzliK4kgrLZpmKQpBjKFQ1xWo0K8+3e3k4BOjkOZ73cxdWkieO8gwv6JZ533uW0LGi9VC4jRxKVL6HIznu+Hh5/uEDTEcnJobOzFYEMkXQzlef0LaA6K9izq0iyl53zYjFbBGXpORHoKOOuRrAXYMCoECLKoBsR3FajTiOI0k6ZmRRw1MEOmry/jgpFwIdJUXG1u8E6KjhhaWjfRtNR7VohGKNtAXZGnWOnKpbX5BlKlRdmtxn+dCe1/JRhm57SSZqIKXzxuyktCCFASMOBnCUoLgjU6EKJ/VukkNdjnvFF8Suj/xrinzLpgcuW0TBxexWe5dNk95TPQteJI2sqFnuC53B56V/V3zFBOpxn5v7PkNy3LHXI2/n0znEgfneBQ9K5wd4Nu3gbBX0HrU7/bN7Ax11tHUA7hcUAAVaQYFO8aCRKIoMg3znGq76Wt90gY5af2OtHBHoSKlGGh0DHdW3pHTM8xF0pEQjHGukL8iSQ49wUNCZiVkrht59c1pfGY00UplXKXN3rkHCm0iQiIOOsBFJX5BlKUJJ8JrWQ/iqGc8SWhqVOVLmrJv5YuB8OblueLiZPLEZz3p/GBe7ruvcDxiK446MibrqMe/e0zxtZy8sI06WMyc+9LyXrsaiiFsDOuqYqwHcNSgACrSoAuF6Rw0Mw7JsIICyL+D83fVVfa2vh/1nbUPyy9/57uqidVXwbn0F5i2/NiS/vPjritYfGkZsjgJFX10ekl9+0xio78mC8x1KASUdRaORuShTV+tQh9GoWp17flLf1S9kaKf3wVYjrTob55eTM9TFk7w7YjuOPzpKMq3FzUjDIKNOqcr5wccMJQRFP1e1m9w4Lq4cCYs/oyt/9M3PiZzb3A8ZmuMOjYw8j4Yb4Nl9VhBE0bzCM7OdoJGzVAV01KEWAbhZUAAUaB0FOjU8DC6FhKGIJGmKogmCommm4asivt15yvLEtCN5s0+9NO80vFtfgeHvnHpi2pEXZp1s/aFhxOYo8PzMk09MO1Kp90U8UPCxYyog01GcaKQtyK6Y0nvtsD9cmSolrFOjqq/OUpR6GzngqXOtpf1iUUSYHHBxJFTOKFTRqNlmIiUU1R67Nh8TBAHZjtbPoR0BvnqFb8HIwIVrnOUKW3UslE3h5jXecYMNJVcoZ3Q3OVsNe2auOyJeaN4iluPYfc/Fvq8ZzwWqA6JllXdW+B6dpSrXt8uZi5960tPLDuioY64GcNegACjQogo0QkcYh2S3Op7ncfRRi84JOgcFQAFQABSIUECmI1txplzXyFmKkiJEW41wGobK/Pt+GNq9YmqOthaNTEXxohF2n7MUZdqKUelYU1Eo0Cg2eNSiTuLfPhW44RP0l3lUDXaAa8V2VDXvYqlz9kCn0sKz8ZjAnQ+gXHYNvj9eyvI0s22478RFzlrJ3jzJXDuqeB9n3bTovKg4c5S5dozzsKLI8pVpCUhARxGPCXwEBUABUKD5CjRCRyzLMgxLkqjwa9NSMjR/itADKAAKgAKggExHOK02jjXCaCTFEaEisHJdI5yG4dyk+5cPvedafig6KCE0krgL1U3CQGKVSr4mIcooAm8++ZIlDdTm1aga7KqHnDOGETVe/vS0SAqKk46W/BjqZ9ZAZ10DkdThk4SGFa9/WMd5b8GHTMDPXV7q+9dTkYNGTDUlPwIdwcoACoACoEDSFWiEjuTxaJohSTpRnzr5cjgABUABUAAUaI4CpNOybtgfrk29T97Ey2iEsyxopZR0GnWOnKEOZ2XQTe+D68PG6VAn94+DlGy1BWSNhSjxnfxtMg76ew5fF6q/9CxeyXF2REelKud7z7jmRBmI4qSjH/cJ3FViYVQ8UghsoulogPfEZfbAxDq8lJIUVJ/aQEfNeabgWlAAFAAFYioQg45E6RXdur7z0S3hDCgACoACoEASFRAEwW3Sr3kh4+qUXnijbCvOxEnqtOqcGilPN07nrS3IthSFknefn9R33bA/6NV9E7Ua4SFw6VhzkUr2r0uy7ejdUtpZQ337kDNERwPqYwCnko5mPOM7cYreOTq6sXv3JdGzw1dvBFEUHc0c6d/4VvqiEWRlSOIjBl2BAqAAKCArEIOOOI5jWU5uAQegACgACoACbaiAIAiBAGXRaH8Y2v3SpPswojhKMo2FKlx3SK50VFvvqF+1Olerzr6ef19ZXsbNaX0TtRrJ4GErzjQXZRoKs1DF2Fojkvxt8w76e/Zd5M6/jeBk8SpkO1qtoKPFn9MmLac/z944hsKEDDZRcHLXpSCi6xc4u463nCD+PajuBB7ynbMIlfPrp50oOkorM1Hdmw2Z18B21IYPJgwNCoAC7VWBOnSErUM0zQAdtdffG+4LFAAF0ksBjEYeD2Gu0S4fes+ZCX3NtVWGcDFWRwkyIuHQo5ARSUIjR0nmjTd7r34ho2IqKgIbT4Y6e0mmuQjVeI25EU/yyQ/n0bodvg+kXf5XqzjOUYeOSlXOuQPDIyptR/UhzYzhpNHP7vx7+KrIlkBH6fW3D7MFBUABUKBtFAjTkSiKOLhIFEWWZXleaJsZwaigACgACoACkgIyGnm9pE2nXT6056nxKq06RwYkTALGQpVWnW0qQl9VT0dWI0w4FVN6Lx96T8XU7EbRyFmqksxEKAOepagV6Giw7+g+8vvBIZL5eg3HO+k1CttRBNjEQ0efLGZ9pwIfRcUshbsCOoLnChQABUABUKBxBerQEUmickYESaNUdSwnimLjHUALUAAUAAVAgRZQQEYjn48kSdpnNa58/q6T4zMl/qkDSPYShDQ4TEhXEEIjU5HqzMSs5UN71qiz6jenhFnCVIgAKZ6WSWgza7Tvh6Hhfpau5XgX/WNz6CjHvfcif6G0frc6lbMU6KgF/kyhS1AAFAAF2p0CiI5EUWQYlLk7GAwyDEvTDMOwPh/J83y7u1+4IVAAFAAF0kABGY28XoRGwWCQclnXvJBxbmKfUPaFKAsStv9gq5FUEyn3zMSstcN76NV9wxwSNqSEuQh/aypSWWvpCLvYxXNVctp8s47jPfS6+Omov2fTBmrby+HRZ71Gas8Qn/UPn4m+01njKRsnVM5vqE30Val9BuKO0uBhhimCAqBAuikQoiOKQlBEUchqhKFIkF7pdjswX1AAFAAF2oMCJEl7PITbTXg8BMui/+sK1zu6NLkXjjKKtiApN/2OkkxtQfa1NzPL8jLipyMMSNgSJZOSstuWOv52A8/7mPUo0Mj1/VfUlcPM1bpvvRVlZbhWe7LyKs+JImemN+XhKbnW7WAOj489vaWf0zeuck4D7w2IIscdez12s9SmoPrmDHTUHp52uAdQABRIMQVCdCSKoiAIFMUgzzqCAp+6FPuZYDqgACjQgRQQ0S6ew3Tk9hBeLwIkuRqspSiUhqFhQLKXZt14s3f8dIST4JkKVfqCLHNRK3rZlaqc32/meS9TJqVhmPGU54dpnkVPuWbVV7Yo0urlnPkqcfo7b3SVpDDw5Li+W8p4OdGxw78g7m7Dl0eNmDJfAR11oHUBbhUUAAVaS4Fw3BEekeN4juMEAVIytNYvAOOAAqAAKKBQACfIIQiKphklIPmsxrK8DFwNNiYgReeaS4iOsHXCUYIyd0d3VZ/tIjnnF07zf/9c07ua9Zz74wZ96hDM5LiWTPW8l7qc07TbBzpSPDpwCAqAAqBAchSIpKPk9Aq9gAKgACgACiSoAM8jAz5FMT4f4fYQgQDFcZzXi/zr3B7CqtWueSFER85SVKFV6WJnLFQZC9FJ5Sa7CXSkvByOU18BoKMEHzJoDgqAAqBA4woAHTWuEbQABUABUKClFRAEweejcKAR9qbjpBfP8xiQQtVgJ/eSt+xKQKpR96uenmssVDlKwuYRoCNZq/Z6AHTU0g8m9A8KgAIdUAGgow74o8MtgwKgQMopgDOFIjOR9GYYlqJonMsbA5JUDbbn6Qn3Kw1EGJBQEVjpHVHXKE46am0/upQJ2mkHyAR0lHJPMkwIFAAF0l8BoKP0/w3ruwOaRmmA4QUKgAIprwCONQo50Ul0FAhQgQAyJXm9JEFQPM9btdrlQ+85NSFTo86JBiStOicCjZylqnjoyF6SqSvItpfUcclrB9jQQW4B6CjlH26YICgACqSfAkBHzf3NrOuKXy7998FqfzM6oi9tWraz0tt4D7TD5oq3CJV/y5QHHh3z7pqz1nivCI9PX9275bQZZRFu6OU/8c37S49aEu8+aFtXPKpw8Y5r7oa6h+9AgQ6jAMuyXinWyOMhfD4Sm498PhIDksdDkCQVsJt+GNr91HhVjTo3ApAcJZmOWAaZeOjIWYrKHLVeHdhY8+wgJNMStwl01GEWCbhRUAAUaD0FgI6aq7X7h7xunW69d8zKm43BhDwSefLzydO+2F0lAxWx681et/6035ubjfWSBmu5sHHhxMfu+v2f5x2y1dtKHiIYpM/OG9D1lt89/f4hczzNFVcGg0FiV37PLncOHjmuwdfIwRmdOmWMXF6d8AC+VS/97JbfPT2/3FF3XPgECnQ0BXCCUJpmfD7S6yU4jqMoxu8PAxJBIAuS2004Dbq1w/5wesL91dNza9S5yFhUW7y1vm23ko5sxSiLQ6OX1NcVnE9NBYCOOtqKAfcLCoACraAA0FFzRfatGfVfXXpP20vE3xF5dEb/rnf0m7JBG8IKYn/B/d0enH1C6Qnn3zE/f9HmQ3vWLZlfOO7ZAX163Jsz8Kmho16fUvDx1jhAjL3+6VM/6/3GBn3C5ILugzxQ0Pe2IR9VNAx87mXDbvvFmHW++O+8tqVv3Su/vP3xBTH6JytXv128rCIBNWv7hP+CAumlgCiKLMv5/STLsqIoUhTN8zxF0W4PQRCUDEh+P0mStNtNWDTalc/fVTG5l0adgwFJX5DVsEecTEeOkkxTocpUpNIVZAMgpSbnNG1WQEfp9dTDbEEBUCAtFAA6au7P5Fs35pcJ0hF9cs6fumUW7j2/ff1JyQ5EHi7O7vbw3DN0MOjdWDis6McKX9C/Ydxvuua8tnjD7iPnqyy+BiGH9rplOxS+H7568T+yXltvauAyd83Nen3nyMNFmbf2Gjbjk4UNvT4c+0CXX4xZWy8d+S5tWrwoZgcfTxz0s1v75M2K+nLmiMxunTt3y3p99Q0lKjb3R4LrQYEUUwCjkcdDYDqSZxeyFMUCJJyV4dzE3rZiFHpUPR3519lLsxrYVWM60k3vIxV4RZFF1mIUZWQpymwYqxroE75KKQWAjuRnBw5AAVAAFEiWAkBHzVXSv37sr+ujI9bljBVMRJ9995FumYUHnEdnPTF4+sYaFhmT7pDoiNgzrfetv3hYvVXn2zLhrm5PLrresPkGz97y71F/eumD1bv3y6/Ns58ZPG3lXvlz1MHeZVP6/6Lv8IWHY/rdkQcL7+/6oHrDsRMNvQ7Pf7rrz0atqZeOgvTNXd8tWb1lz6GjJ07WeR35fNivbnuocOPxOmcVH05d1NTfbXN/MrgeFGhbBQQBWY1QpVepqJFyMoIgBALIrc5TF5BQAJJJv3xoz1Pjkf3HVKiqUfeLTsMQsXHHdHRzWl9DYZa+IAvnprMWZ2olQIJUdRFypeNHoCPl4wPHoAAoAAokRQGgozhldG+aN/WLAxrk5FL35Vr36q+73Ddtl7vuaZIk3Sc+eOLuB17/9qwrYgz24vzBd2QWHiT5miX//J9fPrXw7JGZf5ToyLd72v33jZZCmIgdU++5I0468q548Y5bM0fN/3pJ3K+v3nm+560/HzLrQMykCuT+6b1vGzz/YvTtKu/S8f2wrrePWNkEjPFvGPfbGJ51jjMHT8WcT4SA8BEUSF8FeF5AqONBoUQYgViW5ThOFEV8UzzP4wY4W53sYucwaFc9f+ep8arq6bnagmx7aXaju/k6nnVFKgOqhpTpKMm0FoPtKFwVqlEZU7kB0FH6LgUwc1AAFEhZBYCO4vxpfKtH/eyW3z06auKkiNfE57K6df7FA8Oivpg08fncn3X+2R8nrbsRYf9hKxY8LtFRkDd++8Ivfjdu3eF3Hrzj4bmnLRsn/nnyRuwOR+ye1iteOvKtHvXz22KG8dR7d+SxGf1vvzd/Z+wAH2Ln1J63/H7I6IkNvsb/9b7OXYd+a6t3EPQFoT178ECk6WrXgn/+8rYHpq1WGrf2rHr7z7+99Td/nnewCUn2GpwCfAkKpIoCcslXn48kSIqiGIZhCYLyegmaZpSAhKBIyl9HkjQGJHMNiju6MOk+jTrHVpoTz5ZdpiNnKeIiU6EKhyqB1Sge9dKiDdBRqjzbMA9QABRoRwoAHcX5Y/rXv/qrrg9JoUF1r0DxQbE964gdk3vc9kDdXAvStezVT57AdBTkjTu/WXXOdXLOn+54eO6O70vn7K5lDeRjFzcdrR1TT5KDunNVfGqMjma/MHbhgUYwhb68e/NZM44P8l5cVjpjdWV0sBBvO/xZ/nj1nA8XffmVbNn611tP/LxrPcaupetOgP1I8UvBYXtSgKIY7FBHEJQoihzHySnpfD5SCUgchxI2YEAiSJSkAccdnZ/Yu+FYI+WeXklHOOjIDBFH7SulONBRe1of4F5AAVAgRRQAOorzh/BvfO13SaOjyoX/e0dmwT4vHfJT8x1/5093PDznqNnmdl9eNu7JEZ+fchP7pveNoiP/xaWjn3zl35cicjD41r3yK4WjGk1GQ0owGHQ7nOHzkXTEm/cuzEf5u197/Y3EX6+PGPi7Lp0739F/8vqaCENZTH3r8ayT2/r9EXcofwMHoEDaKoBxCDvUURQTQiMp+kgucKQEJJZlce0jvx8Zmux67fKhPSum3q/kn+hjRwnymsN5FyLoyFmqgmQM0Yql9Rmgo7RdD2DioAAokLoKAB3F+dv4N7+RcVuybEcSHU3518I3hr08fvLkSaOHZHTpdMvvB42aNBm/prw598cLO9V9b+v++OgJ+DX+5b8P+tPjf3n6sUGPDnpi1ILDdWoe1aUjYnfp30bOW7Wrrjvbji9f7nvvP+YfCGVhiKSjYJA3Xig/c9NBNJDmLoZWibWu7aAhOuJNu94ecv8/Fp2KldCitgP4LyiQTgrgDHUURbMs8qMLBJBPHbYakSTt9YaqG7ndqBSsEpAYBgGSR0re4Dbp1+XddW3qfQ3v5m3FmeYilbkIOdFV5t9XlpehV/dt+BL4Nn0VADpKp4UA5goKgAJpogDQUZw/lH/L+DuTS0eFB0k8tnPN6N/c0unWrLf2OBWTIfa+1eeOJz65FjLFoJJIUaak2uZ16QjlB+/666cKvviX8vXJuD927XLviCXncRKFaDqq7QzFCu2eNeyNhWV79jXy2vLJiIefmbXlZuhGFD3w+p0f57/+2muvvf7G+BDfKf/z2t8yu3W5a8ioGN+NHz7gt127dLm1W5/R31+N7lgxBhyCAmmhgJy8OxCgeJ5nGNbrJbFRiCRpDD8IkKQ8DRiQOI7DtyaKIi4Ui+KUHOayvIxG6chYqLJJSRcMhaqLk/qsHfYH3fQ+6bv7h5k3rMDlOc+U5WWIQtP+f6q0eIBgkqAAKAAKtLYCQEdxKp5821EtHXm3TOx+S6dOt/b520sjxn20WxPyfiN2vdmr2+MLrsh0pI52tKudewQdHZv5x9vvmbqjTsIF3rTkudu7Dfu+FsAapCNUDLZLz+dnf/Fl+PXZxAFduz4y8bPwmS+/mP18j863P1S4K1ZZJdZ44ejZKouXjvxfbV6z7rU+XX/aN/t/1bsj0t3xxmMHzrtr7wr+CwqkvwIyGnk8BEnSoihiLnK70UeMRj4f6fcjAxH2r3O7UTXYYDBIUTTDoEKxDMPyvEC5rPHQkaUIudWZClFpo4opvVc8f3fNW0BH7SRDXTQpXZj77KYxfdL/QYE7AAVAAVAghRQAOorzx/Bvej3JcUchOnJtGt/zzkcH9e328NwTl7/Ju6fnX+fu1LHBoH/rxLu6/e/Cylo62hc3HdEn33mwmXR0uCTrtj/VTUHhWzXyjp++tFrJM/TpOQ/emjFhSyIxQr7Ti/72u1sz/rn4/PmPh726Qq9gJ7JiybC7bus+9PNTAEhx/lVCs9RWACENTsMgJe8mSVrOwRCBRl4vqn2EwMlDeL0Ex3HY487vJ+VEdnHSEQ4uMhWiEKPLU3r/+EKGFmxH7SsTg5KR9qkfP/D2s6n9HMDsQAFQABRIMwWAjuL8wVDR11t+8/AwlLigzmvsX++/vfPPc58bW+cs+jD279k/vbXf20ej3MNYKe5IoiPetGJUzyFzf5jxpzsemnua5muWv3RXl/8a9O5xwvfjmP/p9o8lxhA+xEzSUDv3urYj+tScPzWTjo7OyL21xz9nLPos/Fr4xsNduw4YvzB85rNFb/+z+y2/e2Nz3HREXvvhlb63//yRkl1mPshWfTn0z3NPhCxcbPX6Sbk//UXOi/OW7zhnjCezQ+3Nw39BgZRUgOcFv5/CnnIorQJB0TSDc3PHRCP5JE7h7fGgakg8H/7/D+KnIzl595UpvdcN+wPEHSlxoj0d6+Y9UZaXoT1clpJPAEwKFAAFQIF0VQDoKM5fDtU7ujXxrAy39pq2u46HGxouTEf0hQ+ffLhwj+X47AfvePCdk3QwSJ9579Fu3Z79Wmv+Zugdv3p1Xa2thtj7Vv0JviPo6PisB5pJR0dK+3VVTVp1+Ej4dWD+X2/v9rcPD4TPHDm8cmLmLb8etyE+OvJf/n6s6o7/emDqhtq0drYNEx54YckNNkhcWfHGgP7Pv7Phau3txvmrQDNQIDUVEEURVXSVTEYUhbxlcT6GaIc6bDVSohE6I10oRx/he6yPjuwlmaYiVM5Iue+3SyVfISuDUpN2duwoyTw26+9bxmXzbDgZaWo+DjArUAAUAAXSSwGgozh/L+/uz99ZdsIcbdSov94RfXnTv8tOGaNMRzId+Y0/Tni2dK8jiIKAuv1x5nHUlLce+OrLnUbywgeD7ug/41jt1cTuaffFm5Xh6Iz+t/36ybcWfa58ffhq/67dhv7bErrfhuOODhepusbnWdfl56N/bBxpeOP++c92v7Vzl3vzdypYir7w0RN9Xiid9dqYkhXnaiOi4vxBoBkokNoKkCSNIYema5N3R8UaKdEIF4TFaIQvFARReYv10ZGtONNQmGUtrkNHmASiM3q3M0LosLfjKMm88N7QsryM61u/Vv6RwDEoAAqAAqBA8xUAOmquhsjlrst90/ZEWYjq7zhkO9q6fW7+52cQLJDlpTnd+pWW16JQMBj0bXjt9796aaWjthdi97Re8dLRwUJV1ztHLT58VPna+c4Tt93+l89vhhx1GqQjYs+0Xrf8esAIZemjcc/cd0uX3s+MUxRDen34gF93/uWYtQ2n3qY1uz/Mu//3uSPyHvnZrX3e2ltHKO/hmQ//9rF5xyDSqPaHhv+2FwVwMm6CoBgGZfF2u4lAgFKmYYhAI4ZhAwFKzs3AcmGfOixJNB3hukZygaNoVAA6itakHZyxl2Sem/dcWV5GxeoP5bC09vLcwH2AAqAAKND2CgAdNfc38Je9+qsuvZpAR1O+3HIgFFVEHii4//bM2iR2aEYoK/fP//ZlLcsEg8TO/HvipCNiZ/59vx70bkS8k3Vt8aiCb0/UWmgapCP6zPfvLtp4uQ6yxMjKwFsvHb9svHH6XG1wVKSWpObAlxMfzx445oNNV7zI/S+KjoJBd/ncIb/u8Y+Py+tUcIrsCT6DAmmoAE0zskMdykcnFX71+VGGupho5PWizHVSWaRINEIp7OrmrMPBRVp1Dk5SZ45yrnOWqoCO2gELybfgKMk0FmWdn/WXrWNVgEZpuB7AlEEBUCBtFAA6au5P5Vs35pdd7n0zOrqo/o7DcUehNhLPDHn/uFevMUm+e/59atXv8r7ThrdIxI7JPbr976Lr0a59yNC07pVf3f74ggr8JW+pqnKEr4w9j/roiLdcOXL4UIzXng+eub3bX+fvrfPV/h/n/u2uLv/zxHvlrrrDkLoj37/z2rAXpyxYd9aCpxWLjniaZoNs9bqJ2T/9eb//1969wEZx3GEARwhZCGQqgZpESlPlKIECNtgEqqQkUqSmaVSpaaQ2rTkg0IZCKWAIj1CDaVSpKar6IGpSgogpSpqiGsOZQiGQtCkxAaLwCgHCGwIUG/Pw3e3dzO7O7uxWc3Ner/f27tYYzBl/Jwvv7e7t47eH5E8z859pf2m4hP7z7R3xrrsLWJZFqdYSba3WnSpMlyMaucsweO7dk45kbbqrS8suV5U3Vom5XxurvHWrD84aHgmHIuHQP6d8HT/dXGBYJDw4Eg7VTx66b+X8ljOfer4eeAsBCEAAArdKAOmos5JK3U/u6TNsXvvZhXIeVDlcEx7ab/i0mp270q+GrXV123due21K6b1jZ9WeSpz5a8Wwby3/xN0HLbFtzpAB31nROv1R+xMoG164ty0dtd+W5R396Ffj+g+fv8N9jtSuyqE1C382t3r5H//snu3ojTd85jtypj5a9Wb9gdZGqdRB4ge2rP/wdLRdRGuXjrSmg5FXF86Y+crmsyI7sfNbq7/9laK+D4x//uWamuoqsgAAC3BJREFU7YebEJKyPDas7j4CTpcn0zQ9AcmpzRCPE9mhTrYa5YhGmW1H7iYF2Y6UWZtBth3tWzn/eOQ1/HR3gdNbay40bNTiTn/r7vOfAVcKAQhAoFsJIB119nEptVMG9nmo8t2MmJH1wPFDNc+X3vfItOWvu6smtC6vXL3mtxO+8cyK/a7qBbZtJ7bMGlz8xO8+9c0NSu3UQf2dtqNsJzab9tStfevvtRs2bdm6qaZy/JeKRvoU1Mv2aZ+ede5dtbMffnAsp0G8duqX+5Ys2Lin7g9znikveXLO6o9kQ1n6MMqxuqqnB/ft3atX7373jXz8e+Hpi1btwt8BbmQsF6gA55Yn2MgJizRNl1fsCUixVAtSqhOdnkyqQaJRjnTkxKSmJWWe2gwyHSWazhUoHC4LAhCAAAQgUHgCSEedfSbxdZMG9A51YNIfcUJ66UK7ZNB2ES17f//D7y7a4upTJ7clNv38gf6P/vpj33QUfWfigPzpyKaNR3ZG3vzNjKceKu7dq1ev3vc8V3O+XfNO22VkLuVKR9rp2pnlxcWPLN7RnPV4Ldvnlxb17lNU1GfQ2Ckr/v2F742wxt1rXnq2dFDR/U8uXrcfTUiZjwFrCk7ANLmiUEpVpwC3YRjJJJUzHTmpKTMgpeZ7FYORPPMaZbtDeuPKxgkPHp07smmJT3k62dHuSvtNSEfZMLEeAhCAAAQgkE0A6SibTND119+uKO5XsvC9nO0mAQ8W3bdq1guvbL/oEzGU+jmPfb960znfcUfNa3808KsT1rbVcMh9PnZ+/fQRA0smrjrgrsV9Y/efKr45/ukfTJw6LXNmWzG7bf7XzJdrT/imHlGp/GL9rFHF9z/x4t8OecYoZVys1vj5iSYfg4wdsQICd1iAcy7nNYpGCSEiIDnRKBoV9RXc1+cEpHhcbEoX746JznXu3bItJ681rq8IHakceTk1yshpMpIL16vLLv7y4WvLHnavRzrKhon1EIAABCAAgWwCSEfZZIKub9m7KXLwltRbM5t2rt98vH2HurarYFr2v6ASJ/cfbs6+ue0grUvs0qnT7SrStW64rb9bjh44nrv69209PQ4OgVsuYFlWIiGaieRPIlWPTi57opE8tWmaqqrpOhOfiqU/ZZo8yIXFrvyvruLBEy+OvLGsXFZicAch0Xa0bIxnDdJREFjsAwEIQAACEHALIB25NbAMAQhAoGMCnHN3QMoRjeRxLcsiRIw1kukoc14j39NbltVy+eKGCel0dHVpmW8Jb6QjXz2shAAEIAABCAQXQDoKboU9IQABCPgIcM7jSmvN7ihRFOqMQcrcmzEm54Q1DMMZlZS5W+Yapfnyuh8POTZ3xPXqsqtLyzxDjDy5SL5F21EmI9ZAAAIQgAAEcgsgHeX2wVYIQAACeQQMw/A0H8kxSL4fkzMgcR6oN537CPTGlfUVoYOzS5uWlF9ZIgKSbyJyr0Q6cgNiGQIQgAAEIBBEAOkoiBL2gQAEIOAv4C7DkC60kBqGlCMg+R8o31pNuREJh45UjrhWXXa9On80urGs/OT8kkg4lLx6Kd+xsR0CEIAABCAAgbQA0hG+ChCAAAQCCXDOGTPczT7uaKSqmmcMUmcCUupczN31jptGJBw6PGe4u3Uo9/LRuSMi4RAjKIYS6PliJwhAAAIQgIBt20hH+BpAAAIQyC+QmtdIVFOQ9bgZY7K+gqcMwy0JSJxzwzA0Tdc0nbG2cpT/rX72P9NLcici99adM0e/v+gpy7Ly3x72gAAEIAABCEAgJYB0hC8CBCAAgTwCnHNFUWUQEv/GiGzVMQwjFvPOa9T5gCRDEedcVTVN03VdJDHbti80RCLh0BcvlbojULblS4tHRcKhs++/k+fesBkCEIAABCAAAZcA0pELA4sQgAAE/AQYMyhNzd8aI7EYYYwZRrqLnW/LTCcDkmVZhmEwJnrWMcYo1WQLkqlr/5oxpuEXo/KOO7peXbZ7dvnmn5YYatLvhrAOAhCAAAQgAAF/AaQjfxeshQAEIOARYIzJVh05nauiUPe4IM/OnoAUcMpX90F00atOvDjnTgY7/8E/IuHQ3soxOQLS9eqyT+aNjYRDZ95d6z4gliEAAQhAAAIQyCuAdJSXCDtAAAI9VECO/5EpxSGQExbJuVzj8XQXO2ere0EGJNHWZJju9UGWLctijBGiynTk/sjZHW9FwqHdlWMbq0Zndqtrqhr98bxxkXDo5OZV7k9hGQIQgAAEIACBIAJIR0GUsA8EINDjBGQZBkWhikKTyXQzkWmayaQqo5EchpQ3IGVrX7IsS9fTFRc4587gIgdaNhm5S+Q5m86+93b95KH1k762e8FjpxeUXlw86uLiUacXjtqz6PH6yUPqJw05tWW1szMWIAABCEAAAhAILoB0FNwKe0IAAj1FwLKsRCJdhkEWqdN10cPNtm1C1ESCuqd/zR2QspFRqlGqyYBEqai+kG1P3/Va7NqJTa9vm/1oJBxyfrbOHPf5hlfVlmbfj2AlBCAAAQhAAAJ5BZCO8hJhBwhAoMcJiCJ1CRqNEhmNCFHjCiVEdUrVmaZJqeZUsbuJgCRLL8iy3brOnPTlDDEKgs5NI3ruSPORXc2fNbSc+4wbHYtYQU6BfSAAAQhAAAI9SgDpqEc9btwsBCCQX8CyLFUVFeqcaKQoIilFo8QJSLZtZwYkOUkRoWr+c7Tu4XwkkaCyNYlSMats63b8hgAEIAABCECgSwWQjrqUGyeDAAQKXEBGI0VJz/pKiOpEozwBKSbiUzRKEgnKeQcmYDUMg1CNUFVWYjBNE+mowL8kuDwIQAACELiLBZCO7uKHi1uDAAQ6IMC5ZZqmqmoyDiUSoiudotBYjBDqmgo2ZwtSNEoY63CFOsaYqmqqqnWoW10H7g27QgACEIAABCAQTADpKJgT9oIABO5qAadCXTyebgKKx0XzUSxGKE3lpRhxl6ojRHVaeEzT1DQ9HieKQo2OF++2bduyLE3TnaFHd7U0bg4CEIAABCBQ0AJIRwX9eHBxEIBAFwikJiZq1zok+8i5o1E8Lup6y/XyX0+VOS5eeTrUWZZonqLUp43IsiwnbnXBLeMUEIAABCAAAQj4CiAd+bJgJQQg0IMEDMOQFbplGYZYagSRJxrJQt7RqGhNkumIUtF81KFIwzlnqZesfYd+dD3oS4ZbhQAEIACBbiKAdNRNHhQuEwIQuG0CjDF3GQaZf5wOdfG4GIAk45O7SIOqigmLCBHVFAJemmEYlKqiDANRCRELAT+I3SAAAQhAAAIQ6BoBpKOuccZZIACBghPgnOs6k2N+CFFVVUQdWZIhvRAjnmiUTKoyO8l4IxuRgjcfyRFKhKhygiPfLnYFx4QLggAEIAABCPQkAaSjnvS0ca8QgECrgCzDEIuJUgqUapqmE+oq3p2qwZAjGiWT6XFKN1GGQYxPSo0yYkxks9Yrwm8IQAACEIAABO68ANLRnX8GuAIIQKCLBSzLolQTrUCpdKTromed7CbXVnchJmYuUhQxyogQ1d1q1JloZNs251xVNV1ncvRRF987TgcBCEAAAhCAQA4BpKMcONgEAQjchQKyuUZ2q6NUpJT0fK8xYhiGqmptASkq4tNNRyNZoU7TdMaYx9FKvTwr8RYCEIAABCAAgTsugHR0xx8BLgACEOg6AdPkctiPPKVhGOlolApClGqcc0rbApLseueMNepQq5GsUGekXl13hzgTBCAAAQhAAAKdEEA66gQePgoBCHQrATnWSPaUk6UUKNXkLK4y/ygKlYUTKPVOfyRbkGSzUsCxRnKCV0cIQ4wcCixAAAIQgAAEClYA6ahgHw0uDAIQuJUCTjRSFOqeyFVVRXuRpunR1omMolHCGHN3sbuJaGTbNmNM1sSzbVtWxkNAupVPFMeCAAQgAAEI3AaB/wPIb0TumwBjgQAAAABJRU5ErkJggg==;" vertex="1" parent="1">
          <mxGeometry x="660" y="450" width="355.55" height="157.28" as="geometry" />
        </mxCell>
        <mxCell id="8JbdH3tO8q7aePVKSRdx-20" value="" style="endArrow=classic;html=1;rounded=0;exitX=1;exitY=0.5;exitDx=0;exitDy=0;" edge="1" parent="1" source="8JbdH3tO8q7aePVKSRdx-7">
          <mxGeometry width="50" height="50" relative="1" as="geometry">
            <mxPoint x="410" y="550" as="sourcePoint" />
            <mxPoint x="750" y="440" as="targetPoint" />
          </mxGeometry>
        </mxCell>
        <mxCell id="8JbdH3tO8q7aePVKSRdx-21" value="" style="endArrow=classic;html=1;rounded=0;entryX=0.5;entryY=0;entryDx=0;entryDy=0;exitX=0;exitY=0.5;exitDx=0;exitDy=0;" edge="1" parent="1" source="8JbdH3tO8q7aePVKSRdx-19" target="8JbdH3tO8q7aePVKSRdx-17">
          <mxGeometry width="50" height="50" relative="1" as="geometry">
            <mxPoint x="410" y="550" as="sourcePoint" />
            <mxPoint x="460" y="500" as="targetPoint" />
          </mxGeometry>
        </mxCell>
      </root>
    </mxGraphModel>
  </diagram>
</mxfile>
